<svg width="88" height="104" viewBox="0 0 88 104" fill="none" xmlns="http://www.w3.org/2000/svg">
<rect width="86.1643" height="102.45" rx="15" transform="matrix(0.999924 -0.0123098 0.0123401 0.999924 0.412109 1.55762)" fill="#FF0000"/>
<path d="M28.5456 72.5729L27.6591 70.3733L24.8293 70.4072L24.0059 72.6272L23.096 72.6381L25.7998 65.4352L26.6097 65.4255L29.4755 72.5617L28.5456 72.5729ZM26.5537 67.4263C26.5331 67.3733 26.4986 67.277 26.4502 67.1376C26.4019 66.9981 26.3535 66.8554 26.3051 66.7093C26.2632 66.5564 26.2285 66.4402 26.2009 66.3605C26.1567 66.5677 26.1058 66.7717 26.0482 66.9724C25.9905 67.1664 25.9424 67.3203 25.9037 67.4341L25.1197 69.6037L27.3796 69.5766L26.5537 67.4263ZM34.7975 67.1377L34.8619 72.4973L33.9819 72.5078L33.9266 67.8981L31.1568 67.9313L31.2121 72.541L30.3322 72.5515L30.2679 67.1919L34.7975 67.1377ZM40.2163 67.8129L38.4664 67.8338L38.5218 72.4535L37.6519 72.4639L37.5965 67.8442L35.8666 67.8649L35.8577 67.125L40.2074 67.0729L40.2163 67.8129ZM43.2342 66.9367C43.6942 66.9312 44.0887 67.0265 44.4177 67.2225C44.7534 67.4185 45.0101 67.6988 45.1878 68.0634C45.3721 68.4212 45.4672 68.8434 45.4731 69.3301L45.4794 69.86L41.8097 69.9039C41.8303 70.5104 41.9892 70.9719 42.2863 71.2883C42.5901 71.5981 43.0086 71.7497 43.5419 71.7433C43.8818 71.7393 44.1815 71.7057 44.4407 71.6426C44.7066 71.5727 44.9788 71.4761 45.2573 71.3528L45.2665 72.1227C44.9947 72.246 44.7257 72.3359 44.4597 72.3924C44.1938 72.4556 43.8775 72.4894 43.5109 72.4938C43.0042 72.4998 42.553 72.4019 42.1572 72.1999C41.7681 71.9979 41.4611 71.6949 41.2363 71.2909C41.018 70.8802 40.9053 70.3781 40.8982 69.7848C40.8911 69.1982 40.9818 68.6938 41.17 68.2715C41.365 67.8491 41.6378 67.5225 41.9884 67.2916C42.3456 67.0607 42.7609 66.9423 43.2342 66.9367ZM43.2328 67.6568C42.8129 67.6618 42.4812 67.8024 42.2378 68.0787C42.001 68.3482 41.8622 68.7232 41.8213 69.2038L44.5511 69.1711C44.539 68.7179 44.4279 68.3525 44.2179 68.075C44.0078 67.7908 43.6795 67.6514 43.2328 67.6568ZM47.603 68.9345C47.6104 69.5478 47.9573 69.8504 48.644 69.8422C48.9773 69.8382 49.28 69.7845 49.5521 69.6813C49.8241 69.5713 50.1024 69.428 50.387 69.2512L50.3594 66.9514L51.2393 66.9409L51.3036 72.3005L50.4237 72.311L50.395 69.9212C50.0974 70.1181 49.8026 70.275 49.5106 70.3918C49.2253 70.5019 48.8793 70.5594 48.4726 70.5643C47.926 70.5708 47.4976 70.4326 47.1875 70.1496C46.8841 69.8665 46.7295 69.485 46.7238 69.0051L46.6997 66.9952L47.5796 66.9847L47.603 68.9345ZM56.1118 66.8826L57.0717 66.8711L54.8129 69.4783L57.326 72.2284L56.3061 72.2406L53.8536 69.5498L53.8863 72.2696L53.0063 72.2801L52.942 66.9205L53.822 66.91L53.8532 69.5098L56.1118 66.8826ZM60.2634 66.7429C60.9167 66.7351 61.4017 66.8726 61.7185 67.1555C62.0352 67.4384 62.1973 67.8931 62.2049 68.5198L62.2486 72.1695L61.6087 72.1772L61.4296 71.4193L61.3896 71.4197C61.1598 71.7158 60.9157 71.9354 60.6574 72.0785C60.4058 72.2216 60.0533 72.2958 59.6 72.3012C59.1134 72.307 58.7086 72.1852 58.3856 71.9357C58.0625 71.6796 57.8976 71.2782 57.8911 70.7315C57.8847 70.1983 58.0897 69.7858 58.5063 69.4941C58.9227 69.1958 59.5674 69.028 60.4404 68.9909L61.35 68.95L61.3461 68.63C61.3408 68.1834 61.2404 67.8746 61.045 67.7036C60.8496 67.5326 60.5752 67.4492 60.2219 67.4534C59.9419 67.4568 59.6758 67.5033 59.4235 67.593C59.1712 67.676 58.9357 67.7722 58.7169 67.8815L58.439 67.2247C58.6708 67.0953 58.9462 66.9853 59.2651 66.8948C59.584 66.7977 59.9168 66.747 60.2634 66.7429ZM60.5577 69.5996C59.8914 69.6342 59.4294 69.7464 59.1716 69.9362C58.9206 70.1259 58.7971 70.3907 58.8011 70.7307C58.8047 71.0306 58.8974 71.2495 59.079 71.3874C59.2674 71.5251 59.5049 71.5923 59.7915 71.5889C60.2448 71.5834 60.62 71.4556 60.917 71.2054C61.2139 70.9485 61.3593 70.56 61.353 70.0401L61.3473 69.5601L60.5577 69.5996Z" fill="#FEFEFF"/>
<path fill-rule="evenodd" clip-rule="evenodd" d="M45.6622 20H41.3156V33.6961L29 33.7673L29.0227 38.5672L41.3156 38.4962V52H45.6622V38.4711L58 38.3998L57.9772 33.5999L45.6622 33.671V20Z" fill="#FEFEFF"/>
</svg>
