<svg width="189" height="125" viewBox="0 0 189 125" fill="none" xmlns="http://www.w3.org/2000/svg">
<path d="M1.46134 104.472C-0.122686 99.3115 0.334504 93.8539 0.974197 88.4402C0.96803 71.479 0 54.468 0 37.6893C0 35.0694 0.0766999 32.3244 0.741274 29.7006C1.14334 28.1132 1.76058 26.5702 2.70619 25.1262C3.88451 23.3268 4.45886 21.7771 5.84536 20.1303C7.12469 18.6108 8.72758 15.2435 10.7165 14.3998C15.7177 12.2783 20.5003 6.85427 27.2783 6.61215C31.2666 6.46968 35.1113 5.28972 38.9691 5.28972C41.9136 5.28972 47.0842 5.14469 49.4691 3.82035C53.6303 1.50962 63.4079 2.64486 68.6289 2.64486C76.4627 2.64486 83.2591 1.32243 90.8196 1.32243C107.933 1.32243 125.068 0 142.237 0C156.726 0 171.615 0.122653 183.155 7.27337C185.552 8.759 189 13.6976 189 15.8692V21.8201V51.9421V85.6273C189 89.6593 186.325 93.6308 185.049 97.5292C184.344 99.6825 182.346 103.132 180.665 104.986C179.55 106.216 179.787 108.641 179.312 110.092C178.887 111.391 178.085 112.116 177.418 113.362C175.723 116.525 174.253 117.199 170.49 119.68C166.059 122.601 159.744 120.647 154.523 121.737C151.483 122.372 150.28 122.986 146.459 122.986H134.66H112.469C101.624 122.986 91.4382 124.97 80.7526 124.97C64.2472 124.97 48.0529 125.363 31.7706 123.317C23.2508 122.246 17.9345 120.994 11.1495 118.064C5.51719 115.631 2.81666 108.887 1.46134 104.472Z" fill="#49CA47"/>
<path d="M64.514 59.718V67.96H65.697V71.444H64.579V69H58.196V71.444H57.078V67.96H57.793C58.105 67.4227 58.3997 66.8203 58.677 66.153C58.963 65.4857 59.2143 64.788 59.431 64.06C59.6477 63.3233 59.8253 62.5867 59.964 61.85C60.1027 61.1133 60.1893 60.4027 60.224 59.718H64.514ZM61.251 60.771C61.2163 61.2737 61.1297 61.8413 60.991 62.474C60.861 63.1067 60.692 63.7567 60.484 64.424C60.2847 65.0827 60.0593 65.7197 59.808 66.335C59.5653 66.9503 59.3053 67.492 59.028 67.96H63.357V60.771H61.251ZM73.1513 65.503C73.1513 66.6557 72.8566 67.5483 72.2673 68.181C71.6866 68.8137 70.8979 69.13 69.9013 69.13C69.2859 69.13 68.7356 68.9913 68.2503 68.714C67.7736 68.428 67.3966 68.0163 67.1193 67.479C66.8419 66.933 66.7033 66.2743 66.7033 65.503C66.7033 64.3503 66.9936 63.462 67.5743 62.838C68.1549 62.214 68.9436 61.902 69.9403 61.902C70.5729 61.902 71.1276 62.045 71.6043 62.331C72.0896 62.6083 72.4666 63.0157 72.7353 63.553C73.0126 64.0817 73.1513 64.7317 73.1513 65.503ZM67.8863 65.503C67.8863 66.3263 68.0466 66.9807 68.3673 67.466C68.6966 67.9427 69.2166 68.181 69.9273 68.181C70.6293 68.181 71.1449 67.9427 71.4743 67.466C71.8036 66.9807 71.9683 66.3263 71.9683 65.503C71.9683 64.6797 71.8036 64.034 71.4743 63.566C71.1449 63.098 70.6249 62.864 69.9143 62.864C69.2036 62.864 68.6879 63.098 68.3673 63.566C68.0466 64.034 67.8863 64.6797 67.8863 65.503ZM83.0695 62.032L80.1965 65.412L83.3165 69H82.0165L79.0005 65.464V69H77.9345V65.464L74.9185 69H73.6185L76.7385 65.412L73.8655 62.032H75.1135L77.9345 65.412V62.032H79.0005V65.412L81.8345 62.032H83.0695ZM89.6345 62.032V68.038H90.6485V71.418H89.5435V69H84.6945V71.418H83.6025V68.038H84.1615C84.7595 67.2147 85.2058 66.2787 85.5005 65.23C85.8038 64.1727 85.9598 63.1067 85.9685 62.032H89.6345ZM86.9825 62.929C86.9478 63.5183 86.8568 64.1293 86.7095 64.762C86.5621 65.386 86.3715 65.984 86.1375 66.556C85.9121 67.128 85.6478 67.622 85.3445 68.038H88.5295V62.929H86.9825ZM94.7052 61.902C95.3032 61.902 95.8145 62.032 96.2392 62.292C96.6725 62.552 97.0018 62.9203 97.2272 63.397C97.4612 63.865 97.5782 64.4153 97.5782 65.048V65.737H92.8072C92.8245 66.5257 93.0238 67.128 93.4052 67.544C93.7952 67.9513 94.3368 68.155 95.0302 68.155C95.4722 68.155 95.8622 68.116 96.2002 68.038C96.5468 67.9513 96.9022 67.83 97.2662 67.674V68.675C96.9108 68.831 96.5598 68.9437 96.2132 69.013C95.8665 69.091 95.4548 69.13 94.9782 69.13C94.3195 69.13 93.7345 68.9957 93.2232 68.727C92.7205 68.4583 92.3262 68.0597 92.0402 67.531C91.7628 66.9937 91.6242 66.3393 91.6242 65.568C91.6242 64.8053 91.7498 64.151 92.0012 63.605C92.2612 63.059 92.6208 62.6387 93.0802 62.344C93.5482 62.0493 94.0898 61.902 94.7052 61.902ZM94.6922 62.838C94.1462 62.838 93.7128 63.0157 93.3922 63.371C93.0802 63.7177 92.8938 64.203 92.8332 64.827H96.3822C96.3735 64.2377 96.2348 63.761 95.9662 63.397C95.6975 63.0243 95.2728 62.838 94.6922 62.838ZM104.955 63.787C104.955 64.2203 104.825 64.5583 104.565 64.801C104.305 65.0437 103.971 65.2083 103.564 65.295V65.347C103.997 65.4077 104.374 65.5637 104.695 65.815C105.016 66.0577 105.176 66.439 105.176 66.959C105.176 67.5483 104.955 68.038 104.513 68.428C104.08 68.8093 103.36 69 102.355 69H99.3521V62.032H102.342C102.836 62.032 103.278 62.0883 103.668 62.201C104.067 62.305 104.379 62.487 104.604 62.747C104.838 62.9983 104.955 63.345 104.955 63.787ZM103.798 63.93C103.798 63.6007 103.677 63.3623 103.434 63.215C103.2 63.059 102.814 62.981 102.277 62.981H100.496V64.892H102.069C103.222 64.892 103.798 64.5713 103.798 63.93ZM103.993 66.959C103.993 66.5603 103.841 66.2743 103.538 66.101C103.235 65.9277 102.788 65.841 102.199 65.841H100.496V68.077H102.225C102.797 68.077 103.235 67.9947 103.538 67.83C103.841 67.6567 103.993 67.3663 103.993 66.959ZM107.921 66.283C107.921 66.387 107.917 66.543 107.908 66.751C107.9 66.959 107.887 67.167 107.869 67.375C107.861 67.583 107.852 67.7477 107.843 67.869L111.574 62.032H112.978V69H111.912V64.892C111.912 64.7533 111.912 64.5713 111.912 64.346C111.921 64.1207 111.93 63.8997 111.938 63.683C111.947 63.4577 111.956 63.2887 111.964 63.176L108.259 69H106.842V62.032H107.921V66.283ZM119.317 62.032H120.565L117.588 65.386L120.812 69H119.486L116.34 65.464V69H115.196V62.032H116.34V65.412L119.317 62.032Z" fill="#07335E"/>
</svg>
