<svg width="174" height="105" viewBox="0 0 174 105" fill="none" xmlns="http://www.w3.org/2000/svg">
<path d="M2.42065 14.0498C4.25981 10.7604 3.59039 6.43972 3.50605 2.63177C3.79825 1.44786 4.62557 0.744912 6.72943 0.744912H16.9628H46.825H121.75C132.713 0.744912 164 -4.32905 164 12.0079V37.4979C164 45.8123 162.923 54.3268 162.923 62.3951C162.923 68.8136 160.768 75.2451 160.768 81.9572C160.768 86.2258 157.537 88.7755 157.537 93.2202C157.537 111.986 92.3593 102.705 83.4497 102.705C61.2397 102.705 38.6105 103.99 16.4242 102.705C-3.39356 101.557 0.266257 82.4424 0.266257 65.9519V35.1268V20.3729C0.266257 18.3535 1.47205 15.7463 2.42065 14.0498Z" fill="#0B30B3"/>
<path d="M50.4944 42.6702C50.0611 42.6623 49.6661 42.707 49.3092 42.8045C48.9525 42.8933 48.6302 43 48.3422 43.1248L47.8761 42.141C48.234 41.9743 48.6433 41.8474 49.104 41.7605C49.5647 41.6737 50.0377 41.6347 50.523 41.6436C51.5195 41.6619 52.3353 41.8763 52.9705 42.2867C53.6143 42.6973 54.0912 43.2565 54.4011 43.9643C54.7112 44.6634 54.8595 45.4549 54.8461 46.3388C54.8307 47.3527 54.6528 48.2249 54.3123 48.9555C53.9718 49.686 53.465 50.2444 52.7917 50.6308C52.1271 51.0173 51.2922 51.2013 50.287 51.1828C49.7498 51.173 49.2953 51.1343 48.9236 51.0668C48.5519 50.9992 48.1851 50.8972 47.8232 50.7605L47.8386 49.7466C48.2011 49.8486 48.568 49.942 48.9394 50.0269C49.311 50.103 49.7047 50.145 50.1206 50.1526C51.2385 50.1732 52.0835 49.894 52.6557 49.3151C53.2366 48.7276 53.5529 47.8797 53.6044 46.7711L49.0942 46.6882L49.1098 45.6613L53.607 45.744C53.5348 44.7891 53.2212 44.0423 52.666 43.5033C52.1194 42.9645 51.3956 42.6868 50.4944 42.6702ZM59.4799 44.1226C60.0778 44.1336 60.587 44.273 61.0077 44.5408C61.437 44.8087 61.7607 45.1831 61.9787 45.6638C62.2056 46.1361 62.3142 46.6885 62.3046 47.3211L62.2941 48.01L57.5239 47.9223C57.5293 48.7112 57.7194 49.3171 58.0944 49.7401C58.4781 50.1545 59.0166 50.3681 59.7098 50.3809C60.1517 50.389 60.5423 50.3572 60.8814 50.2854C61.2293 50.2051 61.5864 50.0903 61.9527 49.941L61.9375 50.9419C61.5799 51.0914 61.2272 51.1976 60.8796 51.2605C60.5318 51.3322 60.1196 51.3636 59.643 51.3548C58.9844 51.3427 58.4016 51.1976 57.8944 50.9196C57.3959 50.6417 57.0077 50.2359 56.7298 49.702C56.4607 49.1596 56.332 48.5028 56.3437 47.7316C56.3553 46.969 56.4909 46.3171 56.7504 45.7757C57.0187 45.2346 57.3847 44.8209 57.8484 44.5347C58.3208 44.2487 58.8646 44.1113 59.4799 44.1226ZM59.4526 45.0583C58.9067 45.0483 58.4708 45.2179 58.1448 45.5673C57.8275 45.9082 57.6339 46.3901 57.5637 47.0129L61.1121 47.0781C61.1124 46.4887 60.981 46.0095 60.7179 45.6406C60.455 45.2631 60.0332 45.069 59.4526 45.0583ZM68.2443 44.4138L69.4921 44.4367L66.4646 47.7356L69.6332 51.4085L68.3074 51.3841L65.2157 47.7907L65.1619 51.3263L64.0181 51.3052L64.124 44.338L65.2678 44.3591L65.2164 47.7387L68.2443 44.4138ZM75.7983 45.5148L73.5236 45.473L73.4324 51.4783L72.3016 51.4575L72.3928 45.4522L70.1442 45.4109L70.1588 44.449L75.8129 44.5529L75.7983 45.5148ZM80.5017 44.5091C81.3595 44.5249 82.0439 44.8365 82.5547 45.444C83.0742 46.0516 83.3248 46.9577 83.3065 48.1622C83.2884 49.3494 83.0105 50.2458 82.4725 50.8514C81.9433 51.4571 81.2454 51.7519 80.3789 51.736C79.8416 51.7261 79.3969 51.6183 79.0446 51.4124C78.7012 51.1981 78.4318 50.9548 78.2366 50.6825L78.1586 50.681C78.1737 50.8287 78.1882 51.0153 78.2021 51.2409C78.216 51.4666 78.2217 51.6617 78.2192 51.8263L78.1758 54.686L77.032 54.665L77.1853 44.5781L78.1211 44.5953L78.2627 45.5471L78.3146 45.5481C78.5272 45.2486 78.8041 44.998 79.1452 44.7962C79.4863 44.5944 79.9384 44.4987 80.5017 44.5091ZM80.2791 45.4672C79.5685 45.4541 79.0629 45.6442 78.7623 46.0374C78.4703 46.4307 78.3094 47.0345 78.2797 47.8488L78.2763 48.0698C78.2633 48.9277 78.3919 49.5931 78.662 50.0662C78.941 50.5307 79.4618 50.77 80.2243 50.784C80.6489 50.7918 80.9973 50.6812 81.2695 50.4522C81.5503 50.2233 81.7587 49.9107 81.8948 49.5145C82.0396 49.1098 82.116 48.6474 82.1239 48.1275C82.136 47.3303 81.9897 46.6905 81.685 46.2081C81.389 45.7259 80.9203 45.4789 80.2791 45.4672ZM91.1862 48.3071C91.1687 49.4596 90.8605 50.3468 90.2617 50.9685C89.6715 51.5905 88.8781 51.8923 87.8816 51.8739C87.2664 51.8626 86.7183 51.7139 86.2372 51.4276C85.765 51.1329 85.3943 50.7144 85.1252 50.172C84.8562 49.621 84.7276 48.9598 84.7393 48.1886C84.7568 47.036 85.0606 46.1532 85.6506 45.5399C86.2407 44.9266 87.034 44.6292 88.0304 44.6475C88.663 44.6591 89.2154 44.8123 89.6876 45.107C90.1687 45.3932 90.5394 45.8075 90.7999 46.3497C91.0691 46.8834 91.1979 47.5359 91.1862 48.3071ZM85.9221 48.2103C85.9096 49.0336 86.0599 49.6908 86.3732 50.1819C86.6952 50.6646 87.2115 50.9125 87.9221 50.9255C88.6239 50.9384 89.1431 50.7096 89.4797 50.239C89.8163 49.7598 89.9909 49.1086 90.0034 48.2854C90.0159 47.4621 89.8611 46.8135 89.5389 46.3395C89.2167 45.8655 88.7004 45.622 87.9898 45.6089C87.2793 45.5958 86.7602 45.8203 86.4324 46.2824C86.1047 46.7444 85.9346 47.3871 85.9221 48.2103ZM94.1955 44.8908L94.1515 47.7895L97.9338 47.859L97.9779 44.9604L99.1217 44.9814L99.0158 51.9486L97.872 51.9276L97.9192 48.8209L94.1369 48.7514L94.0897 51.858L92.9459 51.837L93.0517 44.8698L94.1955 44.8908ZM102.471 45.043L102.427 47.9417L106.21 48.0112L106.254 45.1125L107.398 45.1335L107.292 52.1007L106.148 52.0797L106.195 48.9731L102.413 48.9035L102.366 52.0102L101.222 51.9892L101.328 45.022L102.471 45.043ZM109.498 52.1413L109.604 45.1741L110.747 45.1951L110.704 48.0548L112.511 48.088C113.412 48.1046 114.077 48.2815 114.505 48.6187C114.933 48.956 115.142 49.4539 115.132 50.1125C115.122 50.7624 114.902 51.2785 114.472 51.6606C114.041 52.0341 113.349 52.2121 112.396 52.1946L109.498 52.1413ZM116.257 52.2655L116.362 45.2983L117.506 45.3194L117.4 52.2866L116.257 52.2655ZM112.306 51.2698C112.8 51.2789 113.204 51.2039 113.519 51.045C113.833 50.8774 113.994 50.5813 114 50.1567C114.007 49.7321 113.868 49.4435 113.584 49.2909C113.301 49.1297 112.891 49.0441 112.353 49.0343L110.69 49.0037L110.656 51.2394L112.306 51.2698ZM122.413 45.2795C123.01 45.2905 123.52 45.4299 123.94 45.6977C124.37 45.9656 124.693 46.34 124.911 46.8207C125.138 47.293 125.247 47.8454 125.237 48.478L125.227 49.1669L120.457 49.0792C120.462 49.8681 120.652 50.474 121.027 50.897C121.411 51.3115 121.949 51.5251 122.643 51.5378C123.084 51.5459 123.475 51.5141 123.814 51.4423C124.162 51.362 124.519 51.2472 124.885 51.098L124.87 52.0988C124.513 52.2483 124.16 52.3545 123.812 52.4174C123.464 52.4891 123.052 52.5205 122.576 52.5117C121.917 52.4996 121.334 52.3546 120.827 52.0765C120.329 51.7986 119.94 51.3928 119.663 50.8589C119.393 50.3165 119.265 49.6597 119.276 48.8885C119.288 48.1259 119.424 47.474 119.683 46.9326C119.951 46.3915 120.317 45.9778 120.781 45.6916C121.254 45.4056 121.797 45.2682 122.413 45.2795ZM122.385 46.2152C121.839 46.2052 121.403 46.3748 121.077 46.7242C120.76 47.0651 120.567 47.547 120.496 48.1698L124.045 48.235C124.045 47.6456 123.914 47.1664 123.651 46.7976C123.388 46.42 122.966 46.2259 122.385 46.2152ZM47.2728 57.0304L48.4946 57.0528L49.9421 61.0451C50.0668 61.3941 50.1788 61.7299 50.2779 62.0524C50.3771 62.3663 50.4505 62.6667 50.4982 62.9536L50.5502 62.9546C50.6055 62.7389 50.6921 62.4588 50.81 62.1142C50.928 61.761 51.0504 61.4079 51.1771 61.0548L52.6539 57.1293L53.8887 57.152L50.7657 65.0259C50.5131 65.68 50.1889 66.1985 49.793 66.5813C49.4058 66.9642 48.8743 67.1495 48.1984 67.1371C47.9904 67.1332 47.8086 67.1169 47.6531 67.088C47.4974 67.0678 47.3634 67.0437 47.2511 67.0156L47.2649 66.1057C47.36 66.1248 47.4724 66.1442 47.6021 66.1639C47.7405 66.1838 47.8833 66.1951 48.0306 66.1978C48.4292 66.2051 48.7516 66.0984 48.9976 65.8775C49.2523 65.6569 49.4518 65.3615 49.5961 64.9914L49.9741 64.0752L47.2728 57.0304ZM57.6772 64.3208C57.0619 64.3095 56.5136 64.1737 56.0322 63.9135C55.5594 63.6534 55.1884 63.2566 54.9191 62.7229C54.6586 62.1893 54.5345 61.5109 54.547 60.6877C54.5601 59.8298 54.7136 59.1348 55.0077 58.6028C55.3019 58.0708 55.6935 57.6836 56.1825 57.4412C56.6803 57.199 57.2411 57.0836 57.865 57.0951C58.2202 57.1016 58.5619 57.1469 58.89 57.2309C59.2182 57.3063 59.4856 57.3979 59.6919 57.5057L59.3266 58.4482C59.1198 58.3664 58.8783 58.2882 58.6021 58.2138C58.3258 58.1394 58.0664 58.1 57.8238 58.0955C56.4547 58.0703 55.7568 58.9373 55.73 60.6964C55.7172 61.537 55.8721 62.1856 56.1945 62.6423C56.5257 63.0905 57.0206 63.3206 57.6792 63.3327C58.0604 63.3397 58.3947 63.3068 58.6818 63.2341C58.9776 63.1615 59.2477 63.0711 59.492 62.963L59.4766 63.9768C59.2408 64.0939 58.9794 64.1801 58.6926 64.2355C58.4142 64.2997 58.0758 64.3281 57.6772 64.3208ZM66.0301 58.3374L63.7555 58.2955L63.6642 64.3009L62.5334 64.2801L62.6247 58.2748L60.376 58.2334L60.3907 57.2715L66.0447 57.3755L66.0301 58.3374ZM70.7335 57.3316C71.5914 57.3474 72.2757 57.659 72.7865 58.2665C73.306 58.8742 73.5566 59.7803 73.5383 60.9848C73.5203 62.172 73.2423 63.0684 72.7044 63.6739C72.1751 64.2796 71.4772 64.5745 70.6107 64.5586C70.0735 64.5487 69.6287 64.4408 69.2765 64.235C68.933 64.0207 68.6637 63.7773 68.4685 63.505L68.3905 63.5036C68.4056 63.6512 68.4201 63.8379 68.434 64.0635C68.4479 64.2891 68.4536 64.4842 68.4511 64.6489L68.4076 67.5086L67.2638 67.4875L67.4171 57.4007L68.3529 57.4179L68.4945 58.3697L68.5465 58.3706C68.7591 58.0711 69.0359 57.8205 69.377 57.6188C69.7181 57.417 70.1703 57.3213 70.7335 57.3316ZM70.5109 58.2897C69.8004 58.2767 69.2948 58.4667 68.9941 58.8599C68.7021 59.2533 68.5412 59.8571 68.5115 60.6714L68.5082 60.8923C68.4951 61.7502 68.6237 62.4157 68.8939 62.8887C69.1728 63.3533 69.6936 63.5926 70.4561 63.6066C70.8807 63.6144 71.2291 63.5038 71.5013 63.2747C71.7821 63.0459 71.9906 62.7333 72.1266 62.3371C72.2714 61.9323 72.3478 61.47 72.3557 60.9501C72.3678 60.1528 72.2215 59.513 71.9168 59.0307C71.6208 58.5485 71.1522 58.3015 70.5109 58.2897ZM81.418 61.1297C81.4005 62.2822 81.0923 63.1693 80.4935 63.7911C79.9033 64.413 79.11 64.7148 78.1135 64.6965C77.4982 64.6852 76.9501 64.5364 76.4691 64.2502C75.9968 63.9555 75.6261 63.5369 75.357 62.9946C75.088 62.4435 74.9594 61.7824 74.9711 61.0111C74.9886 59.8586 75.2924 58.9757 75.8825 58.3625C76.4725 57.7492 77.2658 57.4517 78.2623 57.4701C78.8948 57.4817 79.4472 57.6349 79.9195 57.9296C80.4005 58.2158 80.7713 58.63 81.0317 59.1722C81.301 59.7059 81.4297 60.3584 81.418 61.1297ZM76.1539 61.0329C76.1414 61.8561 76.2918 62.5133 76.605 63.0045C76.927 63.4872 77.4433 63.735 78.1539 63.7481C78.8558 63.761 79.375 63.5322 79.7115 63.0616C80.0481 62.5824 80.2227 61.9311 80.2352 61.1079C80.2477 60.2847 80.0929 59.6361 79.7707 59.1621C79.4486 58.6881 78.9322 58.4445 78.2217 58.4315C77.5111 58.4184 76.992 58.6429 76.6643 59.1049C76.3365 59.567 76.1664 60.2096 76.1539 61.0329ZM88.9685 54.9104C88.8979 55.5592 88.6694 56.0491 88.283 56.3801C87.9054 56.7025 87.305 56.8562 86.4818 56.841C85.6327 56.8254 85.0329 56.6497 84.6827 56.3139C84.341 55.9782 84.1536 55.4807 84.1203 54.8213L85.1861 54.8409C85.2223 55.3096 85.3388 55.6282 85.5356 55.7965C85.7412 55.9563 86.0693 56.0403 86.5199 56.0486C86.9185 56.0559 87.2317 55.9793 87.4595 55.8188C87.6961 55.6498 87.8395 55.3404 87.8896 54.8906L88.9685 54.9104ZM84.2978 61.9627C84.2962 62.0667 84.2895 62.2226 84.2777 62.4304C84.2659 62.6382 84.2497 62.846 84.2292 63.0536C84.2174 63.2615 84.2062 63.4259 84.1957 63.5471L88.0148 57.7794L89.4185 57.8052L89.3127 64.7724L88.2468 64.7528L88.3092 60.6452C88.3114 60.5066 88.3141 60.3246 88.3175 60.0993C88.3296 59.8742 88.3417 59.6533 88.3536 59.4369C88.3657 59.2117 88.3769 59.0429 88.3873 58.9304L84.5944 64.6856L83.1777 64.6596L83.2836 57.6924L84.3624 57.7122L84.2978 61.9627ZM94.3223 64.9945C93.7071 64.9832 93.1588 64.8474 92.6774 64.5872C92.2046 64.3271 91.8336 63.9302 91.5643 63.3965C91.3037 62.863 91.1797 62.1846 91.1922 61.3613C91.2052 60.5034 91.3588 59.8085 91.6529 59.2765C91.947 58.7445 92.3386 58.3573 92.8277 58.1149C93.3254 57.8726 93.8863 57.7573 94.5101 57.7687C94.8654 57.7753 95.2071 57.8206 95.5352 57.9046C95.8634 57.98 96.1307 58.0716 96.3371 58.1794L95.9718 59.1218C95.765 59.04 95.5235 58.9619 95.2472 58.8875C94.971 58.813 94.7116 58.7736 94.4689 58.7691C93.0998 58.744 92.4019 59.611 92.3752 61.3701C92.3624 62.2107 92.5173 62.8593 92.8397 63.3159C93.1709 63.7641 93.6658 63.9942 94.3244 64.0063C94.7056 64.0134 95.0398 63.9805 95.327 63.9078C95.6228 63.8352 95.8928 63.7448 96.1372 63.6366L96.1218 64.6505C95.886 64.7675 95.6246 64.8537 95.3378 64.9091C95.0594 64.9733 94.7209 65.0018 94.3223 64.9945ZM102.675 59.011L100.401 58.9692L100.309 64.9745L99.1786 64.9537L99.2698 58.9484L97.0212 58.9071L97.0358 57.9452L102.69 58.0491L102.675 59.011ZM109.638 59.9321C109.631 60.3654 109.496 60.701 109.232 60.9389C108.969 61.1767 108.633 61.3352 108.224 61.4144L108.223 61.4664C108.656 61.535 109.03 61.6979 109.347 61.9551C109.664 62.2037 109.818 62.5879 109.81 63.1078C109.801 63.6971 109.573 64.1827 109.125 64.5645C108.686 64.9378 107.964 65.1152 106.959 65.0968L103.956 65.0416L104.062 58.0744L107.052 58.1293C107.546 58.1384 107.987 58.2028 108.375 58.3227C108.772 58.434 109.081 58.6217 109.303 58.8858C109.533 59.1414 109.644 59.4902 109.638 59.9321ZM108.479 60.0539C108.484 59.7246 108.366 59.484 108.126 59.3323C107.894 59.172 107.51 59.0869 106.972 59.077L105.192 59.0443L105.163 60.9551L106.735 60.984C107.888 61.0052 108.469 60.6951 108.479 60.0539ZM108.628 63.0861C108.634 62.6875 108.486 62.3987 108.186 62.2198C107.885 62.0409 107.44 61.9461 106.851 61.9352L105.148 61.9039L105.114 64.1397L106.843 64.1715C107.415 64.182 107.854 64.1077 108.159 63.9486C108.465 63.7809 108.621 63.4934 108.628 63.0861ZM114.192 58.1435C115.041 58.1592 115.666 58.357 116.068 58.7371C116.469 59.1172 116.664 59.7146 116.652 60.5292L116.58 65.2736L115.748 65.2583L115.542 64.2664L115.49 64.2654C115.181 64.6411 114.856 64.9169 114.515 65.0926C114.183 65.2686 113.722 65.3511 113.133 65.3403C112.501 65.3286 111.979 65.1544 111.568 64.8174C111.157 64.4718 110.957 63.9437 110.968 63.2331C110.978 62.5399 111.259 62.012 111.811 61.6494C112.363 61.2781 113.206 61.0856 114.342 61.0718L115.525 61.0545L115.532 60.6386C115.541 60.058 115.421 59.6527 115.173 59.4228C114.925 59.1929 114.572 59.0737 114.113 59.0652C113.749 59.0586 113.401 59.1085 113.07 59.2151C112.739 59.313 112.43 59.4287 112.142 59.5621L111.804 58.6978C112.11 58.5387 112.471 58.4066 112.889 58.3016C113.307 58.188 113.741 58.1353 114.192 58.1435ZM114.473 61.8673C113.606 61.8861 113.002 62.0136 112.66 62.2501C112.327 62.4867 112.157 62.8259 112.15 63.2679C112.145 63.6578 112.257 63.9459 112.488 64.1322C112.728 64.3187 113.034 64.4153 113.407 64.4222C113.996 64.433 114.488 64.2817 114.883 63.9682C115.278 63.6461 115.481 63.1471 115.491 62.4711L115.5 61.8472L114.473 61.8673Z" fill="#AECDEA"/>
</svg>
