<svg width="31" height="103" viewBox="0 0 31 103" fill="none" xmlns="http://www.w3.org/2000/svg">
<path d="M4.06738 15.6329L1.45316 13.0019C0.522398 12.0652 0 10.7983 0 9.47773V5C0 2.23858 2.23858 0 5 0H26C28.7614 0 31 2.23857 31 5V9.84743C31 10.9449 30.6389 12.0118 29.9725 12.8837L27.7809 15.7511C27.1145 16.6231 26.7534 17.69 26.7534 18.7874V95.7747C26.7534 97.362 25.9997 98.855 24.7226 99.7976L21.7074 102.023C20.8475 102.658 19.8069 103 18.7382 103H13.8762C12.8597 103 11.8672 102.69 11.0313 102.112L7.67558 99.7899C6.32596 98.856 5.52055 97.3193 5.52055 95.6782V19.1571C5.52055 17.8366 4.99815 16.5697 4.06738 15.6329Z" fill="black"/>
</svg>
