<svg width="126" height="167" viewBox="0 0 126 167" fill="none" xmlns="http://www.w3.org/2000/svg">
<path d="M76.1566 1.77638C62.7249 1.50817 41.8997 1.50646 28.4116 1.47452C27.2266 1.60398 26.0864 1.85477 25.0401 2.31265C23.5771 2.95291 21.8686 4.84179 20.3135 4.9174C17.4597 5.05617 18.3543 5.8483 17.5126 8.05843C14.6493 15.5769 13.905 23.5333 11.2106 31.0799C7.52304 41.4082 8.49723 51.5463 8.49723 62.3752C8.49723 79.738 7.23726 97.0831 7.75324 114.47C8.12315 126.936 9.16294 139.393 9.67886 151.856C9.79081 154.561 8.07608 164.883 12.0421 166.527C13.7264 167.225 16.5889 166.942 18.2129 166.948C23.9019 166.971 29.5918 166.948 35.2809 166.948C49.5738 166.948 63.5003 165.08 77.7321 164.19C88.2389 163.534 97.6877 162.077 107.798 159.364C111.726 158.31 118.711 157.327 120.533 153.388C127.31 138.747 125.873 121.405 125.873 105.967V70.9556C125.873 59.3343 124.881 47.7212 122.153 36.3277C119.905 26.9416 116.887 15.3801 109.374 7.98182C106.156 4.81374 102.847 4.35741 98.3888 3.46181C91.0962 1.99687 83.6217 1.92544 76.1566 1.77638Z" fill="#D554A9"/>
<path d="M50.7397 85.0988L51.5796 85.1112L51.505 89.0305C51.5008 89.2504 51.4928 89.497 51.4809 89.7702C51.469 90.0434 51.4543 90.2932 51.4366 90.5196C51.4257 90.7461 51.4125 90.9126 51.3971 91.0191L51.4371 91.0197L55.4791 85.1684L56.479 85.1831L56.3432 92.3218L55.5033 92.3095L55.5771 88.4302C55.5818 88.1836 55.5901 87.9203 55.6021 87.6405C55.6208 87.3607 55.639 87.1043 55.6568 86.8712C55.6746 86.6381 55.6877 86.4716 55.6963 86.3717L55.6563 86.3711L51.6037 92.2522L50.6038 92.2375L50.7397 85.0988ZM61.5204 87.0373L61.5063 87.7771L59.1166 87.7421L59.0287 92.3612L58.1488 92.3483L58.2508 86.9893L61.5204 87.0373ZM65.1281 86.9902C65.788 86.9999 66.3136 87.2377 66.7048 87.7034C67.1027 88.1693 67.2928 88.8655 67.2752 89.792C67.2578 90.7052 67.0413 91.3954 66.6257 91.8627C66.2167 92.3301 65.6789 92.5589 65.0123 92.5491C64.599 92.543 64.2572 92.4613 63.9868 92.304C63.7232 92.1401 63.5167 91.9537 63.3673 91.7448L63.3073 91.744C63.3185 91.8575 63.3291 92.001 63.3392 92.1745C63.3492 92.348 63.353 92.498 63.3506 92.6247L63.3087 94.8243L62.4288 94.8114L62.5765 87.0528L63.2964 87.0633L63.4025 87.795L63.4425 87.7956C63.6069 87.5646 63.8206 87.3711 64.0836 87.2149C64.3467 87.0588 64.6948 86.9839 65.1281 86.9902ZM64.954 87.7277C64.4074 87.7197 64.0179 87.8673 63.7854 88.1706C63.5596 88.474 63.4341 88.9389 63.4088 89.5652L63.4056 89.7352C63.393 90.3951 63.49 90.9066 63.6964 91.2696C63.9097 91.6261 64.3096 91.8087 64.8962 91.8173C65.2228 91.8221 65.4912 91.736 65.7013 91.5591C65.918 91.3823 66.0793 91.1413 66.1851 90.8361C66.2977 90.5244 66.3578 90.1686 66.3654 89.7687C66.3771 89.1554 66.2664 88.6638 66.0335 88.2936C65.8071 87.9236 65.4473 87.735 64.954 87.7277ZM67.7906 87.1293L68.7305 87.1431L69.8323 90.2096C69.9273 90.4777 70.0124 90.7356 70.0877 90.9834C70.1631 91.2245 70.2187 91.4554 70.2545 91.6759L70.2945 91.6765C70.3377 91.5105 70.4051 91.2948 70.4969 91.0294C70.5887 90.7574 70.6839 90.4855 70.7824 90.2135L71.9301 87.1901L72.88 87.204L70.4542 93.269C70.258 93.7729 70.007 94.1725 69.7013 94.4681C69.4023 94.7637 68.9928 94.9077 68.4729 94.9001C68.3129 94.8978 68.1731 94.8857 68.0535 94.8639C67.9337 94.8488 67.8307 94.8307 67.7445 94.8094L67.7578 94.1095C67.8309 94.1239 67.9173 94.1385 68.017 94.1533C68.1234 94.1682 68.2333 94.1765 68.3466 94.1782C68.6532 94.1827 68.9015 94.0996 69.0914 93.9291C69.2881 93.7586 69.4424 93.5309 69.5545 93.2458L69.848 92.5401L67.7906 87.1293ZM80.9968 87.3232L80.8948 92.6822L73.6256 92.5755L73.7276 87.2165L74.6075 87.2294L74.5196 91.8486L76.8294 91.8825L76.9173 87.2633L77.7972 87.2762L77.7093 91.8954L80.029 91.9294L80.1169 87.3103L80.9968 87.3232ZM85.8807 87.3949L86.8406 87.409L84.5017 89.9549L86.9286 92.7708L85.9087 92.7558L83.5407 90.0008L83.4889 92.7203L82.609 92.7074L82.711 87.3484L83.5909 87.3613L83.5415 89.9608L85.8807 87.3949ZM88.7711 90.7076C88.7696 90.7876 88.764 90.9076 88.7543 91.0674C88.7446 91.2273 88.7315 91.3871 88.7151 91.5469C88.7054 91.7068 88.6963 91.8333 88.6879 91.9265L91.643 87.4795L92.7229 87.4953L92.6209 92.8544L91.801 92.8423L91.8611 89.6829C91.8632 89.5762 91.8658 89.4363 91.8691 89.263C91.8791 89.0898 91.889 88.9199 91.8988 88.7534C91.9088 88.5802 91.9179 88.4503 91.9262 88.3637L88.9913 92.8011L87.9014 92.7851L88.0034 87.426L88.8333 87.4382L88.7711 90.7076Z" fill="#AECDEA"/>
<path d="M18.3018 5.35283C19.7048 4.96712 20.9253 4.83058 22.1828 4.15248C22.9989 3.71236 23.8064 2.30104 24.6275 1.96242C26.8274 1.0552 30.4146 1.55882 32.8899 1.55882C39.4555 1.55882 45.7784 1 52.3507 1C61.8897 1 71.3407 1.75178 80.8831 1.75178C84.8277 1.75178 88.7707 2.11765 92.6463 2.11765C94.4667 2.55202 95.9221 2.55202 98.4056 2.97141C100.773 3.75237 103.318 4.40149 105.625 5.35283" stroke="black" stroke-linecap="round" stroke-linejoin="round"/>
<path d="M18.3018 5.35254C15.7977 8.99396 12.9924 12.0322 11.227 15.9637C10.3116 18.0022 8.96457 19.7561 7.50043 21.552C7.02908 22.1301 7.01109 22.142 7.01109 21.5209C7.01109 18.9938 8.01465 16.3874 10.8129 14.9703C11.7808 14.4801 12.946 13.6115 13.4478 12.735C14.2123 11.3997 13.2716 9.43003 14.483 8.26437C14.7079 8.04799 16.8773 6.42393 16.8356 7.14672C16.7329 8.92541 15.8337 11.024 15.4429 12.7971C14.8732 15.3812 14.0252 18.209 12.6009 20.5585C9.81863 25.1479 7.78952 30.1506 5.50541 34.9327C4.97059 36.0524 3.73097 39.4732 2.26821 40.2105C1.93999 40.3759 1.20189 38.4103 1.13896 38.2546C0.43232 36.5062 2.58954 33.8234 3.81153 32.449C5.84916 30.1573 7.34369 28.0222 8.62969 25.3706C8.98681 24.6342 9.13556 23.6071 9.60838 22.9335C10.4692 21.7072 12.4406 21.378 13.1091 19.9997" stroke="black" stroke-linecap="round" stroke-linejoin="round"/>
</svg>
