<svg width="280" height="48" viewBox="0 0 280 48" fill="none" xmlns="http://www.w3.org/2000/svg">
<path d="M87.6339 0.221583C91.2496 0.221583 95.5902 3.55391 99.1282 6.1597C104.82 3.09203 111.098 5.70601 117.091 3.21794C123.422 0.589207 131.177 4.21841 137.711 1.50574C143.237 -0.788859 149.944 0.221583 155.753 0.221583H173.795C179.261 0.221583 185.816 -0.257989 190.733 2.59964C193.374 4.13469 195.929 4.77477 197.524 7.9265C199.253 11.3425 206.407 7.16355 208.57 7.07039C211.212 6.95666 214.066 7.59932 216.507 6.40454C220.395 4.50171 224.735 2.68985 228.863 1.26793C234.877 -0.803662 243.455 1.07768 249.687 1.07768C256.737 1.07768 262.235 6.21429 269.161 6.21429C272.079 6.21429 276.435 9.65162 278.735 11.7314C280.842 13.6366 279.942 19.5254 278.735 22.0522C275.52 28.7793 271.018 33.5971 265.848 37.89C260.559 42.2816 253.257 44.077 246.864 41.5047C243.94 40.328 240.902 38.162 238.436 36.1778C236.251 34.4186 235.886 34.432 233.772 36.3681C231.589 38.3675 230.73 38.9106 227.963 39.9827C223.475 41.7219 219.686 43.8828 214.871 43.8828H197.933C195.169 43.8828 192.716 42.6356 190.733 40.4584C187.792 37.2293 186.934 41.6332 185.578 43.4071C184.899 44.2952 184.458 48.1499 183 46.8316C181.009 45.0312 181.84 42.6637 178.582 42.2181C173.089 41.4669 167.464 38.7461 161.971 38.7461C157.97 38.7461 153.882 36.9445 149.861 36.2254C146.478 35.6204 142.619 36.1778 139.183 36.1778C132.219 36.1778 126.354 37.0664 119.668 38.7937C113.676 40.3417 108.131 48.9713 103.017 43.0267C100.576 40.1887 96.9492 41.341 94.0981 42.3608C90.8674 43.5164 87.3226 43.0267 83.9519 43.0267C77.8546 43.0267 69.5439 43.642 64.2322 39.9827C62.6096 38.8649 61.2268 39.6212 59.65 37.89C58.2701 36.375 55.7505 36.0535 54.0859 34.6559C52.0155 32.9175 50.7677 32.7534 48.2764 32.7534C47.141 32.7534 46.3894 32.6934 45.9382 32.632C46.3639 32.7797 46.9982 33.0733 47.7036 33.6095C50.3353 35.6099 52.7169 39.5895 48.6037 41.9803C47.3112 42.7316 45.4777 42.4656 44.1852 43.2169C42.2432 44.3457 41.117 45.8294 38.8666 46.6413C34.0212 48.3894 22.4991 48.7325 17.7559 45.9755C13.1583 43.3031 9.90432 37.8165 4.82764 36.1303C3.92336 35.8299 0 29.8761 0 28.901V20.34C0 16.8842 0.0737146 13.8526 3.31389 13.0155C7.19585 12.0127 10.4657 8.7826 14.7284 8.7826C21.8831 8.7826 28.418 4.50209 35.5118 4.50209C41.9572 4.50209 49.2463 5.49808 55.3951 3.45574C62.6148 1.05775 69.1904 0.221583 76.7513 0.221583H87.6339Z" fill="#FB3785"/>
<path d="M128.88 20.33L126.11 16.86H127.11L129.84 20.32V16.86H130.7V20.32L133.43 16.86H134.43L131.66 20.32L134.52 24H133.49L130.7 20.38V24H129.84V20.38L127.04 24H126.01L128.88 20.33ZM137.415 18.55C138.068 18.55 138.552 18.6933 138.865 18.98C139.178 19.2667 139.335 19.7233 139.335 20.35V24H138.695L138.525 23.24H138.485C138.252 23.5333 138.005 23.75 137.745 23.89C137.492 24.03 137.138 24.1 136.685 24.1C136.198 24.1 135.795 23.9733 135.475 23.72C135.155 23.46 134.995 23.0567 134.995 22.51C134.995 21.9767 135.205 21.5667 135.625 21.28C136.045 20.9867 136.692 20.8267 137.565 20.8L138.475 20.77V20.45C138.475 20.0033 138.378 19.6933 138.185 19.52C137.992 19.3467 137.718 19.26 137.365 19.26C137.085 19.26 136.818 19.3033 136.565 19.39C136.312 19.47 136.075 19.5633 135.855 19.67L135.585 19.01C135.818 18.8833 136.095 18.7767 136.415 18.69C136.735 18.5967 137.068 18.55 137.415 18.55ZM137.675 21.41C137.008 21.4367 136.545 21.5433 136.285 21.73C136.032 21.9167 135.905 22.18 135.905 22.52C135.905 22.82 135.995 23.04 136.175 23.18C136.362 23.32 136.598 23.39 136.885 23.39C137.338 23.39 137.715 23.2667 138.015 23.02C138.315 22.7667 138.465 22.38 138.465 21.86V21.38L137.675 21.41ZM144.161 18.64H145.121L142.831 21.22L145.311 24H144.291L141.871 21.28V24H140.991V18.64H141.871V21.24L144.161 18.64ZM148.158 18.54C148.618 18.54 149.012 18.64 149.338 18.84C149.672 19.04 149.925 19.3233 150.098 19.69C150.278 20.05 150.368 20.4733 150.368 20.96V21.49H146.698C146.712 22.0967 146.865 22.56 147.158 22.88C147.458 23.1933 147.875 23.35 148.408 23.35C148.748 23.35 149.048 23.32 149.308 23.26C149.575 23.1933 149.848 23.1 150.128 22.98V23.75C149.855 23.87 149.585 23.9567 149.318 24.01C149.052 24.07 148.735 24.1 148.368 24.1C147.862 24.1 147.412 23.9967 147.018 23.79C146.632 23.5833 146.328 23.2767 146.108 22.87C145.895 22.4567 145.788 21.9533 145.788 21.36C145.788 20.7733 145.885 20.27 146.078 19.85C146.278 19.43 146.555 19.1067 146.908 18.88C147.268 18.6533 147.685 18.54 148.158 18.54ZM148.148 19.26C147.728 19.26 147.395 19.3967 147.148 19.67C146.908 19.9367 146.765 20.31 146.718 20.79H149.448C149.442 20.3367 149.335 19.97 149.128 19.69C148.922 19.4033 148.595 19.26 148.148 19.26ZM155.433 19.38H153.683V24H152.813V19.38H151.083V18.64H155.433V19.38Z" fill="#07335E"/>
</svg>
