<svg width="150" height="71" viewBox="0 0 150 71" fill="none" xmlns="http://www.w3.org/2000/svg">
<path d="M10.6898 3.98712C13.5963 1.3496 19.9789 1.196 25.3575 0.911957C36.6661 -1.61334 49.4546 1.83638 61.3564 2.50283C67.7287 2.85965 74.3838 3.92877 80.6664 4.62324C87.1399 5.3388 93.6013 6.00607 100.154 6.48448C101.749 6.60096 102.976 6.5826 104.184 7.04992C105.02 7.3733 107.021 7.11765 107.993 7.14416C110.324 7.20776 112.441 7.79491 114.636 8.15724C121.1 9.2243 127.506 9.80481 133.592 11.4792C138.292 12.7725 145.73 15.5345 148.03 18.1703C153.968 24.9737 144.919 32.6443 141.431 39.1387C139.437 42.8514 137.877 46.5256 136.869 50.3533C135.864 54.1709 135.992 58.5363 132.883 62.1097C128.862 66.7317 117.765 69.6104 108.79 70.3793C102.723 70.8991 94.2596 71.3744 88.0627 70.5678C83.3481 69.9541 79.3665 68.2158 75.3075 66.8924C71.9684 65.8037 66.4963 65.754 62.7294 65.2197C54.8415 64.1007 46.6951 63.5052 38.9905 62.0391C28.4858 60.0401 7.59242 56.9185 2.76212 50.4946C-1.41982 44.933 0.396481 37.6028 0.370517 31.788C0.347151 26.555 0.630135 21.5238 2.80641 16.4033C4.56561 12.264 6.61963 7.68069 10.6898 3.98712Z" fill="#DAD8D8"/>
<path d="M50.18 40H49.1L45.87 36.38V40H44.97V32.86H45.87V36.32L49.02 32.86H50.04L46.94 36.33L50.18 40ZM55.6916 37.31C55.6916 38.1967 55.465 38.8833 55.0116 39.37C54.565 39.8567 53.9583 40.1 53.1916 40.1C52.7183 40.1 52.295 39.9933 51.9216 39.78C51.555 39.56 51.265 39.2433 51.0516 38.83C50.8383 38.41 50.7316 37.9033 50.7316 37.31C50.7316 36.4233 50.955 35.74 51.4016 35.26C51.8483 34.78 52.455 34.54 53.2216 34.54C53.7083 34.54 54.135 34.65 54.5016 34.87C54.875 35.0833 55.165 35.3967 55.3716 35.81C55.585 36.2167 55.6916 36.7167 55.6916 37.31ZM51.6416 37.31C51.6416 37.9433 51.765 38.4467 52.0116 38.82C52.265 39.1867 52.665 39.37 53.2116 39.37C53.7516 39.37 54.1483 39.1867 54.4016 38.82C54.655 38.4467 54.7816 37.9433 54.7816 37.31C54.7816 36.6767 54.655 36.18 54.4016 35.82C54.1483 35.46 53.7483 35.28 53.2016 35.28C52.655 35.28 52.2583 35.46 52.0116 35.82C51.765 36.18 51.6416 36.6767 51.6416 37.31ZM57.9663 34.64V36.87H60.8763V34.64H61.7563V40H60.8763V37.61H57.9663V40H57.0863V34.64H57.9663ZM68.7435 41.86H67.8835V40H63.4535V34.64H64.3335V39.26H67.1035V34.64H67.9835V39.27H68.7435V41.86ZM71.8419 34.54C72.3019 34.54 72.6952 34.64 73.0219 34.84C73.3552 35.04 73.6085 35.3233 73.7819 35.69C73.9619 36.05 74.0519 36.4733 74.0519 36.96V37.49H70.3819C70.3952 38.0967 70.5485 38.56 70.8419 38.88C71.1419 39.1933 71.5585 39.35 72.0919 39.35C72.4319 39.35 72.7319 39.32 72.9919 39.26C73.2585 39.1933 73.5319 39.1 73.8119 38.98V39.75C73.5385 39.87 73.2685 39.9567 73.0019 40.01C72.7352 40.07 72.4185 40.1 72.0519 40.1C71.5452 40.1 71.0952 39.9967 70.7019 39.79C70.3152 39.5833 70.0119 39.2767 69.7919 38.87C69.5785 38.4567 69.4719 37.9533 69.4719 37.36C69.4719 36.7733 69.5685 36.27 69.7619 35.85C69.9619 35.43 70.2385 35.1067 70.5919 34.88C70.9519 34.6533 71.3685 34.54 71.8419 34.54ZM71.8319 35.26C71.4119 35.26 71.0785 35.3967 70.8319 35.67C70.5919 35.9367 70.4485 36.31 70.4019 36.79H73.1319C73.1252 36.3367 73.0185 35.97 72.8119 35.69C72.6052 35.4033 72.2785 35.26 71.8319 35.26ZM79.4964 40H78.6064V35.37H77.0264C76.9397 36.4967 76.8197 37.4067 76.6664 38.1C76.5131 38.7867 76.3097 39.2867 76.0564 39.6C75.8031 39.9133 75.4831 40.07 75.0964 40.07C75.0097 40.07 74.9231 40.0633 74.8364 40.05C74.7564 40.0433 74.6897 40.0267 74.6364 40V39.34C74.6764 39.3533 74.7197 39.3633 74.7664 39.37C74.8131 39.3767 74.8597 39.38 74.9064 39.38C75.2664 39.38 75.5531 38.9967 75.7664 38.23C75.9864 37.4633 76.1531 36.2667 76.2664 34.64H79.4964V40ZM81.5277 40H80.5077L82.0377 37.75C81.831 37.6967 81.631 37.6133 81.4377 37.5C81.2443 37.38 81.0877 37.2167 80.9677 37.01C80.8477 36.7967 80.7877 36.5333 80.7877 36.22C80.7877 35.7067 80.961 35.3167 81.3077 35.05C81.6543 34.7767 82.1143 34.64 82.6877 34.64H85.0877V40H84.2077V37.87H82.9077L81.5277 40ZM81.6377 36.23C81.6377 36.5367 81.751 36.7667 81.9777 36.92C82.211 37.0667 82.5343 37.14 82.9477 37.14H84.2077V35.37H82.7777C82.371 35.37 82.0777 35.45 81.8977 35.61C81.7243 35.77 81.6377 35.9767 81.6377 36.23ZM89.3336 34.54C89.9936 34.54 90.5236 34.77 90.9236 35.23C91.3303 35.69 91.5336 36.3833 91.5336 37.31C91.5336 38.2233 91.3303 38.9167 90.9236 39.39C90.5236 39.8633 89.9903 40.1 89.3236 40.1C88.9103 40.1 88.5669 40.0233 88.2936 39.87C88.0269 39.71 87.8169 39.5267 87.6636 39.32H87.6036C87.6169 39.4333 87.6303 39.5767 87.6436 39.75C87.6569 39.9233 87.6636 40.0733 87.6636 40.2V42.4H86.7836V34.64H87.5036L87.6236 35.37H87.6636C87.8236 35.1367 88.0336 34.94 88.2936 34.78C88.5536 34.62 88.9003 34.54 89.3336 34.54ZM89.1736 35.28C88.6269 35.28 88.2403 35.4333 88.0136 35.74C87.7936 36.0467 87.6769 36.5133 87.6636 37.14V37.31C87.6636 37.97 87.7703 38.48 87.9836 38.84C88.2036 39.1933 88.6069 39.37 89.1936 39.37C89.5203 39.37 89.7869 39.28 89.9936 39.1C90.2069 38.92 90.3636 38.6767 90.4636 38.37C90.5703 38.0567 90.6236 37.7 90.6236 37.3C90.6236 36.6867 90.5036 36.1967 90.2636 35.83C90.0303 35.4633 89.6669 35.28 89.1736 35.28ZM93.7659 37.91C93.7659 37.99 93.7626 38.11 93.7559 38.27C93.7493 38.43 93.7393 38.59 93.7259 38.75C93.7193 38.91 93.7126 39.0367 93.7059 39.13L96.5759 34.64H97.6559V40H96.8359V36.84C96.8359 36.7333 96.8359 36.5933 96.8359 36.42C96.8426 36.2467 96.8493 36.0767 96.8559 35.91C96.8626 35.7367 96.8693 35.6067 96.8759 35.52L94.0259 40H92.9359V34.64H93.7659V37.91ZM99.6917 40H98.6717L100.202 37.75C99.9951 37.6967 99.7951 37.6133 99.6017 37.5C99.4084 37.38 99.2517 37.2167 99.1317 37.01C99.0117 36.7967 98.9517 36.5333 98.9517 36.22C98.9517 35.7067 99.1251 35.3167 99.4717 35.05C99.8184 34.7767 100.278 34.64 100.852 34.64H103.252V40H102.372V37.87H101.072L99.6917 40ZM99.8017 36.23C99.8017 36.5367 99.9151 36.7667 100.142 36.92C100.375 37.0667 100.698 37.14 101.112 37.14H102.372V35.37H100.942C100.535 35.37 100.242 35.45 100.062 35.61C99.8884 35.77 99.8017 35.9767 99.8017 36.23Z" fill="#07335E"/>
</svg>
