<svg width="93" height="94" viewBox="0 0 93 94" fill="none" xmlns="http://www.w3.org/2000/svg">
<rect width="66.9899" height="81.1057" rx="15" transform="matrix(0.999431 0.0337417 -0.0454454 0.998967 15.7886 7.43652)" fill="#E7A747"/>
<path d="M16.8911 88.4804L20.6683 5.45162C20.7486 3.68648 18.667 2.71685 17.3433 3.90277L4.87354 15.0743C4.46814 15.4375 4.22544 15.9476 4.20085 16.4881L1.51269 75.5784C1.48914 76.0961 1.66759 76.6004 2.01044 76.9851L13.3911 89.7522C14.5811 91.087 16.8094 90.2774 16.8911 88.4804Z" fill="#E7A747"/>
<path d="M23.1242 48.3824C23.0923 49.1217 22.9379 49.7637 22.6609 50.3084C22.3908 50.8467 22.0059 51.2612 21.5063 51.5521C21.0067 51.8429 20.3971 51.9768 19.6774 51.9538C18.9378 51.9301 18.3281 51.7572 17.8482 51.4351C17.375 51.1132 17.0303 50.6719 16.8143 50.1114C16.5982 49.551 16.5061 48.9011 16.538 48.1617C16.5696 47.4291 16.7171 46.7935 16.9805 46.255C17.2439 45.7165 17.6254 45.3019 18.125 45.0111C18.6313 44.7204 19.2576 44.5871 20.0039 44.6109C20.7168 44.6337 21.3099 44.8061 21.7831 45.128C22.2567 45.4433 22.6048 45.8813 22.8275 46.442C23.0571 46.9963 23.1561 47.6431 23.1242 48.3824ZM17.4871 48.2021C17.4483 49.1013 17.6077 49.8167 17.9651 50.3483C18.3228 50.8733 18.9048 51.1487 19.711 51.1745C20.5239 51.2005 21.128 50.9631 21.5233 50.4621C21.9188 49.9545 22.1359 49.2512 22.1747 48.352C22.2134 47.4528 22.0571 46.7442 21.7058 46.2261C21.3548 45.7013 20.7761 45.426 19.9699 45.4002C19.1636 45.3744 18.5562 45.6118 18.1476 46.1123C17.746 46.6063 17.5258 47.3029 17.4871 48.2021ZM24.2906 48.7798C24.3411 47.6076 24.557 46.7007 24.9383 46.0593C25.3199 45.4112 25.9074 45.0165 26.7008 44.8751C27.1379 44.7957 27.5646 44.726 27.9809 44.6659C28.3972 44.6059 28.7865 44.5516 29.1489 44.5032L29.2657 45.2773C29.0311 45.3031 28.766 45.338 28.4705 45.3819C28.1753 45.4192 27.8833 45.4598 27.5945 45.504C27.306 45.5414 27.0574 45.5802 26.8488 45.6202C26.4117 45.6996 26.0588 45.9151 25.7901 46.2666C25.5217 46.6115 25.3546 47.1598 25.2888 47.9114L25.3488 47.9133C25.4476 47.7897 25.5798 47.6639 25.7454 47.5358C25.9177 47.4079 26.1192 47.301 26.3497 47.215C26.587 47.1292 26.8522 47.091 27.1454 47.1003C27.8384 47.1225 28.3518 47.3623 28.6857 47.8199C29.0196 48.2774 29.1713 48.8625 29.1405 49.5752C29.115 50.168 28.9903 50.6609 28.7666 51.0539C28.5428 51.447 28.2433 51.7375 27.8682 51.9256C27.4934 52.107 27.0628 52.19 26.5764 52.1744C25.8368 52.1508 25.2593 51.8488 24.8439 51.2686C24.4285 50.6884 24.2441 49.8588 24.2906 48.7798ZM26.6778 51.4473C27.1109 51.4612 27.4668 51.3325 27.7454 51.0613C28.0239 50.7901 28.1779 50.3148 28.2071 49.6354C28.2307 49.0893 28.1459 48.6563 27.9528 48.3367C27.7667 48.0106 27.4404 47.8401 26.974 47.8252C26.6808 47.8158 26.4114 47.8739 26.1658 47.9994C25.9205 48.1183 25.7143 48.2584 25.5472 48.4198C25.3801 48.5812 25.2608 48.7175 25.1893 48.8286C25.1752 49.1549 25.1849 49.4721 25.2183 49.7799C25.2518 50.0878 25.3198 50.3668 25.4225 50.6168C25.5321 50.8605 25.687 51.0588 25.8873 51.212C26.0945 51.3587 26.358 51.4371 26.6778 51.4473ZM32.7191 46.8084C33.1789 46.8231 33.5677 46.9356 33.8856 47.1458C34.2101 47.3563 34.4511 47.6474 34.6086 48.0193C34.773 48.3847 34.8447 48.8105 34.8238 49.2968L34.801 49.8263L31.1328 49.709C31.12 50.3155 31.2534 50.7833 31.5328 51.1124C31.8191 51.435 32.2288 51.6049 32.7619 51.6219C33.1017 51.6328 33.4029 51.6124 33.6653 51.5607C33.9347 51.5027 34.2119 51.4182 34.4969 51.3072L34.4638 52.0765C34.1854 52.1877 33.9118 52.2656 33.643 52.3104C33.3739 52.3618 33.0561 52.3816 32.6896 52.3699C32.1832 52.3537 31.7379 52.2361 31.3537 52.0171C30.9761 51.7982 30.6861 51.4821 30.4837 51.0688C30.2883 50.6491 30.2034 50.1428 30.2289 49.55C30.2542 48.9639 30.3724 48.4641 30.5838 48.0507C30.8017 47.6375 31.0922 47.3233 31.4551 47.1081C31.8247 46.8931 32.246 46.7932 32.7191 46.8084ZM32.6781 47.5274C32.2583 47.514 31.9193 47.6398 31.661 47.905C31.4096 48.1638 31.2503 48.5322 31.183 49.0103L33.9116 49.0975C33.9244 48.6444 33.8336 48.2747 33.6391 47.9883C33.4449 47.6953 33.1245 47.5417 32.6781 47.5274ZM40.2655 47.1497L40.0666 51.7655L40.8462 51.7904L40.7342 54.388L39.8847 54.3608L39.9647 52.5025L36.2366 52.3833L36.1566 54.2416L35.317 54.2147L35.4289 51.6172L35.8587 51.6309C36.3457 51.0129 36.7199 50.3045 36.9812 49.5058C37.2494 48.7007 37.4047 47.8853 37.4469 47.0596L40.2655 47.1497ZM38.1968 47.7739C38.1506 48.226 38.0604 48.6933 37.9262 49.1759C37.7923 49.6518 37.6259 50.1067 37.427 50.5405C37.2348 50.9746 37.0152 51.3477 36.7682 51.66L39.217 51.7383L39.3862 47.8119L38.1968 47.7739ZM44.1683 47.1745C44.6281 47.1892 45.0169 47.3017 45.3348 47.512C45.6594 47.7224 45.9004 48.0136 46.0578 48.3855C46.2222 48.7509 46.294 49.1767 46.273 49.6629L46.2502 50.1924L42.5821 50.0751C42.5693 50.6816 42.7026 51.1494 42.982 51.4785C43.2683 51.8012 43.6781 51.971 44.2111 51.988C44.5509 51.9989 44.8521 51.9785 45.1145 51.9269C45.3839 51.8688 45.6611 51.7843 45.9462 51.6734L45.913 52.4427C45.6347 52.5538 45.3611 52.6318 45.0922 52.6765C44.8231 52.7279 44.5053 52.7478 44.1388 52.7361C43.6324 52.7199 43.1871 52.6023 42.8029 52.3832C42.4253 52.1644 42.1353 51.8483 41.933 51.435C41.7375 51.0152 41.6526 50.5089 41.6781 49.9161C41.7034 49.33 41.8217 48.8302 42.033 48.4168C42.251 48.0036 42.5414 47.6894 42.9043 47.4742C43.2739 47.2593 43.6952 47.1594 44.1683 47.1745ZM44.1273 47.8935C43.7075 47.8801 43.3685 48.006 43.1102 48.2712C42.8588 48.5299 42.6995 48.8983 42.6322 49.3764L45.3608 49.4637C45.3736 49.0105 45.2828 48.6408 45.0883 48.3545C44.8941 48.0614 44.5738 47.9078 44.1273 47.8935ZM48.6163 47.4168L48.5203 49.6447L51.4288 49.7377L51.5248 47.5098L52.4043 47.5379L52.1736 52.893L51.294 52.8648L51.3969 50.4771L48.4884 50.384L48.3855 52.7718L47.506 52.7437L47.7367 47.3887L48.6163 47.4168ZM54.9802 47.6203L54.8842 49.8483L57.7927 49.9413L57.8887 47.7133L58.7683 47.7415L58.5375 53.0965L57.658 53.0684L57.7609 50.6806L54.8523 50.5876L54.7494 52.9754L53.8699 52.9472L54.1007 47.5922L54.9802 47.6203ZM60.2338 53.1507L60.4646 47.7957L61.3441 47.8238L61.2494 50.0218L62.6387 50.0662C63.3317 50.0884 63.8393 50.2313 64.1616 50.4951C64.4838 50.7589 64.634 51.1438 64.6122 51.65C64.5907 52.1496 64.4102 52.544 64.0708 52.8333C63.7317 53.1159 63.1956 53.2455 62.4627 53.222L60.2338 53.1507ZM65.4312 53.317L65.6619 47.9619L66.5415 47.9901L66.3107 53.3451L65.4312 53.317ZM62.4133 52.5101C62.7931 52.5223 63.1057 52.4689 63.351 52.35C63.5966 52.2245 63.7265 51.9985 63.7405 51.6722C63.7546 51.3458 63.6541 51.1225 63.4391 51.0022C63.2244 50.8753 62.9105 50.8052 62.4973 50.792L61.218 50.7511L61.1439 52.4695L62.4133 52.5101ZM72.6772 45.9653C72.609 46.4633 72.4227 46.8375 72.1184 47.0879C71.8209 47.3318 71.3557 47.4437 70.7227 47.4235C70.0697 47.4026 69.6121 47.2612 69.3498 46.9994C69.0941 46.7378 68.9606 46.3533 68.9491 45.846L69.7687 45.8723C69.7865 46.233 69.8693 46.4791 70.0171 46.6105C70.1718 46.7355 70.4225 46.8036 70.769 46.8147C71.0755 46.8245 71.3181 46.7689 71.4968 46.6478C71.6824 46.5204 71.7994 46.284 71.8476 45.9387L72.6772 45.9653ZM68.9326 51.338C68.9292 51.4179 68.9207 51.5377 68.9071 51.6973C68.8936 51.857 68.8767 52.0165 68.8565 52.1759C68.8429 52.3356 68.8308 52.4619 68.8201 52.5549L71.882 48.1608L72.9614 48.1954L72.7306 53.5504L71.9111 53.5242L72.0471 50.3671C72.0517 50.2605 72.0577 50.1207 72.0652 49.9475C72.0793 49.7745 72.0933 49.6049 72.1071 49.4386C72.1213 49.2657 72.1335 49.136 72.1439 49.0496L69.1025 53.4344L68.0131 53.3995L68.2438 48.0445L69.0734 48.071L68.9326 51.338ZM20.9512 56.5366L20.7205 61.8916L19.8409 61.8635L20.0394 57.2577L17.2708 57.1692L17.0723 61.7749L16.1928 61.7468L16.4235 56.3918L20.9512 56.5366ZM24.7338 56.5575C25.1936 56.5722 25.5824 56.6847 25.9003 56.8949C26.2249 57.1054 26.4659 57.3966 26.6233 57.7684C26.7877 58.1339 26.8595 58.5597 26.8385 59.0459L26.8157 59.5754L23.1476 59.4581C23.1348 60.0646 23.2681 60.5324 23.5475 60.8615C23.8339 61.1841 24.2436 61.354 24.7766 61.371C25.1165 61.3819 25.4176 61.3615 25.68 61.3099C25.9494 61.2518 26.2267 61.1673 26.5117 61.0563L26.4785 61.8256C26.2002 61.9368 25.9266 62.0147 25.6577 62.0595C25.3886 62.1109 25.0708 62.1308 24.7044 62.1191C24.198 62.1029 23.7526 61.9852 23.3684 61.7662C22.9908 61.5474 22.7008 61.2313 22.4985 60.818C22.303 60.3982 22.2181 59.8919 22.2436 59.2991C22.2689 58.713 22.3872 58.2132 22.5985 57.7998C22.8165 57.3866 23.1069 57.0724 23.4698 56.8572C23.8394 56.6423 24.2607 56.5424 24.7338 56.5575ZM24.6928 57.2765C24.2731 57.2631 23.934 57.389 23.6757 57.6542C23.4243 57.9129 23.265 58.2813 23.1977 58.7594L25.9263 58.8466C25.9392 58.3935 25.8483 58.0238 25.6538 57.7374C25.4596 57.4444 25.1393 57.2908 24.6928 57.2765ZM30.8552 56.7533C31.5149 56.7744 32.0347 57.0211 32.4147 57.4934C32.8014 57.966 32.9748 58.6652 32.9349 59.591C32.8955 60.5035 32.6625 61.1897 32.2356 61.6496C31.8154 62.1097 31.2722 62.3291 30.6059 62.3078C30.1928 62.2946 29.8529 62.207 29.5863 62.0451C29.3267 61.8767 29.1247 61.6868 28.9803 61.4754L28.9203 61.4735C28.9288 61.5872 28.9359 61.7308 28.9418 61.9044C28.9477 62.078 28.9479 62.2281 28.9424 62.3546L28.8477 64.5526L27.9682 64.5245L28.3022 56.7717L29.0219 56.7947L29.1104 57.5278L29.1504 57.5291C29.3203 57.3011 29.5387 57.1113 29.8054 56.9598C30.0722 56.8083 30.4221 56.7394 30.8552 56.7533ZM30.6635 57.4875C30.1171 57.47 29.724 57.6108 29.4843 57.91C29.2512 58.2093 29.1145 58.6718 29.0742 59.2975L29.0668 59.4673C29.0384 60.1267 29.1231 60.6396 29.3208 61.0061C29.5255 61.3662 29.921 61.5556 30.5074 61.5743C30.8339 61.5847 31.1043 61.5034 31.3186 61.3301C31.5396 61.1571 31.7066 60.919 31.8198 60.6158C31.9399 60.3062 32.0085 59.9516 32.0258 59.5519C32.0522 58.9392 31.9533 58.4458 31.7292 58.0718C31.5118 57.698 31.1565 57.5032 30.6635 57.4875ZM36.5247 56.9346C36.9845 56.9493 37.3733 57.0617 37.6912 57.272C38.0157 57.4825 38.2567 57.7736 38.4142 58.1455C38.5786 58.5109 38.6503 58.9367 38.6294 59.423L38.6066 59.9525L34.9384 59.8352C34.9256 60.4417 35.0589 60.9095 35.3383 61.2386C35.6247 61.5612 36.0344 61.7311 36.5675 61.7481C36.9073 61.759 37.2084 61.7386 37.4709 61.6869C37.7403 61.6289 38.0175 61.5444 38.3025 61.4334L38.2694 62.2027C37.991 62.3139 37.7174 62.3918 37.4486 62.4366C37.1795 62.488 36.8617 62.5078 36.4952 62.4961C35.9888 62.4799 35.5435 62.3623 35.1592 62.1433C34.7817 61.9244 34.4917 61.6083 34.2893 61.195C34.0939 60.7753 34.0089 60.269 34.0345 59.6762C34.0597 59.0901 34.178 58.5903 34.3894 58.1769C34.6073 57.7636 34.8978 57.4495 35.2607 57.2343C35.6303 57.0193 36.0516 56.9194 36.5247 56.9346ZM36.4837 57.6536C36.0639 57.6402 35.7249 57.766 35.4666 58.0312C35.2152 58.29 35.0559 58.6584 34.9886 59.1365L37.7172 59.2237C37.73 58.7706 37.6392 58.4009 37.4447 58.1145C37.2505 57.8215 36.9301 57.6679 36.4837 57.6536ZM43.2615 57.2501L44.221 57.2807L41.8211 59.7851L44.1801 62.6418L43.1606 62.6092L40.859 59.8144L40.7419 62.5319L39.8623 62.5038L40.0931 57.1487L40.9726 57.1769L40.8607 59.7744L43.2615 57.2501ZM44.5438 57.2911L45.4833 57.3211L46.5114 60.4054C46.5999 60.675 46.6788 60.9343 46.7481 61.1833C46.8177 61.4256 46.8678 61.6573 46.8983 61.8784L46.9383 61.8797C46.9854 61.7144 47.0581 61.5 47.1562 61.2363C47.2546 60.966 47.3563 60.6958 47.4613 60.4257L48.6817 57.4234L49.6312 57.4538L47.0597 63.4743C46.8514 63.9745 46.5908 64.3697 46.278 64.6598C45.9719 64.9502 45.559 65.087 45.0393 65.0704C44.8793 65.0653 44.7399 65.0508 44.6208 65.027C44.5014 65.0098 44.3988 64.9899 44.3131 64.9671L44.3432 64.2678C44.4159 64.2835 44.502 64.2995 44.6014 64.3161C44.7074 64.3328 44.8171 64.343 44.9303 64.3466C45.2368 64.3564 45.4871 64.2777 45.6812 64.1105C45.8818 63.9435 46.0417 63.7185 46.1606 63.4355L46.4711 62.7351L44.5438 57.2911ZM52.3922 63.0045C51.9191 62.9894 51.5002 62.8793 51.1354 62.6742C50.7772 62.4693 50.5003 62.1603 50.3046 61.7472C50.1155 61.3343 50.0346 60.8115 50.0619 60.1787C50.0903 59.5194 50.2233 58.9867 50.461 58.5808C50.6987 58.1749 51.0083 57.8813 51.3898 57.7001C51.7779 57.5191 52.2118 57.4362 52.6916 57.4516C52.9648 57.4603 53.2267 57.4987 53.4773 57.5668C53.7282 57.6281 53.9319 57.7013 54.0884 57.7864L53.7871 58.5071C53.6297 58.442 53.4456 58.3794 53.2347 58.3193C53.0238 58.2592 52.825 58.2262 52.6384 58.2202C51.5856 58.1866 51.0301 58.8458 50.9718 60.1978C50.944 60.8439 51.0492 61.3442 51.2875 61.6986C51.5327 62.0466 51.9086 62.2287 52.415 62.2449C52.7081 62.2543 52.966 62.2325 53.1884 62.1796C53.4176 62.1269 53.6273 62.0602 53.8176 61.9796L53.784 62.7589C53.6001 62.8464 53.3972 62.9099 53.1753 62.9495C52.9598 62.996 52.6987 63.0143 52.3922 63.0045Z" fill="#07335E"/>
</svg>
