<svg width="147" height="85" viewBox="0 0 147 85" fill="none" xmlns="http://www.w3.org/2000/svg">
<path d="M54.574 3.60217C43.9392 3.60217 36.079 2.54084 25.8235 0.658394C24.8213 3.1724 19.6425 7.54961 17.3483 9.70778C14.9733 11.9419 12.5903 15.8172 10.8289 18.3211C8.78181 21.231 3.78831 21.4277 2.09293 24.9718C0.666456 27.9538 0.0067289 29.1467 0.0067289 32.5493C0.0067289 42.9285 -0.161154 53.3642 1.18022 63.459C1.42771 65.3216 3.5272 65.8252 3.5272 68.1472C3.5272 69.3978 3.16745 71.1228 3.78797 72.2903C5.1178 74.7923 5.04481 77.7541 8.22115 79.3772C12.0204 81.3186 12.7418 84.0654 17.6091 84.0654H27.5837C41.1023 84.0654 54.1421 83.0842 67.4823 83.0842C78.0778 83.0842 96.2328 73.6517 96.2328 64.2222V46.0144C96.2328 41.3509 98.3009 32.6202 95.6461 28.6243C92.8758 24.4546 94.7595 18.6457 88.6051 16.3585C84.9282 14.992 81.1998 14.05 78.0437 11.9974C75.1948 10.1445 73.0759 6.19159 70.4161 4.80149C67.997 3.53725 68.6744 -1.67313 65.7221 0.658394C62.6965 3.04778 58.7422 3.60217 54.574 3.60217Z" fill="#FE6A00"/>
<path d="M27.03 39.6154C26.2633 39.6154 25.66 39.8721 25.22 40.3854C24.78 40.8988 24.56 41.6021 24.56 42.4954C24.56 43.3821 24.7633 44.0854 25.17 44.6054C25.5833 45.1188 26.2 45.3754 27.02 45.3754C27.3333 45.3754 27.63 45.3488 27.91 45.2954C28.19 45.2421 28.4633 45.1754 28.73 45.0954V45.8754C28.4633 45.9754 28.1867 46.0488 27.9 46.0954C27.62 46.1421 27.2833 46.1654 26.89 46.1654C26.1633 46.1654 25.5567 46.0154 25.07 45.7154C24.5833 45.4154 24.2167 44.9888 23.97 44.4354C23.73 43.8821 23.61 43.2321 23.61 42.4854C23.61 41.7654 23.74 41.1321 24 40.5854C24.2667 40.0321 24.6567 39.6021 25.17 39.2954C25.6833 38.9821 26.3067 38.8254 27.04 38.8254C27.7933 38.8254 28.45 38.9654 29.01 39.2454L28.65 40.0054C28.43 39.9054 28.1833 39.8154 27.91 39.7354C27.6433 39.6554 27.35 39.6154 27.03 39.6154ZM35.9184 40.7054V46.0654H35.1284V42.6454C35.1284 42.5054 35.1317 42.3588 35.1384 42.2054C35.1517 42.0521 35.165 41.9021 35.1784 41.7554H35.1484L33.3984 46.0654H32.6584L30.9584 41.7554H30.9284C30.9484 42.0554 30.9584 42.3621 30.9584 42.6754V46.0654H30.1684V40.7054H31.3384L33.0284 45.0154L34.7484 40.7054H35.9184ZM39.6993 40.6054C40.1593 40.6054 40.5526 40.7054 40.8793 40.9054C41.2126 41.1054 41.466 41.3888 41.6393 41.7554C41.8193 42.1154 41.9093 42.5388 41.9093 43.0254V43.5554H38.2393C38.2526 44.1621 38.406 44.6254 38.6993 44.9454C38.9993 45.2588 39.416 45.4154 39.9493 45.4154C40.2893 45.4154 40.5893 45.3854 40.8493 45.3254C41.116 45.2588 41.3893 45.1654 41.6693 45.0454V45.8154C41.396 45.9354 41.126 46.0221 40.8593 46.0754C40.5926 46.1354 40.276 46.1654 39.9093 46.1654C39.4026 46.1654 38.9526 46.0621 38.5593 45.8554C38.1726 45.6488 37.8693 45.3421 37.6493 44.9354C37.436 44.5221 37.3293 44.0188 37.3293 43.4254C37.3293 42.8388 37.426 42.3354 37.6193 41.9154C37.8193 41.4954 38.096 41.1721 38.4493 40.9454C38.8093 40.7188 39.226 40.6054 39.6993 40.6054ZM39.6893 41.3254C39.2693 41.3254 38.936 41.4621 38.6893 41.7354C38.4493 42.0021 38.306 42.3754 38.2593 42.8554H40.9893C40.9826 42.4021 40.876 42.0354 40.6693 41.7554C40.4626 41.4688 40.136 41.3254 39.6893 41.3254ZM44.1538 40.7054V42.9354H47.0638V40.7054H47.9438V46.0654H47.0638V43.6754H44.1538V46.0654H43.2738V40.7054H44.1538ZM50.521 40.7054V42.9354H53.431V40.7054H54.311V46.0654H53.431V43.6754H50.521V46.0654H49.641V40.7054H50.521ZM58.0382 40.6154C58.6915 40.6154 59.1749 40.7588 59.4882 41.0454C59.8015 41.3321 59.9582 41.7888 59.9582 42.4154V46.0654H59.3182L59.1482 45.3054H59.1082C58.8749 45.5988 58.6282 45.8154 58.3682 45.9554C58.1149 46.0954 57.7615 46.1654 57.3082 46.1654C56.8215 46.1654 56.4182 46.0388 56.0982 45.7854C55.7782 45.5254 55.6182 45.1221 55.6182 44.5754C55.6182 44.0421 55.8282 43.6321 56.2482 43.3454C56.6682 43.0521 57.3149 42.8921 58.1882 42.8654L59.0982 42.8354V42.5154C59.0982 42.0688 59.0015 41.7588 58.8082 41.5854C58.6149 41.4121 58.3415 41.3254 57.9882 41.3254C57.7082 41.3254 57.4415 41.3688 57.1882 41.4554C56.9349 41.5354 56.6982 41.6288 56.4782 41.7354L56.2082 41.0754C56.4415 40.9488 56.7182 40.8421 57.0382 40.7554C57.3582 40.6621 57.6915 40.6154 58.0382 40.6154ZM58.2982 43.4754C57.6315 43.5021 57.1682 43.6088 56.9082 43.7954C56.6549 43.9821 56.5282 44.2454 56.5282 44.5854C56.5282 44.8854 56.6182 45.1054 56.7982 45.2454C56.9849 45.3854 57.2215 45.4554 57.5082 45.4554C57.9615 45.4554 58.3382 45.3321 58.6382 45.0854C58.9382 44.8321 59.0882 44.4454 59.0882 43.9254V43.4454L58.2982 43.4754ZM61.9437 46.0654H60.9237L62.4537 43.8154C62.247 43.7621 62.047 43.6788 61.8537 43.5654C61.6603 43.4454 61.5037 43.2821 61.3837 43.0754C61.2637 42.8621 61.2037 42.5988 61.2037 42.2854C61.2037 41.7721 61.377 41.3821 61.7237 41.1154C62.0703 40.8421 62.5303 40.7054 63.1037 40.7054H65.5037V46.0654H64.6237V43.9354H63.3237L61.9437 46.0654ZM62.0537 42.2954C62.0537 42.6021 62.167 42.8321 62.3937 42.9854C62.627 43.1321 62.9503 43.2054 63.3637 43.2054H64.6237V41.4354H63.1937C62.787 41.4354 62.4937 41.5154 62.3137 41.6754C62.1403 41.8354 62.0537 42.0421 62.0537 42.2954ZM33.51 53.3754C33.51 54.2621 33.2833 54.9488 32.83 55.4354C32.3833 55.9221 31.7767 56.1654 31.01 56.1654C30.5367 56.1654 30.1133 56.0588 29.74 55.8454C29.3733 55.6254 29.0833 55.3088 28.87 54.8954C28.6567 54.4754 28.55 53.9688 28.55 53.3754C28.55 52.4888 28.7733 51.8054 29.22 51.3254C29.6667 50.8454 30.2733 50.6054 31.04 50.6054C31.5267 50.6054 31.9533 50.7154 32.32 50.9354C32.6933 51.1488 32.9833 51.4621 33.19 51.8754C33.4033 52.2821 33.51 52.7821 33.51 53.3754ZM29.46 53.3754C29.46 54.0088 29.5833 54.5121 29.83 54.8854C30.0833 55.2521 30.4833 55.4354 31.03 55.4354C31.57 55.4354 31.9667 55.2521 32.22 54.8854C32.4733 54.5121 32.6 54.0088 32.6 53.3754C32.6 52.7421 32.4733 52.2454 32.22 51.8854C31.9667 51.5254 31.5667 51.3454 31.02 51.3454C30.4733 51.3454 30.0767 51.5254 29.83 51.8854C29.5833 52.2454 29.46 52.7421 29.46 53.3754ZM34.6247 52.8454C34.6247 51.6721 34.8014 50.7588 35.1547 50.1054C35.508 49.4454 36.078 49.0321 36.8647 48.8654C37.298 48.7721 37.7214 48.6888 38.1347 48.6154C38.548 48.5421 38.9347 48.4754 39.2947 48.4154L39.4447 49.1854C39.2114 49.2188 38.948 49.2621 38.6547 49.3154C38.3614 49.3621 38.0714 49.4121 37.7847 49.4654C37.498 49.5121 37.2514 49.5588 37.0447 49.6054C36.6114 49.6988 36.268 49.9254 36.0147 50.2854C35.7614 50.6388 35.618 51.1921 35.5847 51.9454H35.6447C35.738 51.8188 35.8647 51.6888 36.0247 51.5554C36.1914 51.4221 36.388 51.3088 36.6147 51.2154C36.848 51.1221 37.1114 51.0754 37.4047 51.0754C38.098 51.0754 38.6214 51.2988 38.9747 51.7454C39.328 52.1921 39.5047 52.7721 39.5047 53.4854C39.5047 54.0788 39.4014 54.5754 39.1947 54.9754C38.988 55.3754 38.7014 55.6754 38.3347 55.8754C37.968 56.0688 37.5414 56.1654 37.0547 56.1654C36.3147 56.1654 35.7247 55.8821 35.2847 55.3154C34.8447 54.7488 34.6247 53.9254 34.6247 52.8454ZM37.1247 55.4354C37.558 55.4354 37.908 55.2954 38.1747 55.0154C38.4414 54.7354 38.5747 54.2554 38.5747 53.5754C38.5747 53.0288 38.4714 52.5988 38.2647 52.2854C38.0647 51.9654 37.7314 51.8054 37.2647 51.8054C36.9714 51.8054 36.7047 51.8721 36.4647 52.0054C36.2247 52.1321 36.0247 52.2788 35.8647 52.4454C35.7047 52.6121 35.5914 52.7521 35.5247 52.8654C35.5247 53.1921 35.548 53.5088 35.5947 53.8154C35.6414 54.1221 35.7214 54.3988 35.8347 54.6454C35.9547 54.8854 36.118 55.0788 36.3247 55.2254C36.538 55.3654 36.8047 55.4354 37.1247 55.4354ZM40.051 50.7054H40.991L42.151 53.7554C42.251 54.0221 42.341 54.2788 42.421 54.5254C42.501 54.7654 42.561 54.9954 42.601 55.2154H42.641C42.681 55.0488 42.7443 54.8321 42.831 54.5654C42.9177 54.2921 43.0077 54.0188 43.101 53.7454L44.191 50.7054H45.141L42.831 56.8054C42.6443 57.3121 42.401 57.7154 42.101 58.0154C41.8077 58.3154 41.401 58.4654 40.881 58.4654C40.721 58.4654 40.581 58.4554 40.461 58.4354C40.341 58.4221 40.2377 58.4054 40.151 58.3854V57.6854C40.2243 57.6988 40.311 57.7121 40.411 57.7254C40.5177 57.7388 40.6277 57.7454 40.741 57.7454C41.0477 57.7454 41.2943 57.6588 41.481 57.4854C41.6743 57.3121 41.8243 57.0821 41.931 56.7954L42.211 56.0854L40.051 50.7054ZM50.2987 52.0554C50.2987 52.3888 50.1987 52.6488 49.9987 52.8354C49.7987 53.0221 49.542 53.1488 49.2287 53.2154V53.2554C49.562 53.3021 49.852 53.4221 50.0987 53.6154C50.3453 53.8021 50.4687 54.0954 50.4687 54.4954C50.4687 54.9488 50.2987 55.3254 49.9587 55.6254C49.6253 55.9188 49.072 56.0654 48.2987 56.0654H45.9887V50.7054H48.2887C48.6687 50.7054 49.0087 50.7488 49.3087 50.8354C49.6153 50.9154 49.8553 51.0554 50.0287 51.2554C50.2087 51.4488 50.2987 51.7154 50.2987 52.0554ZM49.4087 52.1654C49.4087 51.9121 49.3153 51.7288 49.1287 51.6154C48.9487 51.4954 48.652 51.4354 48.2387 51.4354H46.8687V52.9054H48.0787C48.9653 52.9054 49.4087 52.6588 49.4087 52.1654ZM49.5587 54.4954C49.5587 54.1888 49.442 53.9688 49.2087 53.8354C48.9753 53.7021 48.632 53.6354 48.1787 53.6354H46.8687V55.3554H48.1987C48.6387 55.3554 48.9753 55.2921 49.2087 55.1654C49.442 55.0321 49.5587 54.8088 49.5587 54.4954ZM54.2204 52.9054C55.6137 52.9054 56.3104 53.4121 56.3104 54.4254C56.3104 54.9254 56.1404 55.3254 55.8004 55.6254C55.4604 55.9188 54.9204 56.0654 54.1804 56.0654H51.7504V50.7054H52.6304V52.9054H54.2204ZM55.4304 54.4754C55.4304 54.1488 55.3137 53.9288 55.0804 53.8154C54.8537 53.6954 54.5337 53.6354 54.1204 53.6354H52.6304V55.3554H54.1404C54.5137 55.3554 54.8204 55.2888 55.0604 55.1554C55.3071 55.0221 55.4304 54.7954 55.4304 54.4754Z" fill="#07335E"/>
</svg>
