<svg width="187" height="68" viewBox="0 0 187 68" fill="none" xmlns="http://www.w3.org/2000/svg">
<path d="M110.986 2.77289C113.927 2.28118 116.966 1.68819 119.802 1.66137C131.184 1.55371 141.136 0.324634 152.167 3.15578C157.819 4.60614 161.474 7.1559 166.695 9.04878C168.669 9.76453 170.383 11.699 172.248 12.7688C173.261 13.3496 175.055 16.9752 175.066 17.858C175.141 23.7624 175.909 30.0403 175.987 36.112L176.141 48.1999C176.175 50.8845 171.769 52.8057 169.187 54.5819C167.406 55.8079 165.296 56.7476 163.535 58.0936C161.809 59.4126 158.147 60.8303 157.051 62.299C156.086 63.5917 150.377 63.5239 148.465 63.6663C145.401 63.8947 142.967 64.7187 139.838 64.7483C134.707 64.7968 129.366 65.7386 124.215 65.9249C117.879 66.1541 111.485 66.0453 105.139 66.1054C99.4689 66.159 94.5789 65.1764 88.9546 65.2295C81.2792 65.3021 73.5689 64.8606 66.0867 64.9314L52.8211 65.0569C46.8503 65.1134 41.1505 66.1962 35.2868 66.2516C28.3784 66.317 21.5429 66.8961 14.6876 66.9609C12.0074 66.9863 8.24391 66.9845 6.03095 65.7281C4.33203 64.7636 0.834209 62.9723 0.811316 61.1761C0.653689 48.8088 1.18739 36.6855 1.03069 24.3914C0.989156 21.1326 0.14259 17.3501 1.93468 14.3226C3.14242 12.2823 4.19466 10.9024 6.34563 9.42228C8.24472 8.11549 12.2422 5.366 14.8566 5.22624C22.0737 4.84041 29.4207 4.57403 36.7938 4.50429C41.7888 4.45705 50.5609 3.15344 55.1859 4.61613C64.1619 7.45483 74.98 6.20087 84.76 6.10836C89.1868 6.06649 93.6007 5.68596 97.8279 5.47031C99.8447 5.36743 102.547 4.49814 103.996 3.56852C104.049 3.53477 104.1 3.50095 104.149 3.46707C105.047 2.84923 109.061 2.78918 110.986 2.77289Z" fill="#FE6A00"/>
<path d="M175.116 16.9168C174.485 18.5196 174.913 19.6017 174.933 21.1948C174.946 22.1991 174.66 23.5951 175.16 24.5186C175.632 25.3913 175.72 27.0624 175.732 28.0292C175.749 29.3278 175.765 30.6263 175.782 31.9249C175.812 34.2779 176.078 36.5537 176.108 38.9116C176.127 40.3813 176.857 41.7824 176.876 43.3179C176.894 44.7135 176.199 46.0443 176.216 47.3998C176.248 49.8825 175.14 52.0923 174.632 54.4679C174.488 55.1424 173.949 55.7632 173.482 56.316C172.911 56.9925 172.565 57.7595 171.847 58.3799C170.447 59.5897 169.15 60.7849 168.563 62.4127C168.366 62.958 166.885 64.8679 168.238 64.8759C169.76 64.8849 170.935 64.9793 172.212 64.2681C174.394 63.0537 174.663 61.5146 175.529 59.6754C175.855 58.9823 176.111 57.7097 176.101 56.967C176.091 56.1817 176.32 55.5562 176.31 54.7688C176.293 53.3756 176.254 52.1944 175.734 50.8887C175.684 50.7653 175.455 49.3373 175.062 49.9025C174.556 50.6298 173.942 51.6207 173.192 52.1903C171.836 53.2217 170.531 54.385 169.012 55.2813C168.189 55.7676 167.551 56.558 166.941 57.212C166.52 57.6624 166.296 58.125 165.663 58.3539C164.965 58.6063 164.831 58.9685 164.756 59.5662C164.715 59.8869 163.965 61.3053 164.58 61.2994C166.041 61.2856 166.933 60.3523 168.015 59.7887C168.429 59.5732 169.051 59.3615 169.231 58.9642C169.481 58.4135 168.965 58.4474 169.034 58.0264C169.146 57.3519 170.662 56.3483 171.208 55.8202C172.301 54.7631 173.672 53.7192 174.435 52.4637C174.71 52.0114 174.871 51.4764 175.208 51.0415C175.66 50.4591 176.315 50.1977 176.494 49.5194C176.628 49.0107 176.945 48.658 176.937 48.0581C176.927 47.2734 176.917 46.4886 176.907 45.7039C176.893 44.5918 176.879 43.4798 176.864 42.3677C176.849 41.1487 176.407 40.2382 176.123 39.0593C175.525 36.5678 175.806 33.823 175.774 31.2703C175.76 30.2216 175.747 29.1729 175.733 28.1242C175.716 26.789 175.43 25.9266 175.097 24.7092C174.703 23.2691 174.704 21.8716 174.685 20.3419C174.67 19.1492 174.305 17.7212 175.114 16.7267" stroke="black" stroke-linecap="round" stroke-linejoin="round"/>
<path d="M71.6865 35.6438C71.6314 36.6042 71.4187 37.4365 71.0485 38.1406C70.6874 38.8364 70.1793 39.3699 69.5244 39.741C68.8695 40.1121 68.0744 40.2777 67.1393 40.2379C66.1781 40.1969 65.3886 39.9638 64.7707 39.5385C64.1615 39.1136 63.7216 38.5354 63.4511 37.804C63.1806 37.0725 63.0729 36.2266 63.128 35.2662C63.1827 34.3144 63.3862 33.4904 63.7386 32.7942C64.0911 32.098 64.5948 31.5643 65.2497 31.1932C65.9133 30.8225 66.73 30.6578 67.6998 30.6991C68.6263 30.7386 69.3942 30.9708 70.0034 31.3957C70.6131 31.812 71.0576 32.3861 71.3368 33.1179C71.6251 33.8414 71.7417 34.6833 71.6865 35.6438ZM64.3612 35.3317C64.2941 36.4998 64.488 37.4318 64.9428 38.1277C65.3981 38.815 66.1497 39.1809 67.1974 39.2255C68.2538 39.2705 69.0435 38.9702 69.5666 38.3247C70.0903 37.6704 70.3856 36.7593 70.4527 35.5912C70.5197 34.4231 70.3296 33.5 69.8825 32.8217C69.4358 32.1348 68.6887 31.7691 67.6409 31.7244C66.5932 31.6798 65.7991 31.9799 65.2587 32.6248C64.7274 33.2613 64.4282 34.1636 64.3612 35.3317ZM78.7611 33.6293L78.417 39.6254L79.4301 39.6685L79.2364 43.043L78.1324 42.996L78.2709 40.5819L73.4263 40.3756L73.2878 42.7896L72.1968 42.7431L72.3904 39.3687L72.9489 39.3925C73.5936 38.5959 74.0931 37.6805 74.4476 36.6461C74.8113 35.6034 75.0282 34.5458 75.0985 33.4732L78.7611 33.6293ZM76.0601 34.4119C75.9917 34.9988 75.8658 35.6049 75.6823 36.2303C75.4994 36.847 75.2746 37.4359 75.0081 37.997C74.7502 38.5585 74.4578 39.0404 74.1309 39.4428L77.313 39.5784L77.6057 34.4778L76.0601 34.4119ZM83.8347 33.7153C84.4322 33.7407 84.9356 33.8923 85.345 34.1699C85.763 34.4479 86.0709 34.8297 86.2688 35.3151C86.4757 35.7923 86.5611 36.3467 86.5248 36.9784L86.4853 37.6662L81.7187 37.4632C81.6908 38.2513 81.8554 38.8611 82.2126 39.2927C82.5789 39.7159 83.1084 39.9423 83.8011 39.9718C84.2427 39.9906 84.6346 39.9683 84.9767 39.9048C85.3281 39.833 85.69 39.727 86.0626 39.5868L86.0053 40.5861C85.6413 40.7268 85.2842 40.8243 84.9339 40.8788C84.583 40.9419 84.1695 40.9633 83.6933 40.943C83.0352 40.915 82.4584 40.756 81.963 40.466C81.4761 40.1764 81.105 39.7616 80.8496 39.2216C80.6033 38.6734 80.5022 38.0142 80.5464 37.2441C80.5901 36.4827 80.7532 35.8348 81.0356 35.3004C81.3266 34.7664 81.71 34.362 82.1858 34.0874C82.6703 33.8131 83.2199 33.6891 83.8347 33.7153ZM83.7681 34.6492C83.2226 34.6259 82.7795 34.7849 82.4387 35.126C82.1071 35.4588 81.8932 35.9354 81.7968 36.5558L85.3426 36.7068C85.3677 36.1181 85.2565 35.6363 85.0089 35.2615C84.7618 34.878 84.3482 34.6739 83.7681 34.6492ZM96.8214 34.3986L93.7573 37.6507L96.6688 41.3656L95.37 41.3103L92.5594 37.6518L92.3568 41.1819L91.2917 41.1366L91.4943 37.6064L88.2785 41.0082L86.9796 40.9529L90.3024 37.5036L87.6257 34.0069L88.8726 34.06L91.4973 37.5545L91.691 34.18L92.756 34.2254L92.5624 37.5998L95.5875 34.346L96.8214 34.3986ZM103.38 34.6779L103.036 40.6741L104.049 40.7172L103.856 44.0917L102.752 44.0447L102.89 41.6306L98.0456 41.4243L97.907 43.8383L96.816 43.7918L97.0097 40.4174L97.5682 40.4412C98.2128 39.6446 98.7124 38.7292 99.0669 37.6948C99.4306 36.6521 99.6475 35.5945 99.7177 34.5219L103.38 34.6779ZM100.679 35.4606C100.611 36.0475 100.485 36.6536 100.302 37.279C100.119 37.8957 99.8939 38.4846 99.6273 39.0457C99.3694 39.6072 99.077 40.0891 98.7501 40.4915L101.932 40.6271L102.225 35.5264L100.679 35.4606ZM108.401 34.7747C109.25 34.8109 109.867 35.0236 110.253 35.413C110.638 35.8024 110.808 36.4038 110.761 37.2171L110.489 41.9543L109.658 41.9189L109.494 40.9231L109.442 40.9209C109.117 41.2887 108.78 41.5563 108.432 41.7236C108.093 41.8913 107.628 41.9626 107.04 41.9375C106.408 41.9106 105.893 41.7238 105.496 41.3773C105.1 41.0222 104.922 40.4899 104.963 39.7804C105.003 39.0882 105.306 38.5677 105.873 38.2189C106.44 37.8614 107.292 37.6895 108.428 37.7032L109.613 37.7146L109.636 37.2993C109.67 36.7196 109.567 36.3119 109.329 36.0762C109.091 35.8406 108.742 35.713 108.283 35.6934C107.92 35.6779 107.57 35.7194 107.235 35.8179C106.9 35.9077 106.585 36.0158 106.292 36.142L105.99 35.2705C106.303 35.119 106.67 34.9959 107.092 34.9011C107.515 34.7977 107.951 34.7555 108.401 34.7747ZM108.526 38.501C107.658 38.4987 107.048 38.6115 106.697 38.8394C106.354 39.0677 106.17 39.4024 106.144 39.8437C106.122 40.2331 106.222 40.5236 106.446 40.7152C106.678 40.9073 106.98 41.0112 107.352 41.0271C107.941 41.0521 108.44 40.9129 108.848 40.6094C109.256 40.2972 109.48 39.8036 109.518 39.1287L109.554 38.5058L108.526 38.501Z" fill="#07335E"/>
</svg>
