<svg width="344" height="106" viewBox="0 0 344 106" fill="none" xmlns="http://www.w3.org/2000/svg">
<path d="M86.4272 7.69587C86.6864 8.34133 87.0021 9.14441 87.4542 10.1684C88.956 8.82225 88.7585 8.10135 91.293 7.98718C93.2243 7.90019 94.7851 7.24608 96.5119 6.55797C97.2706 6.25565 98.2976 6.5241 99.1174 6.30003C100.783 5.84487 102.751 6.21409 104.471 6.14237L104.549 6.13911C107.507 6.01587 110.484 5.89182 113.359 5.29248C119.591 3.99326 126.267 4.02364 132.662 4.10143C140.557 4.19747 148.335 3.89107 156.238 3.9872C170.047 4.15519 183.991 3.92379 197.912 4.09314C203.343 4.1592 207.93 2.6109 213.252 2.67564C215.253 2.69999 217.686 2.39347 219.599 2.97564C221.353 3.50952 223.346 4.00151 225.185 4.02389C230.561 4.08928 235.6 4.55161 240.945 4.61663C245.553 4.67268 250.864 4.91334 255.036 6.88229C256.687 7.6615 258.525 9.26247 259.138 10.8088C260.288 13.7121 262.283 12.8521 264.627 11.8113C265.24 11.5394 265.485 10.9305 266.168 10.9388C267.089 10.9501 267.678 10.8785 268.242 10.162C268.685 9.59956 269.923 9.52892 270.609 9.34421C273.163 8.65752 275.844 8.3251 278.362 7.50023C281.007 6.63395 283.904 5.78573 286.368 4.56765C289.064 3.23453 293.272 4.05009 296.152 4.08514L311.648 4.27364C315.214 4.31702 316.826 5.485 319.947 6.69164C321.508 7.29466 323.455 9.46517 325.079 9.65036C328.335 10.0215 330.126 13.9894 332.668 15.357C334.608 16.4001 335.894 19.8817 336.969 21.5584C337.946 23.0823 337.944 24.7434 338.752 26.2587C340.29 29.1401 341.275 32.1534 342.03 35.2994C343.669 42.1233 341.83 48.3925 340.471 54.9307C340.11 56.6692 339.959 58.032 338.874 59.5453C337.391 61.6138 334.826 63.4533 333.104 65.5128C331.198 67.7925 332.189 67.5986 334.02 69.3114C335.323 70.5307 336.406 71.8553 337.66 73.1654C339.907 75.5142 339.364 78.6025 339.337 81.6074C339.321 83.5068 339.076 84.9648 338.513 86.8107C337.988 88.533 336.965 90.1022 336.183 91.7506C335.378 93.446 334.429 93.5462 332.73 94.3598C331.463 94.9663 331.407 96.0977 330.444 96.9609C328.951 98.2994 326.03 98.7759 324.052 99.0665C321.777 99.4006 319.53 99.6506 317.279 100.098C316.351 100.283 315.295 99.9614 314.43 100.375C310.964 102.035 305.554 101.248 301.723 101.201C295.915 101.13 290.029 100.709 284.337 100.165C279.1 99.6651 273.93 98.3226 268.688 97.992C267.081 97.8906 265.301 97.386 263.684 97.1291C262.414 96.9273 261.547 95.9823 260.289 95.8847C258.255 95.7268 257.768 93.0469 256.13 93.0269C255.007 93.0133 254.343 94.3524 253.389 94.7759C252.263 95.2761 251.056 95.5383 249.971 96.1602C248.473 97.0197 247.039 97.9492 245.69 98.9153C240.216 102.833 232.635 102.366 226.1 102.286L218.461 102.193C214.842 102.149 211.275 103.14 207.771 103.266C194.689 103.738 181.496 103.348 168.359 103.188L141.552 102.862C133.748 102.767 126.088 102.988 118.426 101.6C112.328 100.496 106.498 100.029 100.267 99.9534C97.5258 99.9201 94.5979 99.2563 92.4284 97.6747C91.5537 97.0372 89.3559 94.5947 88.0476 95.0816C86.41 95.691 85.0325 97.3561 83.4469 98.1447C80.3883 99.6659 76.8062 100.08 73.3519 100.74C70.0286 101.375 66.7419 100.749 63.7261 99.7763C60.74 98.813 56.7682 99.4243 53.6331 99.3861C49.2297 99.3326 44.8202 99.3366 40.4257 99.025C29.625 98.2592 17.2515 96.6985 10.2065 88.2307C9.69258 87.613 9.98358 86.726 9.44742 86.0158C8.88443 85.2701 8.17819 84.8665 7.61445 84.1889C6.5485 82.9077 6.08757 80.7494 6.10134 79.18C6.12889 76.038 5.71747 73.0164 5.74533 69.8407C5.75292 68.9749 5.25486 66.0907 6.22033 65.6134C8.22626 64.6217 7.9858 64.0402 8.00347 62.0259L8.00364 62.0073C8.03419 58.5246 8.06473 55.0421 6.78012 51.718C6.37072 50.6586 6.39406 49.8087 6.36882 48.683C6.34818 47.7623 5.61993 47.1195 5.29524 46.2638C4.95841 45.3761 4.70736 44.4463 4.46792 43.506C4.13439 42.1962 3.82338 40.8661 3.33438 39.6008C2.18202 36.6189 2.53666 33.3118 2.58955 30.0551C2.08556 28.3578 1.30633 26.7293 1.32184 24.9611C1.34908 21.855 4.62167 19.9919 5.67283 17.0827C6.16169 15.7296 6.82794 14.3507 7.55758 13.0062C9.15638 10.06 9.5547 9.25707 13.4875 8.17693C16.1755 7.4387 18.6164 5.64899 21.3962 5.19861C27.7198 4.17409 34.2777 4.36221 40.8264 4.53762C42.6395 4.45179 44.4203 4.23106 46.2686 4.25355C53.3636 4.33985 60.3684 4.22956 67.3699 3.32944C70.025 2.9881 73.0329 3.37605 75.714 3.40867C75.9286 3.41128 76.1516 3.40824 76.3806 3.40199C79.0139 3.07539 81.6479 2.96559 83.8347 3.9976C85.5159 4.791 86.3884 6.00595 86.4272 7.69587Z" fill="#0C3C69"/>
<path d="M87.4542 10.1684C85.2784 5.241 86.2644 5.42888 81.4776 3.67929C79.8088 3.06934 77.4802 3.43015 75.714 3.40867C73.0329 3.37605 70.025 2.9881 67.3699 3.32944C60.3684 4.22956 53.3636 4.33985 46.2686 4.25355C43.8912 4.22462 41.6255 4.59809 39.2591 4.5693C37.7542 4.55099 36.0274 4.3049 34.5396 4.53417C33.441 4.70348 32.8078 5.29287 31.6137 5.27835C24.478 5.19154 17.78 9.50821 11.9381 12.859C8.78094 14.6698 7.5986 17.3675 5.84008 20.2038C5.50807 20.7393 4.39596 21.257 4.6566 21.994C4.87058 22.5991 4.94625 23.2624 4.73729 23.8887C4.08485 25.8442 2.61177 27.6782 2.59404 29.6998C2.56447 33.0707 2.14008 36.5103 3.33438 39.6007C4.17444 41.7745 4.48924 44.1396 5.29524 46.2638C5.61993 47.1195 6.34818 47.7623 6.36882 48.683C6.39406 49.8087 6.37072 50.6586 6.78012 51.718C8.06702 55.048 8.03407 58.537 8.00347 62.0259C7.98581 64.0402 8.22626 64.6217 6.22033 65.6134C5.25486 66.0907 5.75292 68.9749 5.74533 69.8407C5.71747 73.0164 6.12889 76.038 6.10134 79.18C6.08757 80.7494 6.5485 82.9077 7.61445 84.1889C8.17819 84.8665 8.88443 85.2701 9.44742 86.0158C9.98358 86.726 9.69258 87.613 10.2065 88.2307C17.2515 96.6985 29.625 98.2592 40.4257 99.025C44.8202 99.3366 49.2297 99.3326 53.6331 99.3861C56.7682 99.4243 60.74 98.813 63.7262 99.7763C66.7419 100.749 70.0286 101.375 73.3519 100.74C76.8062 100.08 80.3883 99.6659 83.4469 98.1447C85.0325 97.3561 86.41 95.691 88.0476 95.0816C89.3559 94.5947 91.5537 97.0372 92.4284 97.6747C94.5979 99.2563 97.5258 99.9201 100.267 99.9534C106.498 100.029 112.328 100.496 118.426 101.6C126.088 102.988 133.748 102.767 141.552 102.862C150.487 102.971 159.423 103.079 168.359 103.188C181.496 103.348 194.689 103.738 207.771 103.266C211.275 103.14 214.842 102.149 218.461 102.193C221.007 102.224 223.553 102.255 226.1 102.286C232.635 102.366 240.216 102.833 245.69 98.9153C247.039 97.9492 248.473 97.0197 249.971 96.1602C251.056 95.5383 252.263 95.2761 253.389 94.7759C254.343 94.3524 255.007 93.0133 256.13 93.0269C257.768 93.0469 258.255 95.7268 260.289 95.8847C261.547 95.9823 262.414 96.9273 263.684 97.1291C265.301 97.3859 267.081 97.8906 268.688 97.992C273.93 98.3226 279.1 99.6651 284.337 100.165C290.029 100.709 295.915 101.13 301.723 101.201C305.554 101.248 310.964 102.035 314.43 100.375C315.295 99.9614 316.351 100.283 317.279 100.098C319.53 99.6506 321.777 99.4006 324.052 99.0665C326.03 98.7759 328.951 98.2994 330.444 96.9609C331.407 96.0977 331.463 94.9663 332.73 94.3598C334.429 93.5462 335.378 93.446 336.183 91.7506C336.965 90.1022 337.988 88.533 338.513 86.8107C339.076 84.9648 339.321 83.5068 339.337 81.6074C339.364 78.6025 339.907 75.5142 337.66 73.1654C336.406 71.8553 335.323 70.5307 334.02 69.3114C332.189 67.5986 331.198 67.7925 333.104 65.5128C334.826 63.4533 337.391 61.6138 338.874 59.5453C339.959 58.032 340.11 56.6692 340.471 54.9307C341.83 48.3925 343.669 42.1233 342.03 35.2994C341.275 32.1534 340.29 29.1401 338.752 26.2587C337.944 24.7434 337.946 23.0823 336.969 21.5584C335.894 19.8817 334.607 16.4001 332.668 15.357C330.126 13.9894 328.335 10.0215 325.079 9.65036C323.455 9.46517 321.508 7.29466 319.947 6.69164C316.826 5.485 315.214 4.31702 311.648 4.27364C306.483 4.21081 301.318 4.14797 296.152 4.08514C293.272 4.05009 289.064 3.23453 286.368 4.56765C283.904 5.78573 281.007 6.63395 278.362 7.50023C275.844 8.3251 273.163 8.65752 270.609 9.34421C269.923 9.52892 268.685 9.59956 268.242 10.162C267.678 10.8785 267.089 10.9501 266.168 10.9388C265.485 10.9305 265.24 11.5394 264.627 11.8113C262.283 12.8521 260.288 13.7121 259.138 10.8088C258.525 9.26247 256.687 7.6615 255.036 6.88229C250.864 4.91334 245.553 4.67268 240.945 4.61663C235.6 4.55161 230.561 4.08928 225.185 4.02389C223.346 4.00151 221.353 3.50952 219.599 2.97564C217.686 2.39347 215.253 2.69999 213.252 2.67564C207.93 2.6109 203.343 4.1592 197.912 4.09314C183.991 3.92379 170.047 4.15519 156.238 3.9872C148.335 3.89107 140.557 4.19747 132.662 4.10143C126.267 4.02364 119.591 3.99326 113.359 5.29248C110.458 5.8971 107.454 6.01802 104.471 6.14237C102.751 6.21409 100.783 5.84487 99.1174 6.30003C98.2976 6.5241 97.2706 6.25565 96.5119 6.55797C94.7851 7.24608 93.2243 7.90019 91.293 7.98718C88.7585 8.10135 88.956 8.82225 87.4542 10.1684ZM87.4542 10.1684C85.9494 11.5173 86.4217 8.61904 86.4283 7.86117C86.4439 6.08491 85.5702 4.81663 83.8347 3.9976C79.6884 2.04079 73.9341 4.18907 69.6254 4.13665C61.7491 4.04084 54.0173 4.74883 46.1192 4.65275C37.8328 4.55195 29.4257 3.89771 21.3962 5.19861C18.6164 5.64899 16.1755 7.4387 13.4875 8.17693C9.5547 9.25707 9.15638 10.06 7.55758 13.0062C6.82794 14.3507 6.16169 15.7296 5.67283 17.0827C4.62167 19.9919 1.34908 21.855 1.32184 24.9611C1.2988 27.5882 3.03014 29.9071 3.00651 32.6011C2.97701 35.9653 4.49721 40.1657 4.46792 43.506" stroke="black" stroke-linecap="round" stroke-linejoin="round"/>
<path d="M88.8313 11.0341C82.1402 19.6626 74.1162 28.5497 72.5965 39.5963C71.8375 45.113 71.8982 50.8214 72.0245 56.3809C72.2274 65.3098 73.7175 74.3318 76.161 82.9654C77.635 88.1732 81.7623 99.832 89.2599 95.6236" stroke="black" stroke-width="2" stroke-linecap="round" stroke-linejoin="round"/>
<path d="M261.646 13.8389C265.381 18.5596 269.258 22.9875 271.278 28.6952C273.61 35.2886 274.545 42.3302 274.542 49.2828C274.54 55.1291 274.505 60.9861 274.387 66.8312C274.286 71.8795 272.284 74.7182 270.386 79.1491C268.083 84.5263 263.024 93.6747 255.774 93.587" stroke="black" stroke-width="2" stroke-linecap="round" stroke-linejoin="round"/>
<path d="M144.674 61.7977L144.671 51.0877L152.711 51.0872L152.714 61.7972L151.379 61.7973L151.377 52.2723L146.022 52.2727L146.024 61.7977L144.674 61.7977ZM158.509 53.6218C159.489 53.6217 160.214 53.8367 160.684 54.2666C161.154 54.6966 161.389 55.3816 161.389 56.3216L161.391 61.7966L160.431 61.7966L160.176 60.6567L160.116 60.6567C159.766 61.0967 159.396 61.4217 159.006 61.6317C158.626 61.8418 158.096 61.9468 157.416 61.9469C156.686 61.9469 156.081 61.757 155.601 61.377C155.121 60.987 154.88 60.382 154.88 59.562C154.88 58.762 155.195 58.147 155.825 57.717C156.455 57.2769 157.425 57.0369 158.735 56.9968L160.1 56.9517L160.099 56.4717C160.099 55.8017 159.954 55.3367 159.664 55.0767C159.374 54.8167 158.964 54.6868 158.434 54.6868C158.014 54.6868 157.614 54.7518 157.234 54.8819C156.854 55.0019 156.499 55.1419 156.169 55.3019L155.764 54.312C156.114 54.1219 156.529 53.9619 157.009 53.8319C157.489 53.6919 157.989 53.6218 158.509 53.6218ZM158.9 57.9118C157.9 57.9518 157.205 58.1119 156.815 58.3919C156.435 58.6719 156.245 59.0669 156.245 59.5769C156.245 60.0269 156.38 60.3569 156.65 60.5669C156.931 60.7769 157.286 60.8819 157.716 60.8818C158.396 60.8818 158.961 60.6968 159.41 60.3267C159.86 59.9467 160.085 59.3667 160.085 58.5867L160.085 57.8667L158.9 57.9118ZM169.994 61.796L168.659 61.7961L168.657 54.8511L166.287 54.8512C166.158 56.5412 165.978 57.9063 165.748 58.9463C165.519 59.9763 165.214 60.7263 164.834 61.1963C164.454 61.6664 163.974 61.9014 163.394 61.9014C163.264 61.9014 163.134 61.8915 163.004 61.8715C162.884 61.8615 162.784 61.8365 162.704 61.7965L162.704 60.8065C162.764 60.8265 162.829 60.8415 162.899 60.8515C162.969 60.8615 163.039 60.8665 163.109 60.8665C163.649 60.8664 164.079 60.2914 164.398 59.1414C164.728 57.9913 164.978 56.1963 165.147 53.7563L169.992 53.756L169.994 61.796ZM175.589 53.6206C176.569 53.6205 177.294 53.8355 177.764 54.2654C178.234 54.6954 178.469 55.3804 178.469 56.3204L178.471 61.7954L177.511 61.7955L177.256 60.6555L177.196 60.6555C176.846 61.0955 176.476 61.4205 176.086 61.6306C175.706 61.8406 175.176 61.9456 174.496 61.9457C173.766 61.9457 173.161 61.7558 172.681 61.3758C172.201 60.9858 171.961 60.3808 171.96 59.5608C171.96 58.7608 172.275 58.1458 172.905 57.7158C173.535 57.2757 174.505 57.0357 175.815 56.9956L177.18 56.9505L177.18 56.4705C177.179 55.8005 177.034 55.3355 176.744 55.0755C176.454 54.8155 176.044 54.6856 175.514 54.6856C175.094 54.6856 174.694 54.7507 174.314 54.8807C173.934 55.0007 173.579 55.1407 173.249 55.3008L172.844 54.3108C173.194 54.1208 173.609 53.9607 174.089 53.8307C174.569 53.6907 175.069 53.6206 175.589 53.6206ZM175.98 57.9106C174.98 57.9506 174.285 58.1107 173.895 58.3907C173.515 58.6707 173.325 59.0657 173.325 59.5757C173.325 60.0257 173.461 60.3557 173.731 60.5657C174.011 60.7757 174.366 60.8807 174.796 60.8806C175.476 60.8806 176.041 60.6956 176.49 60.3255C176.94 59.9455 177.165 59.3655 177.165 58.5855L177.165 57.8655L175.98 57.9106ZM186.502 54.8648L183.877 54.865L183.879 61.795L182.574 61.7951L182.572 54.8651L179.977 54.8653L179.977 53.7553L186.502 53.7548L186.502 54.8648ZM192.841 53.7544L194.281 53.7543L190.847 57.6245L194.568 61.7943L193.038 61.7944L189.407 57.7146L189.408 61.7946L188.088 61.7947L188.086 53.7547L189.406 53.7546L189.407 57.6546L192.841 53.7544ZM199.07 53.6189C200.05 53.6189 200.775 53.8338 201.245 54.2638C201.716 54.6938 201.951 55.3787 201.951 56.3187L201.952 61.7937L200.992 61.7938L200.737 60.6538L200.677 60.6538C200.327 61.0939 199.957 61.4189 199.567 61.6289C199.187 61.8389 198.657 61.944 197.977 61.944C197.247 61.9441 196.642 61.7541 196.162 61.3742C195.682 60.9842 195.442 60.3792 195.442 59.5592C195.442 58.7592 195.756 58.1442 196.386 57.7141C197.016 57.2741 197.986 57.034 199.296 56.9939L200.661 56.9488L200.661 56.4688C200.661 55.7988 200.516 55.3338 200.226 55.0739C199.936 54.8139 199.526 54.6839 198.996 54.684C198.576 54.684 198.176 54.749 197.796 54.879C197.416 54.9991 197.061 55.1391 196.731 55.2991L196.325 54.3091C196.675 54.1191 197.09 53.9591 197.57 53.8291C198.05 53.689 198.55 53.619 199.07 53.6189ZM199.461 57.9089C198.461 57.949 197.766 58.109 197.376 58.3891C196.997 58.6691 196.807 59.0641 196.807 59.5741C196.807 60.0241 196.942 60.3541 197.212 60.5641C197.492 60.7741 197.847 60.879 198.277 60.879C198.957 60.879 199.522 60.6939 199.972 60.3239C200.422 59.9439 200.647 59.3638 200.647 58.5838L200.646 57.8638L199.461 57.9089Z" fill="#AECDEA"/>
</svg>
