<svg width="115" height="107" viewBox="0 0 115 107" fill="none" xmlns="http://www.w3.org/2000/svg">
<ellipse cx="57.5" cy="53.5" rx="57.5" ry="53.5" fill="#3A6B70"/>
<ellipse cx="58" cy="54" rx="46" ry="43" fill="#A1D4CD"/>
<path d="M51.75 52.95H50.05C49.85 52.5167 49.6333 51.9833 49.4 51.35C49.1667 50.6833 48.9333 50 48.7 49.3C48.5 48.5667 48.3167 47.8333 48.15 47.1C47.9833 46.3333 47.8667 45.6167 47.8 44.95C49.0667 44.1833 50.5 43.5667 52.1 43.1C53.7333 42.6333 55.8 42.4 58.3 42.4C59.8 42.4 61.1333 42.6167 62.3 43.05C63.5 43.45 64.5167 44.0167 65.35 44.75C66.2167 45.45 66.8667 46.3 67.3 47.3C67.7667 48.3 68 49.3833 68 50.55C68 52.05 67.7167 53.3333 67.15 54.4C66.5833 55.4667 65.8833 56.4167 65.05 57.25C64.2167 58.05 63.3 58.8 62.3 59.5C61.3333 60.1667 60.4167 60.9 59.55 61.7C58.7167 62.4667 58.0167 63.3333 57.45 64.3C56.8833 65.2667 56.6 66.45 56.6 67.85H54.95C54.4833 66.3167 54.3 65 54.4 63.9C54.5333 62.7667 54.8167 61.75 55.25 60.85C55.6833 59.95 56.2167 59.1333 56.85 58.4C57.4833 57.6667 58.0833 56.9167 58.65 56.15C59.25 55.3833 59.75 54.5667 60.15 53.7C60.5833 52.8333 60.8 51.8333 60.8 50.7C60.8 50.0667 60.7167 49.45 60.55 48.85C60.4167 48.2167 60.1667 47.6667 59.8 47.2C59.4667 46.7333 59.0167 46.3667 58.45 46.1C57.9167 45.8 57.25 45.65 56.45 45.65C55.75 45.65 55.1333 45.7167 54.6 45.85C54.0667 45.9833 53.6667 46.15 53.4 46.35L51.75 52.95ZM52.1 74.45C52.1 73.25 52.4833 72.2833 53.25 71.55C54.0167 70.8167 55.0333 70.45 56.3 70.45C57.5667 70.45 58.6 70.8167 59.4 71.55C60.2 72.2833 60.6 73.25 60.6 74.45C60.6 75.65 60.2 76.6167 59.4 77.35C58.6 78.05 57.5667 78.4 56.3 78.4C55.0333 78.4 54.0167 78.05 53.25 77.35C52.4833 76.6167 52.1 75.65 52.1 74.45Z" fill="#3A6B70"/>
</svg>
