<svg width="148" height="51" viewBox="0 0 148 51" fill="none" xmlns="http://www.w3.org/2000/svg">
<rect y="0.0654297" width="93" height="50" rx="15" fill="#49CA47"/>
<path d="M29.03 19.6154C28.2633 19.6154 27.66 19.8721 27.22 20.3854C26.78 20.8988 26.56 21.6021 26.56 22.4954C26.56 23.3821 26.7633 24.0854 27.17 24.6054C27.5833 25.1188 28.2 25.3754 29.02 25.3754C29.3333 25.3754 29.63 25.3488 29.91 25.2954C30.19 25.2421 30.4633 25.1754 30.73 25.0954V25.8754C30.4633 25.9754 30.1867 26.0488 29.9 26.0954C29.62 26.1421 29.2833 26.1654 28.89 26.1654C28.1633 26.1654 27.5567 26.0154 27.07 25.7154C26.5833 25.4154 26.2167 24.9888 25.97 24.4354C25.73 23.8821 25.61 23.2321 25.61 22.4854C25.61 21.7654 25.74 21.1321 26 20.5854C26.2667 20.0321 26.6567 19.6021 27.17 19.2954C27.6833 18.9821 28.3067 18.8254 29.04 18.8254C29.7933 18.8254 30.45 18.9654 31.01 19.2454L30.65 20.0054C30.43 19.9054 30.1833 19.8154 29.91 19.7354C29.6433 19.6554 29.35 19.6154 29.03 19.6154ZM34.7184 20.6054C35.3784 20.6054 35.9084 20.8354 36.3084 21.2954C36.715 21.7554 36.9184 22.4488 36.9184 23.3754C36.9184 24.2888 36.715 24.9821 36.3084 25.4554C35.9084 25.9288 35.375 26.1654 34.7084 26.1654C34.295 26.1654 33.9517 26.0888 33.6784 25.9354C33.4117 25.7754 33.2017 25.5921 33.0484 25.3854H32.9884C33.0017 25.4988 33.015 25.6421 33.0284 25.8154C33.0417 25.9888 33.0484 26.1388 33.0484 26.2654V28.4654H32.1684V20.7054H32.8884L33.0084 21.4354H33.0484C33.2084 21.2021 33.4184 21.0054 33.6784 20.8454C33.9384 20.6854 34.285 20.6054 34.7184 20.6054ZM34.5584 21.3454C34.0117 21.3454 33.625 21.4988 33.3984 21.8054C33.1784 22.1121 33.0617 22.5788 33.0484 23.2054V23.3754C33.0484 24.0354 33.155 24.5454 33.3684 24.9054C33.5884 25.2588 33.9917 25.4354 34.5784 25.4354C34.905 25.4354 35.1717 25.3454 35.3784 25.1654C35.5917 24.9854 35.7484 24.7421 35.8484 24.4354C35.955 24.1221 36.0084 23.7654 36.0084 23.3654C36.0084 22.7521 35.8884 22.2621 35.6484 21.8954C35.415 21.5288 35.0517 21.3454 34.5584 21.3454ZM40.3907 20.6054C40.8507 20.6054 41.244 20.7054 41.5707 20.9054C41.904 21.1054 42.1574 21.3888 42.3307 21.7554C42.5107 22.1154 42.6007 22.5388 42.6007 23.0254V23.5554H38.9307C38.944 24.1621 39.0974 24.6254 39.3907 24.9454C39.6907 25.2588 40.1074 25.4154 40.6407 25.4154C40.9807 25.4154 41.2807 25.3854 41.5407 25.3254C41.8074 25.2588 42.0807 25.1654 42.3607 25.0454V25.8154C42.0874 25.9354 41.8174 26.0221 41.5507 26.0754C41.284 26.1354 40.9674 26.1654 40.6007 26.1654C40.094 26.1654 39.644 26.0621 39.2507 25.8554C38.864 25.6488 38.5607 25.3421 38.3407 24.9354C38.1274 24.5221 38.0207 24.0188 38.0207 23.4254C38.0207 22.8388 38.1174 22.3354 38.3107 21.9154C38.5107 21.4954 38.7874 21.1721 39.1407 20.9454C39.5007 20.7188 39.9174 20.6054 40.3907 20.6054ZM40.3807 21.3254C39.9607 21.3254 39.6274 21.4621 39.3807 21.7354C39.1407 22.0021 38.9974 22.3754 38.9507 22.8554H41.6807C41.674 22.4021 41.5674 22.0354 41.3607 21.7554C41.154 21.4688 40.8274 21.3254 40.3807 21.3254ZM47.9452 20.7054V25.3254H48.7252V27.9254H47.8752V26.0654H44.1452V27.9254H43.3052V25.3254H43.7352C44.1952 24.6921 44.5386 23.9721 44.7652 23.1654C44.9986 22.3521 45.1186 21.5321 45.1252 20.7054H47.9452ZM45.9052 21.3954C45.8786 21.8488 45.8086 22.3188 45.6952 22.8054C45.5819 23.2854 45.4352 23.7454 45.2552 24.1854C45.0819 24.6254 44.8786 25.0054 44.6452 25.3254H47.0952V21.3954H45.9052ZM51.9258 26.1654C51.4524 26.1654 51.0291 26.0688 50.6558 25.8754C50.2891 25.6821 49.9991 25.3821 49.7858 24.9754C49.5791 24.5688 49.4758 24.0488 49.4758 23.4154C49.4758 22.7554 49.5858 22.2188 49.8058 21.8054C50.0258 21.3921 50.3224 21.0888 50.6958 20.8954C51.0758 20.7021 51.5058 20.6054 51.9858 20.6054C52.2591 20.6054 52.5224 20.6354 52.7758 20.6954C53.0291 20.7488 53.2358 20.8154 53.3958 20.8954L53.1258 21.6254C52.9658 21.5654 52.7791 21.5088 52.5658 21.4554C52.3524 21.4021 52.1524 21.3754 51.9658 21.3754C50.9124 21.3754 50.3858 22.0521 50.3858 23.4054C50.3858 24.0521 50.5124 24.5488 50.7658 24.8954C51.0258 25.2354 51.4091 25.4054 51.9158 25.4054C52.2091 25.4054 52.4658 25.3754 52.6858 25.3154C52.9124 25.2554 53.1191 25.1821 53.3058 25.0954V25.8754C53.1258 25.9688 52.9258 26.0388 52.7058 26.0854C52.4924 26.1388 52.2324 26.1654 51.9258 26.1654ZM58.2805 21.4454H56.5305V26.0654H55.6605V21.4454H53.9305V20.7054H58.2805V21.4454ZM63.6463 22.0554C63.6463 22.3888 63.5463 22.6488 63.3463 22.8354C63.1463 23.0221 62.8897 23.1488 62.5763 23.2154V23.2554C62.9097 23.3021 63.1997 23.4221 63.4463 23.6154C63.693 23.8021 63.8163 24.0954 63.8163 24.4954C63.8163 24.9488 63.6463 25.3254 63.3063 25.6254C62.973 25.9188 62.4197 26.0654 61.6463 26.0654H59.3363V20.7054H61.6363C62.0163 20.7054 62.3563 20.7488 62.6563 20.8354C62.963 20.9154 63.203 21.0554 63.3763 21.2554C63.5563 21.4488 63.6463 21.7154 63.6463 22.0554ZM62.7563 22.1654C62.7563 21.9121 62.663 21.7288 62.4763 21.6154C62.2963 21.4954 61.9997 21.4354 61.5863 21.4354H60.2163V22.9054H61.4263C62.313 22.9054 62.7563 22.6588 62.7563 22.1654ZM62.9063 24.4954C62.9063 24.1888 62.7897 23.9688 62.5563 23.8354C62.323 23.7021 61.9797 23.6354 61.5263 23.6354H60.2163V25.3554H61.5463C61.9863 25.3554 62.323 25.2921 62.5563 25.1654C62.7897 25.0321 62.9063 24.8088 62.9063 24.4954ZM67.128 20.6154C67.7814 20.6154 68.2647 20.7588 68.578 21.0454C68.8914 21.3321 69.048 21.7888 69.048 22.4154V26.0654H68.408L68.238 25.3054H68.198C67.9647 25.5988 67.718 25.8154 67.458 25.9554C67.2047 26.0954 66.8514 26.1654 66.398 26.1654C65.9114 26.1654 65.508 26.0388 65.188 25.7854C64.868 25.5254 64.708 25.1221 64.708 24.5754C64.708 24.0421 64.918 23.6321 65.338 23.3454C65.758 23.0521 66.4047 22.8921 67.278 22.8654L68.188 22.8354V22.5154C68.188 22.0688 68.0914 21.7588 67.898 21.5854C67.7047 21.4121 67.4314 21.3254 67.078 21.3254C66.798 21.3254 66.5314 21.3688 66.278 21.4554C66.0247 21.5354 65.788 21.6288 65.568 21.7354L65.298 21.0754C65.5314 20.9488 65.808 20.8421 66.128 20.7554C66.448 20.6621 66.7814 20.6154 67.128 20.6154ZM67.388 23.4754C66.7214 23.5021 66.258 23.6088 65.998 23.7954C65.7447 23.9821 65.618 24.2454 65.618 24.5854C65.618 24.8854 65.708 25.1054 65.888 25.2454C66.0747 25.3854 66.3114 25.4554 66.598 25.4554C67.0514 25.4554 67.428 25.3321 67.728 25.0854C68.028 24.8321 68.178 24.4454 68.178 23.9254V23.4454L67.388 23.4754ZM29.12 30.7054V31.4454H26.73V36.0654H25.85V30.7054H29.12ZM31.0062 33.9754C31.0062 34.0554 31.0028 34.1754 30.9962 34.3354C30.9895 34.4954 30.9795 34.6554 30.9662 34.8154C30.9595 34.9754 30.9528 35.1021 30.9462 35.1954L33.8162 30.7054H34.8962V36.0654H34.0762V32.9054C34.0762 32.7988 34.0762 32.6588 34.0762 32.4854C34.0828 32.3121 34.0895 32.1421 34.0962 31.9754C34.1028 31.8021 34.1095 31.6721 34.1162 31.5854L31.2662 36.0654H30.1762V30.7054H31.0062V33.9754ZM39.872 30.7054V31.4454H37.482V36.0654H36.602V30.7054H39.872ZM41.7581 33.9754C41.7581 34.0554 41.7548 34.1754 41.7481 34.3354C41.7415 34.4954 41.7315 34.6554 41.7181 34.8154C41.7115 34.9754 41.7048 35.1021 41.6981 35.1954L44.5681 30.7054H45.6481V36.0654H44.8281V32.9054C44.8281 32.7988 44.8281 32.6588 44.8281 32.4854C44.8348 32.3121 44.8415 32.1421 44.8481 31.9754C44.8548 31.8021 44.8615 31.6721 44.8681 31.5854L42.0181 36.0654H40.9281V30.7054H41.7581V33.9754ZM49.4239 30.6054C49.8839 30.6054 50.2772 30.7054 50.6039 30.9054C50.9372 31.1054 51.1906 31.3888 51.3639 31.7554C51.5439 32.1154 51.6339 32.5388 51.6339 33.0254V33.5554H47.9639C47.9772 34.1621 48.1306 34.6254 48.4239 34.9454C48.7239 35.2588 49.1406 35.4154 49.6739 35.4154C50.0139 35.4154 50.3139 35.3854 50.5739 35.3254C50.8406 35.2588 51.1139 35.1654 51.3939 35.0454V35.8154C51.1206 35.9354 50.8506 36.0221 50.5839 36.0754C50.3172 36.1354 50.0006 36.1654 49.6339 36.1654C49.1272 36.1654 48.6772 36.0621 48.2839 35.8554C47.8972 35.6488 47.5939 35.3421 47.3739 34.9354C47.1606 34.5221 47.0539 34.0188 47.0539 33.4254C47.0539 32.8388 47.1506 32.3354 47.3439 31.9154C47.5439 31.4954 47.8206 31.1721 48.1739 30.9454C48.5339 30.7188 48.9506 30.6054 49.4239 30.6054ZM49.4139 31.3254C48.9939 31.3254 48.6606 31.4621 48.4139 31.7354C48.1739 32.0021 48.0306 32.3754 47.9839 32.8554H50.7139C50.7072 32.4021 50.6006 32.0354 50.3939 31.7554C50.1872 31.4688 49.8606 31.3254 49.4139 31.3254ZM53.8784 30.7054V32.9354H56.7884V30.7054H57.6684V36.0654H56.7884V33.6754H53.8784V36.0654H52.9984V30.7054H53.8784ZM59.3656 36.0654V30.7054H60.2456V32.9054H61.6356C62.329 32.9054 62.8423 33.0321 63.1756 33.2854C63.509 33.5388 63.6756 33.9188 63.6756 34.4254C63.6756 34.9254 63.5123 35.3254 63.1856 35.6254C62.859 35.9188 62.329 36.0654 61.5956 36.0654H59.3656ZM64.5656 36.0654V30.7054H65.4456V36.0654H64.5656ZM61.5156 35.3554C61.8956 35.3554 62.2056 35.2921 62.4456 35.1654C62.6856 35.0321 62.8056 34.8021 62.8056 34.4754C62.8056 34.1488 62.6956 33.9288 62.4756 33.8154C62.2556 33.6954 61.939 33.6354 61.5256 33.6354H60.2456V35.3554H61.5156Z" fill="#07335E"/>
</svg>
