<svg width="339" height="92" viewBox="0 0 339 92" fill="none" xmlns="http://www.w3.org/2000/svg">
<path d="M1.42061 30.7735C1.30255 22.1072 9.73779 15.3727 9.95903 6.79916C38.388 6.51176 65.5266 6.41414 93.8133 5.95143C116.147 5.5861 138.385 4.71762 160.774 4.49128C174.637 4.35113 191.056 2.67105 203.988 5.62083C208.202 6.58189 212.772 5.77361 216.672 7.05902C219.914 8.12749 226.01 5.04417 229.735 5.36053C232.263 5.57514 235.459 3.73621 240.991 5.24674C245.12 3.20573 246.329 5.65244 249.404 3.59523C254.304 3.54563 257.839 0.271654 262.941 1.10889C271.034 2.43707 271.917 1.01803 280.192 0.934381L301.155 0.722449C309.576 0.637318 317.601 -0.560918 317.691 6.03777C317.741 9.6704 317.98 12.9753 320.644 16.1897C323.757 19.9458 329.324 23.2693 329.386 27.8495L329.546 39.5961C329.628 45.5838 334.619 62.3889 323.575 66.1116C320.134 67.2716 317.123 69.2361 313.499 70.1295C308.164 71.4446 299.603 70.4441 293.874 70.502C290.379 70.5373 283.807 69.7553 280.864 70.9816C276.902 72.633 279.287 72.2159 274.761 72.2616C263.4 72.3765 253.585 71.4835 242.287 70.4556L241.879 70.4185C237.923 70.0586 234.299 68.8219 230.6 68.792C224.826 68.7454 228.111 66.9761 225.919 66.0546C217.838 62.6579 209.091 68.0219 200.077 69.7098C187.611 72.0442 172.247 69.3819 159.478 69.511C153.148 69.575 146.51 69.2952 140.204 69.7494C137.984 69.9092 136.476 71.223 134.244 71.2455C129.458 71.2939 120.313 70.5693 116.204 69.1653C109.156 66.7575 100.455 68.1085 95.5137 63.6309C94.4592 62.6754 93.1371 65.4446 91.8208 66.2789C90.7032 66.9874 88.9954 67.5259 88.0487 68.2751C86.1678 69.7639 82.6198 69.1015 80.4779 70.3097C74.5642 73.6454 61.4683 72.0683 53.9078 72.1447C42.0906 72.2642 30.3745 72.098 18.9888 70.5397C11.4743 69.5112 9.9233 67.496 5.67868 64.4521C2.04233 61.8444 4.09999 58.1174 2.94722 55.0376C0.103985 47.4417 1.52841 38.6873 1.42061 30.7735Z" fill="#FE6A00"/>
<path d="M318.819 15.2033C319.306 15.9206 320.29 17.0644 321.421 17.4659C323.032 18.0379 323.91 18.9485 325.182 19.7238C326.982 20.8217 327.516 22.5319 328.393 23.9231C328.926 24.7681 329.755 25.3863 329.767 26.3613C329.776 27.1435 329.785 27.9257 329.794 28.7079C329.805 29.6155 329.816 30.523 329.826 31.4306C329.833 31.9969 329.5 33.1153 329.909 33.6153C331.077 35.0432 330.413 37.5142 330.432 39.1718C330.454 41.0357 330.579 42.8997 330.755 44.7307C330.832 45.5309 330.774 46.3469 330.783 47.1489C330.792 47.8475 331.822 47.905 331.83 48.5161C331.837 49.1152 332.358 49.6527 332.365 50.2834C332.383 51.7868 332.076 52.9233 331.44 54.361C331.2 54.9038 330.816 55.4736 330.63 56.0187C330.421 56.6291 329.614 57.2609 329.622 57.8847C329.627 58.3684 329.117 58.7679 329.123 59.2611C329.128 59.7272 328.955 60.2712 328.509 60.6388C328.167 60.9211 327.715 61.6741 327.553 62.0205C327.341 62.4705 326.741 63.2038 326.341 63.6113C324.053 65.9396 324.959 69.6812 325.669 72.2274C326.696 75.9118 326.477 79.6653 324.511 83.2498C323.19 85.6574 320.599 87.7114 319.24 90.1015C318.929 90.6486 318.23 89.3531 318.156 89.2185C317.782 88.5347 317.856 87.8063 317.86 87.09C317.873 84.215 320.997 81.8749 323.02 79.3976C323.648 78.6299 323.766 77.9361 324.067 77.128C324.419 76.1829 325.088 75.3252 325.638 74.4223C326.785 72.5383 327.418 70.7441 326.53 68.8044C326.037 67.7264 325.857 66.3027 325.844 65.1847C325.834 64.2922 325.855 66.828 325.866 67.0745C325.92 68.3007 326.573 69.3064 327.308 70.4166C328.016 71.4869 328.38 72.6543 328.835 73.7757C329.804 76.1626 330.636 78.4424 330.665 80.9113C330.677 81.9734 330.614 83.0484 330.702 84.1087C330.768 84.9101 331.049 86.2418 332.598 85.9586C337.011 85.1518 337.395 82.3188 336.533 79.884C335.815 77.8559 334.123 76.3918 332.509 74.6642C331.455 73.5368 329.713 72.5034 329.006 71.2656C328.113 69.701 326.981 68.1035 325.918 66.6439C325.212 65.6734 324.595 64.3708 325.68 63.422C326.405 62.7881 328.121 61.7205 328.112 60.8853" stroke="black" stroke-width="2" stroke-linecap="round" stroke-linejoin="round"/>
<path d="M96.3668 5.38661C95.4623 6.06844 94.9381 7.03911 94.0383 7.68668C93.378 8.1619 92.7194 8.4936 92.1382 9.06191C91.7632 9.42862 91.2891 9.68549 90.8518 9.99542C90.2296 10.4365 90.0612 11.1171 89.5872 11.6513C88.9665 12.3507 88.4303 13.0572 87.9003 13.8063C87.3898 14.5279 86.8706 14.3816 86.1138 14.7745C84.6374 15.5411 84.4368 18.5441 84.2862 19.7222C83.8894 22.8258 83.5982 26.1817 84.2973 29.2835C84.9846 32.3335 86.1445 35.2956 86.733 38.3551C87.3824 41.7313 89.73 44.7591 90.2985 48.118C90.4377 48.9403 90.8287 49.6923 91.0579 50.4958C91.2713 51.2437 91.1643 51.9372 91.552 52.6485C92.2056 53.8473 92.5414 55.1359 93.3062 56.3029C93.9923 57.35 94.4834 58.6936 95.0585 59.8287C95.6484 60.9928 95.8493 61.885 95.8661 63.1165" stroke="black" stroke-width="2" stroke-linecap="round" stroke-linejoin="round"/>
<path d="M218.776 6.89794C223.425 13.115 231.152 18.7204 231.26 26.6391C231.327 31.5945 231.916 36.7515 231.389 41.6869C231.037 44.9909 229.183 47.8708 227.688 50.8602C227.292 51.6511 226.556 52.5305 225.853 53.1627C225.412 53.56 225.411 54.0877 225.024 54.5634C224.027 55.7893 223.54 57.3322 222.799 58.6689C222.169 59.8071 221.253 60.7299 220.864 61.911C220.5 63.0175 220.01 63.6138 219.224 64.6183" stroke="black" stroke-width="2" stroke-linecap="round" stroke-linejoin="round"/>
<path d="M126.954 36.2052C125.958 36.1607 125.155 36.4588 124.543 37.0994C123.932 37.74 123.591 38.6399 123.521 39.7992C123.452 40.9498 123.661 41.8742 124.149 42.5726C124.646 43.2627 125.427 43.6315 126.491 43.6791C126.898 43.6972 127.286 43.6798 127.654 43.6269C128.021 43.5739 128.382 43.5032 128.734 43.4149L128.673 44.4271C128.319 44.5414 127.954 44.6205 127.578 44.6644C127.211 44.7087 126.772 44.7195 126.261 44.6967C125.317 44.6545 124.541 44.4247 123.932 44.0072C123.324 43.5897 122.881 43.0147 122.604 42.2824C122.335 41.5504 122.23 40.7 122.289 39.7311C122.345 38.7968 122.563 37.9825 122.943 37.2882C123.333 36.5856 123.873 36.0502 124.564 35.6821C125.255 35.3052 126.076 35.1381 127.029 35.1806C128.007 35.2243 128.849 35.444 129.554 35.8399L129.028 36.8052C128.75 36.6627 128.436 36.5316 128.088 36.4119C127.748 36.2926 127.37 36.2237 126.954 36.2052ZM136.828 38.0643L136.409 45.0197L135.267 44.9687L135.627 38.9865L132.029 38.8259L131.669 44.8081L130.526 44.757L130.945 37.8016L136.828 38.0643ZM141.692 38.1644C142.541 38.2023 143.158 38.4163 143.542 38.8065C143.927 39.1967 144.094 39.7984 144.045 40.6115L143.76 45.348L142.929 45.3109L142.768 44.3148L142.716 44.3125C142.39 44.6796 142.053 44.9464 141.704 45.113C141.364 45.28 140.9 45.3504 140.311 45.3241C139.679 45.2958 139.165 45.1081 138.769 44.7608C138.374 44.4048 138.198 43.8722 138.24 43.1628C138.282 42.4707 138.587 41.9509 139.155 41.6032C139.723 41.2469 140.575 41.0768 141.712 41.0928L142.896 41.1067L142.921 40.6914C142.956 40.1118 142.854 39.7039 142.617 39.4678C142.379 39.2317 142.031 39.1034 141.572 39.0829C141.208 39.0666 140.859 39.1074 140.523 39.2052C140.188 39.2943 139.873 39.4017 139.579 39.5273L139.28 38.6552C139.593 38.5044 139.961 38.382 140.383 38.2881C140.806 38.1856 141.242 38.1443 141.692 38.1644ZM141.807 41.8908C140.939 41.8867 140.329 41.9983 139.977 42.2254C139.633 42.453 139.448 42.7873 139.421 43.2285C139.398 43.6178 139.498 43.9085 139.721 44.1007C139.952 44.2931 140.254 44.3977 140.626 44.4143C141.215 44.4406 141.714 44.3024 142.123 43.9997C142.532 43.6884 142.757 43.1953 142.798 42.5206L142.835 41.8977L141.807 41.8908ZM151.209 45.6806L150.053 45.629L150.415 39.6208L148.363 39.5292C148.162 40.9862 147.935 42.1601 147.682 43.0509C147.429 43.9331 147.126 44.5701 146.773 44.962C146.419 45.3539 145.992 45.5387 145.489 45.5163C145.377 45.5112 145.265 45.4976 145.153 45.4752C145.05 45.4619 144.965 45.4365 144.897 45.3988L144.949 44.5423C145 44.5619 145.055 44.5774 145.115 44.5888C145.176 44.6001 145.236 44.6072 145.297 44.6099C145.764 44.6307 146.166 44.1499 146.503 43.1674C146.849 42.1853 147.159 40.6421 147.433 38.5379L151.628 38.7252L151.209 45.6806ZM156.873 41.8219C158.683 41.9027 159.548 42.6006 159.469 43.9155C159.43 44.5644 159.178 45.0736 158.713 45.4432C158.248 45.8041 157.535 45.9631 156.574 45.9202L153.419 45.7793L153.837 38.8238L154.98 38.8749L154.808 41.7297L156.873 41.8219ZM158.322 43.9294C158.347 43.5055 158.213 43.2132 157.919 43.0526C157.634 42.8838 157.223 42.7874 156.686 42.7634L154.751 42.677L154.617 44.909L156.578 44.9965C157.063 45.0182 157.466 44.9494 157.788 44.7903C158.119 44.6316 158.297 44.3446 158.322 43.9294ZM162.691 39.2192L162.517 42.113L166.296 42.2817L166.47 39.388L167.613 39.439L167.195 46.3944L166.052 46.3434L166.238 43.242L162.459 43.0732L162.273 46.1746L161.13 46.1236L161.548 39.1682L162.691 39.2192ZM170.64 43.8289C170.634 43.9327 170.62 44.0882 170.599 44.2954C170.578 44.5027 170.552 44.7097 170.522 44.9166C170.501 45.1238 170.483 45.2878 170.467 45.4085L174.545 39.7485L175.947 39.8111L175.529 46.7666L174.464 46.719L174.71 42.6184C174.719 42.48 174.73 42.2983 174.743 42.0734C174.765 41.8489 174.787 41.6286 174.809 41.4128C174.831 41.1882 174.85 41.0199 174.865 40.9078L170.814 46.556L169.399 46.4928L169.817 39.5374L170.895 39.5855L170.64 43.8289ZM182.279 40.0939L183.526 40.1496L180.351 43.3647L183.354 47.116L182.03 47.0568L179.099 43.3869L178.887 46.9165L177.744 46.8655L178.162 39.9101L179.305 39.9611L179.102 43.335L182.279 40.0939Z" fill="#07335E"/>
</svg>
