<svg width="455" height="594" viewBox="0 0 455 594" fill="none" xmlns="http://www.w3.org/2000/svg">
<path d="M444.334 152.486L409.096 138.389C403.841 136.287 398.125 140.157 398.125 145.817V245C398.125 249.418 401.707 253 406.125 253H429.519C430.532 253 431.536 252.807 432.478 252.433L442.018 248.634C443.511 248.04 444.79 247.01 445.689 245.678L453.63 233.916C454.523 232.594 455 231.035 455 229.439V172.214C455 171.063 454.752 169.926 454.273 168.881L448.635 156.58C447.78 154.714 446.24 153.248 444.334 152.486Z" fill="#2B5781"/>
<path d="M12.6662 152.486L47.9036 138.389C53.1585 136.287 58.875 140.157 58.875 145.817V245C58.875 249.418 55.2933 253 50.875 253H27.4814C26.468 253 25.4637 252.807 24.5221 252.433L14.9819 248.634C13.4891 248.04 12.21 247.01 11.3109 245.678L3.36967 233.916C2.47698 232.594 2 231.035 2 229.439V172.214C2 171.063 2.24813 169.926 2.72747 168.881L8.36509 156.58C9.22038 154.714 10.7603 153.248 12.6662 152.486Z" fill="#2B5781"/>
<path d="M12.9195 378.506L49.11 364.291C54.3581 362.23 60.0347 366.099 60.0347 371.737V471C60.0347 475.418 56.4529 479 52.0347 479H28.0054C27.0087 479 26.0209 478.814 25.0927 478.451L15.2827 474.616C13.792 474.033 12.5104 473.017 11.6035 471.698L3.51456 459.935C2.59742 458.601 2.10642 457.021 2.10642 455.402V398.243C2.10642 397.074 2.36276 395.919 2.85738 394.859L8.59515 382.568C9.46264 380.71 11.0107 379.255 12.9195 378.506Z" fill="#2B5781"/>
<path d="M444.334 378.486L409.096 364.389C403.841 362.287 398.125 366.157 398.125 371.817V471C398.125 475.418 401.707 479 406.125 479H429.519C430.532 479 431.536 478.807 432.478 478.433L442.018 474.634C443.511 474.04 444.79 473.01 445.689 471.678L453.63 459.916C454.523 458.594 455 457.035 455 455.439V398.214C455 397.063 454.752 395.926 454.273 394.881L448.635 382.58C447.78 380.714 446.24 379.248 444.334 378.486Z" fill="#2B5781"/>
<rect x="56.875" y="81" width="342.303" height="513" rx="20" fill="#2B5781"/>
<path d="M331.25 80.5C331.25 98.6201 320.887 116.004 302.157 129.259C283.451 142.497 257.088 151 227.5 151C197.912 151 171.549 142.497 152.843 129.259C134.113 116.004 123.75 98.6201 123.75 80.5C123.75 62.3799 134.113 44.9959 152.843 31.7406C171.549 18.5028 197.912 10 227.5 10C257.088 10 283.451 18.5028 302.157 31.7406C320.887 44.9959 331.25 62.3799 331.25 80.5Z" stroke="#2B5781" stroke-width="20"/>
</svg>
