<svg width="165" height="94" viewBox="0 0 165 94" fill="none" xmlns="http://www.w3.org/2000/svg">
<path d="M0.0144989 70.9022C1.10951 50.4447 16.1772 29.9121 26.6248 11.8325C22.1506 9.6276 14.5289 6.99291 13.625 3.00179C13.4165 2.08133 27.6273 -0.0430265 28.9879 0.000663823C30.7755 0.0580647 30.4647 2.36378 30.974 3.33003C31.9849 5.24817 34.2369 5.7934 35.9976 7.12833C38.6926 9.17154 39.7862 11.2929 41.8974 13.5526C43.9641 15.7647 44.4521 17.6417 47.0963 19.4611C51.4278 22.4415 56.8182 23.1674 62.284 24.1034C78.9085 26.9505 97.274 28.9158 113.221 33.7164C130.063 38.7864 137.512 55.3601 134.25 69.0265C131.526 80.4405 124.173 89.3292 110.184 92.7541C102.243 94.698 91.9957 94.0801 84.014 92.8479C61.7684 89.4137 39.6348 96.0942 17.6556 88.2524C9.26353 85.2583 -0.426207 79.1356 0.0144989 70.9022Z" fill="#961B56"/>
<path d="M27 10.9461C28.3677 11.0351 29.8021 11.0558 31.068 10.6713C31.7934 10.4509 32.4616 10.0996 33.0444 9.7551C33.4776 9.49907 34.0085 9.28863 34.3412 8.97634C34.9508 8.40409 35 7.66884 35 7" stroke="black" stroke-linecap="round" stroke-linejoin="round"/>
<path d="M26.4 11C25.823 12.9817 25.4619 14.1302 24.9874 16.0942C24.6153 17.634 24.4349 19.2131 23.9707 20.7382C23.6212 21.8865 22.9763 22.7821 21.3808 22.149C20.19 21.6765 19.9131 20.1382 20.0216 19.1902C20.2235 17.427 22.4707 15.9409 24.0991 14.9622C24.7547 14.5682 25.4005 13.7218 25.5332 13.084C25.6007 12.7594 25.9333 12.4258 26.095 12.1278C26.2499 11.8424 26.2986 10.9363 26.4214 11.2316C26.5089 11.4418 26.4982 11.6709 26.5178 11.8919C26.6094 12.9269 26.6234 13.964 26.5713 15.0008C26.5091 16.236 26.1743 17.2938 25.8275 18.4827C25.6375 19.1341 25.4254 19.7389 25.4583 20.408C25.5144 21.5496 25.609 22.6868 25.6241 23.8299C25.6407 25.0805 25.6389 26.321 25.8863 27.5605C25.9381 27.8196 26.1019 28.5597 26.2823 28.8469C26.5642 29.2959 26.9646 28.6267 27.0636 28.4996C28.2878 26.9274 29.2851 25.0556 28.9257 23.161C28.8178 22.5922 28.6145 22.3988 28.3371 21.9174C27.9168 21.1881 27.7944 20.4527 27.6736 19.6576C27.4837 18.4079 27.4595 17.1806 27.4595 15.927C27.4595 15.3707 27.6276 14.6589 27.4488 14.1217C27.3905 13.9463 27.2322 13.8086 27.192 13.6243C27.1053 13.2263 27.1374 12.8232 26.9833 12.4322C26.7895 11.9404 26.6446 11.4899 26.4 11Z" stroke="black" stroke-linecap="round" stroke-linejoin="round"/>
<path d="M43.96 62.97C43.7467 63.4433 43.53 63.84 43.31 64.16C43.0967 64.4733 42.8433 64.71 42.55 64.87C42.2567 65.0233 41.8833 65.1 41.43 65.1C41.2433 65.1 41.0667 65.0867 40.9 65.06C40.74 65.0333 40.5933 64.9967 40.46 64.95V64.06C40.5933 64.12 40.7367 64.17 40.89 64.21C41.0433 64.2433 41.2033 64.26 41.37 64.26C41.7433 64.26 42.0367 64.18 42.25 64.02C42.47 63.86 42.6733 63.5767 42.86 63.17L40.11 57.86H41.1L43.09 61.79C43.1233 61.8567 43.1633 61.9433 43.21 62.05C43.2567 62.15 43.2967 62.2467 43.33 62.34H43.37C43.3967 62.2667 43.43 62.18 43.47 62.08C43.51 61.9733 43.5433 61.8867 43.57 61.82L45.29 57.86H46.24L43.96 62.97ZM50.2602 59.64H51.2202L48.9302 62.22L51.4102 65H50.3902L47.9702 62.28V65H47.0902V59.64H47.9702V62.24L50.2602 59.64ZM54.9332 59.54C55.5932 59.54 56.1232 59.77 56.5232 60.23C56.9299 60.69 57.1332 61.3833 57.1332 62.31C57.1332 63.2233 56.9299 63.9167 56.5232 64.39C56.1232 64.8633 55.5899 65.1 54.9232 65.1C54.5099 65.1 54.1665 65.0233 53.8932 64.87C53.6265 64.71 53.4165 64.5267 53.2632 64.32H53.2032C53.2165 64.4333 53.2299 64.5767 53.2432 64.75C53.2565 64.9233 53.2632 65.0733 53.2632 65.2V67.4H52.3832V59.64H53.1032L53.2232 60.37H53.2632C53.4232 60.1367 53.6332 59.94 53.8932 59.78C54.1532 59.62 54.4999 59.54 54.9332 59.54ZM54.7732 60.28C54.2265 60.28 53.8399 60.4333 53.6132 60.74C53.3932 61.0467 53.2765 61.5133 53.2632 62.14V62.31C53.2632 62.97 53.3699 63.48 53.5832 63.84C53.8032 64.1933 54.2065 64.37 54.7932 64.37C55.1199 64.37 55.3865 64.28 55.5932 64.1C55.8065 63.92 55.9632 63.6767 56.0632 63.37C56.1699 63.0567 56.2232 62.7 56.2232 62.3C56.2232 61.6867 56.1032 61.1967 55.8632 60.83C55.6299 60.4633 55.2665 60.28 54.7732 60.28ZM60.5655 59.55C61.2189 59.55 61.7022 59.6933 62.0155 59.98C62.3289 60.2667 62.4855 60.7233 62.4855 61.35V65H61.8455L61.6755 64.24H61.6355C61.4022 64.5333 61.1555 64.75 60.8955 64.89C60.6422 65.03 60.2889 65.1 59.8355 65.1C59.3489 65.1 58.9455 64.9733 58.6255 64.72C58.3055 64.46 58.1455 64.0567 58.1455 63.51C58.1455 62.9767 58.3555 62.5667 58.7755 62.28C59.1955 61.9867 59.8422 61.8267 60.7155 61.8L61.6255 61.77V61.45C61.6255 61.0033 61.5289 60.6933 61.3355 60.52C61.1422 60.3467 60.8689 60.26 60.5155 60.26C60.2355 60.26 59.9689 60.3033 59.7155 60.39C59.4622 60.47 59.2255 60.5633 59.0055 60.67L58.7355 60.01C58.9689 59.8833 59.2455 59.7767 59.5655 59.69C59.8855 59.5967 60.2189 59.55 60.5655 59.55ZM60.8255 62.41C60.1589 62.4367 59.6955 62.5433 59.4355 62.73C59.1822 62.9167 59.0555 63.18 59.0555 63.52C59.0555 63.82 59.1455 64.04 59.3255 64.18C59.5122 64.32 59.7489 64.39 60.0355 64.39C60.4889 64.39 60.8655 64.2667 61.1655 64.02C61.4655 63.7667 61.6155 63.38 61.6155 62.86V62.38L60.8255 62.41ZM71.411 59.64V65H64.141V59.64H65.021V64.26H67.331V59.64H68.211V64.26H70.531V59.64H71.411ZM75.1954 59.54C75.6554 59.54 76.0487 59.64 76.3754 59.84C76.7087 60.04 76.9621 60.3233 77.1354 60.69C77.3154 61.05 77.4054 61.4733 77.4054 61.96V62.49H73.7354C73.7487 63.0967 73.9021 63.56 74.1954 63.88C74.4954 64.1933 74.9121 64.35 75.4454 64.35C75.7854 64.35 76.0854 64.32 76.3454 64.26C76.6121 64.1933 76.8854 64.1 77.1654 63.98V64.75C76.8921 64.87 76.6221 64.9567 76.3554 65.01C76.0887 65.07 75.7721 65.1 75.4054 65.1C74.8987 65.1 74.4487 64.9967 74.0554 64.79C73.6687 64.5833 73.3654 64.2767 73.1454 63.87C72.9321 63.4567 72.8254 62.9533 72.8254 62.36C72.8254 61.7733 72.9221 61.27 73.1154 60.85C73.3154 60.43 73.5921 60.1067 73.9454 59.88C74.3054 59.6533 74.7221 59.54 75.1954 59.54ZM75.1854 60.26C74.7654 60.26 74.4321 60.3967 74.1854 60.67C73.9454 60.9367 73.8021 61.31 73.7554 61.79H76.4854C76.4787 61.3367 76.3721 60.97 76.1654 60.69C75.9587 60.4033 75.6321 60.26 75.1854 60.26ZM79.6499 59.64V61.87H82.5599V59.64H83.4399V65H82.5599V62.61H79.6499V65H78.7699V59.64H79.6499ZM85.9671 62.91C85.9671 62.99 85.9638 63.11 85.9571 63.27C85.9504 63.43 85.9404 63.59 85.9271 63.75C85.9204 63.91 85.9138 64.0367 85.9071 64.13L88.7771 59.64H89.8571V65H89.0371V61.84C89.0371 61.7333 89.0371 61.5933 89.0371 61.42C89.0438 61.2467 89.0504 61.0767 89.0571 60.91C89.0638 60.7367 89.0704 60.6067 89.0771 60.52L86.2271 65H85.1371V59.64H85.9671V62.91ZM91.8929 65H90.8729L92.4029 62.75C92.1962 62.6967 91.9962 62.6133 91.8029 62.5C91.6096 62.38 91.4529 62.2167 91.3329 62.01C91.2129 61.7967 91.1529 61.5333 91.1529 61.22C91.1529 60.7067 91.3262 60.3167 91.6729 60.05C92.0196 59.7767 92.4796 59.64 93.0529 59.64H95.4529V65H94.5729V62.87H93.2729L91.8929 65ZM92.0029 61.23C92.0029 61.5367 92.1162 61.7667 92.3429 61.92C92.5762 62.0667 92.8996 62.14 93.3129 62.14H94.5729V60.37H93.1429C92.7362 60.37 92.4429 60.45 92.2629 60.61C92.0896 60.77 92.0029 60.9767 92.0029 61.23Z" fill="#DAD8D8"/>
</svg>
