<svg width="51" height="107" viewBox="0 0 51 107" fill="none" xmlns="http://www.w3.org/2000/svg">
<path d="M18.9601 9.42095L19.0854 9.46707C19.3296 9.55695 19.5922 9.59585 19.8579 9.58152L30.6775 8.99771C30.987 8.98101 31.2897 8.86936 31.5445 8.6779C31.9496 8.37362 32.1931 7.89913 32.1969 7.40662L32.2113 5.55911C32.2199 4.45458 31.3327 3.60742 30.2298 3.66693L19.774 4.23111C18.671 4.29062 17.7699 5.23427 17.7613 6.33881L17.7511 7.64321C17.7448 8.44837 18.2213 9.14901 18.9601 9.42095Z" fill="#59D8FC"/>
<path d="M16.1287 6.15683C16.1266 5.99301 16.1249 5.82935 16.1237 5.6659C16.4154 5.10201 16.3757 4.47319 16.6543 3.95027C16.6796 3.90272 16.7455 3.83338 16.8313 3.75398C17.0326 3.34725 17.2726 3.06843 17.5586 3.05166C17.7189 3.04225 17.1435 3.46486 16.8313 3.75398C16.5066 4.40983 16.2826 5.39826 16.1287 6.15683C16.1353 6.6858 16.1451 7.21634 16.1465 7.74606C16.681 7.03759 17.3192 6.39129 17.3192 5.42299C17.3192 4.70375 17.4601 3.2828 17.9309 2.71468C18.3621 2.19434 19.4517 2.32943 20.0719 2.15305C21.0238 1.88231 21.933 1.9284 22.9176 1.9284C24.0507 1.9284 25.1537 1.70374 26.282 1.70374C27.4008 1.70374 29.1242 0.620213 30.1251 1.14211C31.2594 1.73356 32.109 3.33678 32.1597 4.5743C32.2258 6.18673 33.0202 7.7493 33.1171 9.34192C33.2299 11.1944 37.4707 10.8972 38.8618 11.5884C40.4141 12.3597 42.047 13.8273 42.6916 15.3576C43.5608 17.421 44.5688 19.5734 45.2049 21.7228C45.4718 22.6245 45.6453 23.6838 45.7988 24.6214L45.8166 24.7306C45.9154 25.333 46.2821 25.9254 46.2821 26.5403C46.2821 28.1961 47.1491 29.8241 47.4656 31.4577C47.7644 33.0003 48.197 34.4942 48.197 36.0756V47.408C48.197 49.9248 49.3109 52.2833 49.3938 54.7716C49.43 55.8593 49.8725 56.747 49.8725 57.8668V60.7873V77.5239V85.6114C49.8725 87.6606 50.168 89.9602 49.8592 91.9891C49.4493 94.6822 48.9783 98.0857 47.6651 100.551C47.0048 101.79 46.148 101.803 45.0321 102.448C44.0016 103.043 42.4482 103.865 41.2555 103.921C38.9629 104.028 36.9705 104.808 34.8193 105.593C33.1301 106.21 31.1835 105.942 29.3937 105.942C25.3431 105.942 21.373 105.907 17.4655 105.044C14.569 104.404 11.6907 103.117 8.64896 103.022C4.57821 102.895 4.70687 97.8425 4.10107 95.284C3.58296 93.0957 3.67554 90.878 3.67554 88.6317C3.67554 86.6459 3.43618 84.6877 3.43618 82.6909C3.43618 79.723 2.95745 76.7899 2.95745 73.8421C2.95745 73.4309 3.22166 71.1347 2.82447 70.9216C2.2949 70.6376 2 71.1484 2 70.3351V50.8527V45.823V42.7028C2 41.6507 2.47873 40.6352 2.47873 39.5702C2.47873 38.3655 2.01441 35.6674 2.83777 34.7401C3.20393 34.3277 2.87755 33.4549 3.07713 32.9304C3.37005 32.1607 3.67554 31.28 3.67554 30.4593C3.67554 28.9145 3.67608 27.6628 4.63299 26.3656C5.41831 25.3009 5.67336 24.2132 6.12235 22.9958C6.90206 20.8817 7.8989 18.2805 9.6596 16.5308C10.5707 15.6253 11.863 15.1368 12.7713 14.2843C13.3724 13.7201 14.0815 12.7056 14.5 12.0378C15.1044 11.0734 16.0695 10.4092 16.1224 9.1672C16.1425 8.6953 16.1478 8.22101 16.1465 7.74606C15.9788 7.9684 15.8212 8.19686 15.6969 8.44332C15.6336 8.56855 15.472 9.04277 15.324 9.49567C15.2573 9.72919 15.1871 9.96092 15.1117 10.1906C14.9209 10.7728 15.1079 10.1569 15.324 9.49567C15.5477 8.71287 15.732 7.90987 15.9362 7.0954C15.9831 6.90826 16.0457 6.56598 16.1287 6.15683Z" fill="#148EAF"/>
<path d="M16.1224 5.29818C16.1224 6.58234 16.1771 7.88363 16.1224 9.1672C16.0695 10.4092 15.1044 11.0734 14.5 12.0378C14.0815 12.7056 13.3724 13.7201 12.7713 14.2843C11.863 15.1368 10.5707 15.6253 9.6596 16.5308C7.8989 18.2805 6.90206 20.8817 6.12236 22.9958C5.67336 24.2132 5.41831 25.3009 4.63299 26.3656C3.67608 27.6628 3.67554 28.9145 3.67554 30.4593C3.67554 31.28 3.37005 32.1607 3.07713 32.9304C2.87755 33.4549 3.20393 34.3277 2.83777 34.7401C2.01441 35.6674 2.47873 38.3655 2.47873 39.5702C2.47873 40.6352 2 41.6507 2 42.7028C2 43.7429 2 44.7829 2 45.823C2 47.4996 2 49.1761 2 50.8527C2 57.3468 2 63.8409 2 70.3351C2 71.1484 2.2949 70.6376 2.82447 70.9216C3.22166 71.1347 2.95745 73.4309 2.95745 73.8421C2.95745 76.7899 3.43618 79.723 3.43618 82.6909C3.43618 84.6877 3.67554 86.6459 3.67554 88.6317C3.67554 90.878 3.58296 93.0957 4.10107 95.2839C4.70687 97.8425 4.57821 102.895 8.64896 103.022C11.6907 103.117 14.569 104.404 17.4655 105.044C21.373 105.907 25.3431 105.942 29.3937 105.942C31.1835 105.942 33.1301 106.21 34.8193 105.593C36.9705 104.808 38.9629 104.028 41.2555 103.921C42.4482 103.865 44.0016 103.043 45.0321 102.448C46.148 101.803 47.0048 101.79 47.6651 100.551C48.9783 98.0857 49.4493 94.6822 49.8592 91.9891C50.168 89.9602 49.8725 87.6606 49.8725 85.6114C49.8725 82.9156 49.8725 80.2198 49.8725 77.5239C49.8725 71.9451 49.8725 66.3662 49.8725 60.7873C49.8725 59.8138 49.8725 58.8403 49.8725 57.8668C49.8725 56.747 49.43 55.8593 49.3938 54.7716C49.3109 52.2833 48.197 49.9248 48.197 47.408C48.197 43.6305 48.197 39.853 48.197 36.0756C48.197 34.4942 47.7644 33.0003 47.4656 31.4577C47.1491 29.8241 46.2821 28.1961 46.2821 26.5403C46.2821 25.9254 45.9154 25.333 45.8166 24.7306C45.6586 23.7667 45.4822 22.6597 45.2049 21.7228C44.5688 19.5734 43.5608 17.421 42.6916 15.3576C42.047 13.8273 40.4141 12.3597 38.8618 11.5884C37.4707 10.8972 33.2299 11.1944 33.1171 9.34193C33.0202 7.7493 32.2258 6.18673 32.1597 4.5743C32.109 3.33678 31.2594 1.73356 30.1251 1.14211C29.1242 0.620213 27.4008 1.70374 26.282 1.70374C25.1537 1.70374 24.0507 1.9284 22.9176 1.9284C21.933 1.9284 21.0238 1.88231 20.0719 2.15305C19.4517 2.32943 18.3621 2.19434 17.9309 2.71468C17.4601 3.2828 17.3192 4.70375 17.3192 5.42299C17.3192 6.69518 16.2176 7.41152 15.6969 8.44332C15.5414 8.75141 14.7902 11.1715 15.1117 10.1906C15.4395 9.19096 15.6711 8.15284 15.9362 7.0954C16.1241 6.34613 16.5628 3.11007 17.5586 3.05166C17.763 3.03967 16.7719 3.7296 16.6543 3.95027C16.3454 4.53006 16.4278 5.24002 16.016 5.84733C15.7103 6.29821 15.9683 6.93216 15.7633 7.43238C15.5381 7.9821 15.4985 8.55524 15.2846 9.11727C15.0029 9.85761 15.1274 10.1463 14.5665 10.7897C14.3075 11.0869 13.8774 11.6365 13.7288 11.9504C12.7202 14.0801 9.85008 15.2746 8.70215 17.4294" stroke="#148EAF" stroke-linecap="round" stroke-linejoin="round"/>
<path d="M17 5C16.5151 6.39157 16.5 7.40315 16.5 8.85778C16.5 10.0273 16 10.9433 16 12" stroke="#148EAF" stroke-linecap="round" stroke-linejoin="round"/>
<path d="M2 70C2 73.741 2 77.4819 2 81.2229C2 83.471 2.90548 85.4657 3.54074 87.5194C3.9446 88.8251 4.0117 89.7707 4.66667 91.0602C5.03645 91.7883 5.73999 92.4596 6 93" stroke="#148EAF" stroke-linecap="round" stroke-linejoin="round"/>
<path d="M3.30411 84.8804C3.03086 83.7042 2.41302 82.9758 2.41302 81.7932C2.41302 80.9721 2.41302 80.1509 2.41302 79.3297C2.41302 77.8641 2.41302 76.3985 2.41302 74.9329C2.41302 73.5245 2.41302 72.116 2.41302 70.7076C2.41302 69.9592 2.41302 69.2108 2.41302 68.4624C2.41302 67.1747 2.11598 68.9422 2.11598 69.3511C2.11598 72.8582 1.81895 76.3738 1.81895 79.969C1.81895 81.5694 1.93442 83.0558 2.11598 84.5997C2.19629 85.2826 2.71005 85.8554 2.71005 86.5643C2.71005 87.0745 2.44664 88.5063 2.75956 88.9498C4.09051 90.8361 3.62495 87.3123 3.46913 86.8917C3.14108 86.0061 2.60589 85.069 2.39652 84.1788C2.32692 83.8828 1.56117 82.4605 1.53842 82.5572C1.33637 83.4163 1.52192 84.5568 1.52192 85.4417C1.52192 87.2714 2.11598 89.0785 2.11598 90.9923C2.11598 92.9384 2.11598 94.9063 2.11598 96.808C2.11598 98.5 3.93903 100.036 5.06981 101.283C5.83744 102.129 7.21431 101.719 8.18865 101.719C8.6673 101.719 11.1432 102 9.6078 102C7.31251 102 6.4876 101.125 5.10281 99.5989C4.59218 99.036 3.79651 98.4104 3.61765 97.6499C3.39899 96.7202 3.5329 96.1816 3.07309 95.2644C2.50958 94.1404 3.33102 92.4704 2.94107 91.2729C2.38017 89.5506 2.41302 87.9485 2.41302 86.1433C2.41302 83.3007 2.11598 85.9542 2.11598 87.2659C2.11598 88.8068 1.88334 90.567 2.18199 92.0837C2.50281 93.713 2.41302 95.3547 2.41302 97.0107C2.41302 98.209 3.82293 98.7857 4.42624 99.7548C4.88294 100.488 4.19521 98.5334 4.19521 98.2112C4.19521 97.8927 4.39384 96.3531 3.88168 96.4338C2.78912 96.6058 3.68882 98.6208 3.07309 96.73C2.95938 96.3809 2.41302 94.7434 2.41302 96.1064C2.41302 97.2459 2.41302 98.0693 2.41302 96.387C2.41302 96.0053 1.66382 94.0608 1.53842 94.594C1.41837 95.1044 1.24384 96.935 1.67044 97.3381C2.68328 98.2951 1.22489 94.6532 1.22489 93.2999C1.22489 90.7885 0.485971 86.8692 1.68694 84.5997C2.04955 83.9145 2.31686 83.1606 2.71005 82.5104C2.90205 82.193 4.8277 82.0739 5.25133 82.0739C7.61547 82.0739 7.37482 86.5924 7.82561 88.0299C8.32389 89.6188 9.24293 91.5033 11.093 91.8966C14.8374 92.6926 17.6024 91.7647 20.0534 88.9342C21.0656 87.7654 21.2245 86.4094 21.9016 85.1298C22.7093 83.6036 23.4929 81.7754 22.6112 80.1093" stroke="#148EAF" stroke-linecap="round" stroke-linejoin="round"/>
<path d="M17 3C16.3711 3.14426 15.9126 3.68534 15.5462 4.15054C15.2439 4.53438 14.7976 4.77127 14.4795 5.13642C14.0302 5.65213 13.5752 6.16515 13.111 6.66614C12.6616 7.15115 12.413 7.74507 12.1502 8.32587C11.871 8.94294 11.5452 9.56106 11.3162 10.1936C11.1455 10.6651 10.9277 11.1273 10.7379 11.5933C10.5639 12.0207 10.5033 12.5028 10.4061 12.9497C10.333 13.2858 10.2905 13.6225 10.2172 13.9573C10.1882 14.0897 10.1581 14.3952 10.0744 14.5054C9.95288 14.6654 10.03 15.0393 10.0007 15.2291C9.94798 15.5697 10.0003 15.9345 9.99144 16.2778C9.98741 16.4331 9.93418 16.5862 9.89928 16.7372C9.80978 17.1244 9.71003 17.5103 9.6205 17.8986C9.4951 18.4424 9.3747 18.9847 9.3256 19.5388C9.30023 19.8251 9.20349 20.1314 9.20349 20.4142C9.20349 20.5735 9.18836 20.752 9.03761 20.8432C8.8569 20.9524 8.6485 21.0078 8.43398 21.0187C8.3653 21.0222 8.00639 21.125 8.00084 21.2137C7.99014 21.3848 8.08401 21.4795 8.16672 21.6254C8.28772 21.8388 8.41507 22.0786 8.45471 22.3209C8.48833 22.5264 8.53941 22.7496 8.71045 22.8821C8.81176 22.9606 8.82284 23.0332 8.98001 22.9839C9.09515 22.9478 9.23184 22.8832 9.3279 22.8431C9.50237 22.7702 9.57673 22.4855 9.57673 22.3274C9.57673 22.1299 9.70114 21.938 9.70114 21.7229C9.70114 21.6095 9.74344 21.3919 9.59055 21.361C9.19595 21.2815 8.97129 21.4751 8.92241 21.8377C8.91281 21.9089 8.76224 22.6336 9.033 22.3426C9.17264 22.1925 9.30175 21.371 9.01457 21.2939C8.89567 21.2619 8.86077 22.1566 8.92241 22.2667C9.06495 22.5214 9.46401 21.8152 9.1528 21.8377C8.9838 21.85 9.04831 22.2319 8.99614 22.2841C8.91158 22.3686 9.01161 22.538 9.033 22.4726C9.06008 22.3898 9.07968 22.1497 8.95467 22.1497" stroke="#107591" stroke-linecap="round" stroke-linejoin="round"/>
<path d="M15 4C14.7219 4.55715 14.3663 5.13688 14.2186 5.7356C14.1486 6.01905 14.106 6.3068 14.033 6.59051C13.832 7.37136 13.66 8.15115 13.5055 8.94044C13.3461 9.75521 13.086 10.5653 12.8901 11.3763C12.6968 12.1764 12.486 12.9672 12.2845 13.7649C12.1473 14.3081 12.2992 14.8987 12.177 15.436C12.0999 15.7752 12.0989 16.0972 12.0989 16.4499C12.0989 16.543 12.0989 16.6361 12.0989 16.7292C12.0989 16.9163 12.0699 16.7754 11.9866 16.9139C11.8104 17.2066 11.8791 17.6199 11.8791 17.9406C11.8791 18.4302 11.7012 18.952 11.5714 19.4249C11.462 19.8237 11.3516 20.177 11.3516 20.587C11.3516 20.7037 11.276 20.8204 11.2662 20.9414C11.2428 21.2294 11.3007 21.5262 11.2393 21.8114C11.1369 22.2874 11 22.7327 11 23.2183C11 24.1455 11 25.0728 11 26" stroke="#107591" stroke-linecap="round" stroke-linejoin="round"/>
<path d="M11.8301 26.1525C11.6213 26.1834 11.5082 26.2325 11.3339 26.3148C11.2639 26.3479 11.1471 26.3007 11.0883 26.3386C10.9264 26.4429 11.0218 26.5404 11.1006 26.6533C11.2014 26.7978 11.3133 26.838 11.4764 26.9225C11.6608 27.018 11.7523 27.2819 11.7958 27.4431C11.8117 27.502 11.9642 27.9548 12.0316 27.9261C12.0949 27.8991 12.2302 27.7043 12.287 27.6569C12.4173 27.5483 12.5074 27.3903 12.599 27.259C12.6916 27.1264 12.7035 26.9224 12.7783 26.776C12.861 26.6143 12.9403 26.4123 12.9896 26.2436C13.0578 26.01 12.7779 26.01 12.5278 26.01C12.3013 26.01 12.0537 25.9862 11.8301 26.012C11.7932 26.0162 11.4813 26.2903 11.4813 26.3148C11.4813 26.5845 12.1766 26.269 12.1839 26.5801C12.1865 26.6909 11.9283 27.257 12.1495 27.257C12.3306 27.257 12.3607 27.174 12.3607 27.0512C12.3607 27.0198 12.322 26.6053 12.2109 26.7147C12.1459 26.7786 12.1839 26.9679 12.1839 27.0373C12.1839 27.2491 12.1839 27.4609 12.1839 27.6727C12.1839 27.7215 12.1333 28.1454 12.292 27.9479C12.3852 27.8318 12.3423 27.3581 12.3165 27.3996" stroke="#107591" stroke-linecap="round" stroke-linejoin="round"/>
<path d="M14.9902 66V57.4688H17.7793C18.7051 57.4688 19.4004 57.6602 19.8652 58.043C20.334 58.4258 20.5684 58.9922 20.5684 59.7422C20.5684 60.1406 20.4551 60.4941 20.2285 60.8027C20.002 61.1074 19.6934 61.3438 19.3027 61.5117C19.7637 61.6406 20.127 61.8867 20.3926 62.25C20.6621 62.6094 20.7969 63.0391 20.7969 63.5391C20.7969 64.3047 20.5488 64.9062 20.0527 65.3438C19.5566 65.7812 18.8555 66 17.9492 66H14.9902ZM16.1152 62.0098V65.0801H17.9727C18.4961 65.0801 18.9082 64.9453 19.209 64.6758C19.5137 64.4023 19.666 64.0273 19.666 63.5508C19.666 62.5234 19.1074 62.0098 17.9902 62.0098H16.1152ZM16.1152 61.1074H17.8145C18.3066 61.1074 18.6992 60.9844 18.9922 60.7383C19.2891 60.4922 19.4375 60.1582 19.4375 59.7363C19.4375 59.2676 19.3008 58.9277 19.0273 58.7168C18.7539 58.502 18.3379 58.3945 17.7793 58.3945H16.1152V61.1074ZM22.0098 62.7715C22.0098 62.1504 22.1309 61.5918 22.373 61.0957C22.6191 60.5996 22.959 60.2168 23.3926 59.9473C23.8301 59.6777 24.3281 59.543 24.8867 59.543C25.75 59.543 26.4473 59.8418 26.9785 60.4395C27.5137 61.0371 27.7812 61.832 27.7812 62.8242V62.9004C27.7812 63.5176 27.6621 64.0723 27.4238 64.5645C27.1895 65.0527 26.8516 65.4336 26.4102 65.707C25.9727 65.9805 25.4688 66.1172 24.8984 66.1172C24.0391 66.1172 23.3418 65.8184 22.8066 65.2207C22.2754 64.623 22.0098 63.832 22.0098 62.8477V62.7715ZM23.0996 62.9004C23.0996 63.6035 23.2617 64.168 23.5859 64.5938C23.9141 65.0195 24.3516 65.2324 24.8984 65.2324C25.4492 65.2324 25.8867 65.0176 26.2109 64.5879C26.5352 64.1543 26.6973 63.5488 26.6973 62.7715C26.6973 62.0762 26.5312 61.5137 26.1992 61.084C25.8711 60.6504 25.4336 60.4336 24.8867 60.4336C24.3516 60.4336 23.9199 60.6465 23.5918 61.0723C23.2637 61.498 23.0996 62.1074 23.0996 62.9004ZM28.666 65.1152L29.041 64.6523C29.4629 64.1055 29.7031 63.2852 29.7617 62.1914L29.8613 59.6602H33.9453V65.1152H34.7598V67.8633H33.6758V66H29.252V67.8633H28.168L28.1738 65.1152H28.666ZM29.9492 65.1152H32.8613V60.6621H30.9102L30.8457 62.1738C30.7793 63.4355 30.4805 64.416 29.9492 65.1152ZM39.875 66C39.8125 65.875 39.7617 65.6523 39.7227 65.332C39.2188 65.8555 38.6172 66.1172 37.918 66.1172C37.293 66.1172 36.7793 65.9414 36.377 65.5898C35.9785 65.2344 35.7793 64.7852 35.7793 64.2422C35.7793 63.582 36.0293 63.0703 36.5293 62.707C37.0332 62.3398 37.7402 62.1562 38.6504 62.1562H39.7051V61.6582C39.7051 61.2793 39.5918 60.9785 39.3652 60.7559C39.1387 60.5293 38.8047 60.416 38.3633 60.416C37.9766 60.416 37.6523 60.5137 37.3906 60.709C37.1289 60.9043 36.998 61.1406 36.998 61.418H35.9082C35.9082 61.1016 36.0195 60.7969 36.2422 60.5039C36.4688 60.207 36.7734 59.9727 37.1562 59.8008C37.543 59.6289 37.9668 59.543 38.4277 59.543C39.1582 59.543 39.7305 59.7266 40.1445 60.0938C40.5586 60.457 40.7734 60.959 40.7891 61.5996V64.5176C40.7891 65.0996 40.8633 65.5625 41.0117 65.9062V66H39.875ZM38.0762 65.1738C38.416 65.1738 38.7383 65.0859 39.043 64.9102C39.3477 64.7344 39.5684 64.5059 39.7051 64.2246V62.9238H38.8555C37.5273 62.9238 36.8633 63.3125 36.8633 64.0898C36.8633 64.4297 36.9766 64.6953 37.2031 64.8867C37.4297 65.0781 37.7207 65.1738 38.0762 65.1738Z" fill="white"/>
</svg>
