<svg width="106" height="100" viewBox="0 0 106 100" fill="none" xmlns="http://www.w3.org/2000/svg">
<path d="M1.42268 81.5526C0.636418 77.5122 0.96568 73.2561 1.39364 69.0359C1.64011 55.7975 1.36373 42.5126 1.61087 29.4167C1.64946 27.3719 1.73164 25.23 2.13205 23.1874C2.3743 21.9517 2.73303 20.7523 3.26904 19.6328C3.93697 18.2378 4.27244 17.0329 5.05145 15.7587C5.77024 14.583 6.69238 11.9676 7.78748 11.325C10.5412 9.70929 13.2245 5.51415 16.9177 5.37951C19.0908 5.30029 21.2011 4.41015 23.3011 4.44107C24.9039 4.46468 27.7207 4.39294 29.0384 3.37841C31.3376 1.60823 36.6434 2.57268 39.4854 2.61453C43.7498 2.67734 47.4689 1.69966 51.5845 1.76028C60.9002 1.89748 70.2473 1.00269 79.5933 1.14034C87.4803 1.25649 95.5837 1.4716 101.76 7.14528C103.043 8.32404 104.847 12.2063 104.815 13.9012L104.727 18.5459L104.284 42.0563L103.788 68.3478C103.728 71.4948 102.214 74.5731 101.462 77.6056C101.046 79.2806 99.9079 81.9567 98.9652 83.3907C98.3402 84.3415 98.4335 86.2363 98.1535 87.3652C97.9029 88.3753 97.4558 88.9349 97.0741 89.9017C96.105 92.3571 95.295 92.8712 93.2099 94.7776C90.7547 97.0224 87.346 95.4462 84.4882 96.2552C82.8239 96.7264 82.16 97.196 80.0799 97.1654L73.657 97.0708L61.5774 96.8929C55.674 96.8059 50.1 98.2725 44.2832 98.1869C35.2985 98.0545 26.4773 98.2318 17.6441 96.504C13.0221 95.5999 10.1465 94.5803 6.49626 92.2387C3.46613 90.2948 2.09541 85.0097 1.42268 81.5526Z" fill="#49CA47"/>
<path d="M47.0034 56.1335L41.0269 56.4522L40.2593 45.7697L46.2358 45.451L46.3207 46.633L41.6923 46.8798L41.932 50.2162L46.2908 49.9838L46.3747 51.1508L42.0159 51.3832L42.29 55.1984L46.9184 54.9515L47.0034 56.1335ZM54.5555 47.6807L55.0522 54.5929L56.2206 54.5306L56.5001 58.4206L55.2269 58.4885L55.0269 55.7056L49.4399 56.0036L49.6398 58.7864L48.3816 58.8535L48.1021 54.9635L48.7462 54.9292C49.3671 53.9449 49.804 52.8402 50.0568 51.6152C50.3188 50.3797 50.4104 49.1433 50.3315 47.906L54.5555 47.6807ZM51.5741 48.876C51.5829 49.5564 51.5285 50.2652 51.4111 51.0023C51.2929 51.7295 51.1227 52.4295 50.9004 53.1022C50.6881 53.7743 50.4244 54.3591 50.1093 54.8565L53.779 54.6608L53.3565 48.7809L51.5741 48.876ZM60.3285 47.2377C61.3071 47.1855 62.0465 47.3613 62.5466 47.7652C63.0468 48.1691 63.3305 48.8398 63.3979 49.7774L63.7903 55.2383L62.8317 55.2894L62.4953 54.1659L62.4354 54.1691C62.1174 54.6266 61.7713 54.9705 61.3969 55.2007C61.0325 55.4304 60.5107 55.5634 59.8317 55.5996C59.1027 55.6385 58.485 55.4812 57.9784 55.1277C57.4711 54.7643 57.1881 54.1736 57.1294 53.3557C57.072 52.5578 57.3425 51.9276 57.9408 51.4651C58.5384 50.9927 59.4898 50.7017 60.795 50.592L62.1549 50.4745L62.1205 49.9957C62.0725 49.3274 61.8943 48.8713 61.5861 48.6274C61.2779 48.3836 60.8592 48.2757 60.3299 48.3039C59.9105 48.3263 59.5157 48.4124 59.1456 48.5623C58.7747 48.7023 58.4303 48.8608 58.1122 49.038L57.6368 48.0721C57.9727 47.8639 58.3757 47.6823 58.8457 47.527C59.3149 47.3618 59.8092 47.2654 60.3285 47.2377ZM61.0254 51.4959C60.0297 51.589 59.3471 51.7856 58.9778 52.0857C58.6184 52.3852 58.4569 52.7893 58.4935 53.298C58.5257 53.7468 58.6842 54.0688 58.9689 54.2639C59.2635 54.4584 59.6256 54.5443 60.0549 54.5214C60.734 54.4851 61.2849 54.2705 61.7078 53.8775C62.1299 53.4745 62.313 52.884 62.2571 52.1061L62.2055 51.3879L61.0254 51.4959Z" fill="#07335E"/>
</svg>
