<svg width="1440" height="464" viewBox="0 0 1440 464" fill="none" xmlns="http://www.w3.org/2000/svg">
<path fill-rule="evenodd" clip-rule="evenodd" d="M779.646 259.532C774.498 255.646 769.279 251.81 764.047 247.964C754.715 241.105 745.34 234.213 736.245 226.949C724.265 217.382 711.657 208.097 699.009 198.783C671.332 178.402 643.467 157.882 621.587 133.952C614.809 126.539 603.949 120.574 593.819 115.01C590.515 113.195 587.288 111.423 584.305 109.656C557.49 93.7762 527.858 80.1751 498.574 66.7342C490.366 62.9668 482.185 59.212 474.102 55.4231C473.599 55.1872 472.497 54.6407 470.931 53.8633C458.435 47.6613 416.338 26.7688 412.2 31.7643C404.233 41.3838 393.298 49.2696 382.514 57.0464L381.484 57.789C353.053 78.3025 320.416 97.8226 289.101 115.753C270.014 126.682 251.795 138.475 233.574 150.27C215.441 162.008 197.307 173.747 178.312 184.637C159.649 195.336 141.957 206.842 124.237 218.367C116.309 223.523 108.376 228.682 100.349 233.774C94.8224 237.28 89.2639 240.689 83.7322 244.082C63.5764 256.444 43.7774 268.588 27.1925 284.367C21.5288 289.756 15.979 295.163 10.45 300.549C-7.93501 318.46 -26.091 336.148 -47.4454 352.206C-54.205 354.918 -59.6286 359.475 -64.7973 364.401C-78.3491 373.338 -92.6177 381.596 -106.99 389.767C-112.068 391.611 -116.733 393.823 -119.662 396.957C-120.062 397.385 -120.429 397.83 -120.761 398.294C-125.481 404.888 -132.179 409.512 -139.06 414.264C-141.921 416.239 -144.813 418.236 -147.609 420.406C-153.959 425.335 -159.84 427.602 -167.04 430.379C-168.834 431.071 -170.711 431.795 -172.697 432.599C-175.237 433.628 -178.717 434.502 -182.428 435.435C-191.179 437.633 -201.222 440.157 -203.296 445.793C-207.734 457.849 -190.173 459.793 -178.804 461.052C-177.584 461.187 -176.436 461.314 -175.394 461.445C-132.013 466.891 -90.586 470.362 -46.6671 470.362C24.6831 470.362 96.2953 470.771 167.954 471.18C239.704 471.59 311.5 472 383.126 472C412.868 472 442.555 471.177 472.234 470.354C499.504 469.597 526.767 468.841 554.058 468.724C591.936 468.562 629.819 468.616 667.701 468.67C686.642 468.697 705.582 468.724 724.521 468.724C734.221 468.724 743.48 467.88 752.793 467.031C758.664 466.496 764.557 465.959 770.595 465.63C784.078 464.896 797.766 465.087 811.391 465.277C817.549 465.363 823.693 465.448 829.8 465.448H955.01C966.215 465.448 977.481 465.588 988.772 465.728C1019.79 466.113 1050.99 466.501 1081.69 464H1274.06H1512.94H1617.54C1622.57 464 1691.19 460.968 1691 460.674C1685.68 452.471 1673.36 444.765 1663.17 438.388C1659.82 436.292 1656.69 434.339 1654.12 432.559C1647.86 428.217 1641.59 423.891 1635.32 419.566C1619.35 408.556 1603.4 397.552 1587.57 386.304C1577.52 379.155 1567.34 372.313 1557.18 365.477C1541.78 355.116 1526.4 344.771 1511.47 333.398C1503.82 327.563 1496.35 321.339 1488.87 315.11C1478.42 306.405 1467.96 297.69 1456.97 290.015C1435.44 274.983 1412.73 261.989 1390 248.989C1367.13 235.904 1344.24 222.813 1322.55 207.633C1316.12 203.134 1309.67 198.693 1303.22 194.257C1279.72 178.077 1256.32 161.963 1234.4 143.39C1232.26 141.579 1230.06 139.804 1227.85 138.023C1219.3 131.131 1210.62 124.136 1205.02 114.518C1197.75 102.061 1184.79 94.642 1172.51 87.6194C1170.39 86.4037 1168.28 85.1998 1166.23 83.9837C1139.85 68.3364 1112.69 54.316 1085.52 40.2899C1070.76 32.6725 1056 25.0533 1041.36 17.171C1040.18 16.5376 1038.15 15.1263 1035.63 13.371C1026.15 6.77145 1009.67 -4.68999 1005.22 2.05504C1003.7 4.35529 1002.81 7.03191 1001.93 9.70533C1001.33 11.5302 1000.73 13.3536 999.927 15.0548C990.974 34.0206 978.99 50.8588 967.048 67.6379C954.83 84.805 942.656 101.91 933.817 121.169C925.008 140.363 920.073 157.602 917.804 178.61C916.681 189.009 913.833 187.144 909.589 184.364C908.129 183.408 906.505 182.344 904.729 181.633C900.966 180.128 877.768 198.187 874.465 201.586C865.882 210.418 855.304 215.941 844.453 221.606C838.48 224.725 832.424 227.886 826.572 231.667C811.251 241.565 795.464 250.581 779.646 259.532Z" fill="#3A6B70"/>
</svg>
