<svg width="1440" height="436" viewBox="0 0 1440 436" fill="none" xmlns="http://www.w3.org/2000/svg">
<path fill-rule="evenodd" clip-rule="evenodd" d="M-259.345 363.648C-247.692 355.366 -236.124 346.996 -225.136 337.937C-220.945 332.944 -216.548 328.325 -211.067 325.576C-193.753 309.3 -179.032 291.371 -164.126 273.217L-164.126 273.216C-159.643 267.756 -155.143 262.276 -150.551 256.815C-137.105 240.821 -121.052 228.512 -104.71 215.981L-104.709 215.981C-100.224 212.542 -95.7177 209.086 -91.237 205.533C-84.7287 200.372 -78.2973 195.143 -71.8704 189.917L-71.8686 189.916C-57.5013 178.235 -43.1565 166.571 -28.0254 155.727C-12.6244 144.689 2.07905 132.79 16.7808 120.893C31.5541 108.938 46.3257 96.9839 61.8016 85.9062C87.1916 67.7318 113.653 47.9461 136.705 27.1535L137.54 26.4008L137.54 26.4006C146.283 18.518 155.15 10.525 161.609 0.7747C164.964 -4.28871 199.095 16.8879 209.227 23.1743C210.497 23.9623 211.39 24.5163 211.798 24.7554C218.352 28.5959 224.985 32.4018 231.64 36.2205C255.383 49.8442 279.409 63.6303 301.15 79.7265C303.568 81.5166 306.184 83.3131 308.863 85.1527L308.864 85.1533C317.078 90.7932 325.882 96.839 331.378 104.353C349.118 128.608 371.71 149.407 394.151 170.066L394.151 170.066L394.151 170.066C404.406 179.507 414.628 188.917 424.341 198.615C430.435 204.7 436.684 210.526 442.94 216.29C521.076 156.846 598.791 96.87 675.178 35.3273C677.892 39.7143 685.3 39.16 691.83 38.6714C693.786 38.5251 695.664 38.3846 697.312 38.3846C699.095 38.3846 700.926 37.9516 702.743 37.5216C705.312 36.9137 707.855 36.3119 710.202 36.9487C712.684 37.6219 714.251 39.0668 715.889 40.5765C716.911 41.519 717.96 42.4868 719.277 43.3077C721.647 44.7854 724.167 46.0562 726.688 47.328C730.623 49.3125 734.561 51.2991 737.942 54.0769C741.935 57.3572 744.172 57.9573 748.182 59.0327C749.041 59.2632 749.982 59.5154 751.039 59.8205C754.777 60.9 757.462 63.4978 760.174 66.1215C761.482 67.3872 762.796 68.659 764.238 69.7692C772.694 76.2806 782.807 80.5283 792.802 84.7267C797.243 86.5918 801.661 88.4473 805.899 90.4872C811.095 92.9879 816.211 95.3486 821.261 97.679C838.497 105.633 854.968 113.235 871.278 124.846C893.349 140.559 917.298 154.796 941.401 167.205C948.408 170.813 955.457 174.337 962.506 177.861C973.257 183.236 984.009 188.611 994.612 194.282C997.782 195.978 1001.12 197.591 1004.5 199.222C1012.45 203.06 1020.6 206.994 1027.2 212.333C1031.11 215.504 1035.01 218.683 1038.89 221.863C1041.46 220.317 1044.01 218.748 1046.55 217.153C1052.96 213.123 1059.39 209.143 1065.81 205.168L1065.82 205.162C1089.26 190.655 1112.61 176.208 1134.48 159.556C1136.61 157.932 1138.8 156.342 1141.01 154.744C1149.53 148.566 1158.19 142.295 1163.78 133.671C1171.03 122.503 1183.97 115.852 1196.21 109.555C1198.33 108.465 1200.43 107.386 1202.47 106.296C1228.79 92.267 1255.88 79.697 1282.99 67.1218L1282.99 67.1205C1297.71 60.2916 1312.44 53.4611 1327.04 46.3947C1328.21 45.8269 1330.24 44.5616 1332.75 42.9881C1342.21 37.0713 1358.65 26.7951 1363.09 32.8424C1364.61 34.9046 1365.49 37.3042 1366.37 39.701C1366.97 41.3372 1367.57 42.9721 1368.37 44.4974C1377.3 61.5013 1389.25 76.5976 1401.17 91.6409C1413.35 107.032 1425.5 122.368 1434.31 139.634C1443.1 156.842 1448.03 172.298 1450.29 191.133C1451.41 200.456 1454.25 198.784 1458.48 196.292C1459.94 195.435 1461.56 194.481 1463.33 193.843C1467.08 192.494 1490.23 208.685 1493.52 211.732C1502.08 219.651 1512.63 224.602 1523.46 229.681C1529.42 232.477 1535.46 235.312 1541.3 238.701C1557.77 248.267 1574.78 256.914 1591.8 265.56L1591.8 265.561C1609.67 274.642 1627.53 283.72 1644.76 293.859C1671.26 309.455 1689.98 322.029 1706.79 333.314C1736.73 353.42 1760.57 369.432 1811.45 391.145C1823 393.816 1837.2 401.558 1849.58 408.309C1853.38 410.38 1857.01 412.358 1860.33 414.068C1861.06 414.444 1862.99 415.242 1865.55 416.303C1877.74 421.351 1904.34 432.364 1885.39 432.364C1872.03 432.364 1859.26 435.411 1846.47 438.46C1834.13 441.403 1821.79 444.348 1808.89 444.561C1794.49 444.798 1780.1 445.243 1765.69 445.689C1744.5 446.344 1723.27 447 1701.91 447H1382.29H1377.74C1381.26 450.568 1384.6 454.286 1387.71 458.18C1398.63 471.867 1386.68 471.137 1374.39 470.387C1373.19 470.314 1371.99 470.24 1370.8 470.18C1355.82 469.419 1340.87 468.486 1325.92 467.553C1298.88 465.865 1271.84 464.178 1244.68 463.513C1149.02 461.17 1053.13 463.002 957.423 464.83C940.63 465.151 923.842 465.471 907.062 465.769C833.401 467.078 759.735 467.216 686.071 467.354C612.23 467.493 538.392 467.632 464.567 468.949C438.732 469.41 412.821 469.265 386.901 469.119C348.936 468.906 310.955 468.693 273.173 470.385C232.326 472.214 191.106 481.147 150.487 489.95C134.903 493.327 119.407 496.685 104.054 499.616C101.684 500.068 98.5021 500.787 94.9829 501.582C80.6118 504.827 60.6175 509.343 67.3428 502.18C78.139 490.68 91.1628 481.583 104.178 472.493C109.979 468.441 115.779 464.39 121.378 460.128C127.13 455.751 132.883 451.375 138.636 447C138.436 447 138.236 447 138.036 447C79.9625 447 21.7507 446.584 -36.4236 446.169L-36.4329 446.169C-94.5296 445.754 -152.589 445.34 -210.436 445.34C-246.045 445.34 -279.633 441.822 -314.806 436.301C-315.651 436.168 -316.582 436.039 -317.571 435.903C-326.789 434.627 -341.028 432.657 -337.43 420.437C-335.747 414.724 -327.605 412.166 -320.51 409.937C-317.5 408.992 -314.68 408.106 -312.62 407.063C-311.01 406.248 -309.489 405.514 -308.034 404.813L-308.033 404.813C-302.195 401.998 -297.428 399.7 -292.278 394.704C-290.012 392.505 -287.667 390.48 -285.348 388.479L-285.347 388.478C-279.768 383.662 -274.338 378.975 -270.511 372.291C-270.242 371.821 -269.944 371.37 -269.619 370.936C-267.244 367.76 -263.462 365.517 -259.345 363.648Z" fill="#3A6B70"/>
</svg>
