<svg width="785" height="130" viewBox="0 0 785 130" fill="none" xmlns="http://www.w3.org/2000/svg">
<path d="M357.575 0.24248C383.287 0.796072 412.587 14.4173 434.422 22.1826C434.824 22.1317 435.233 22.0916 435.651 22.0651C451.538 21.0569 467.118 20.7814 483.443 20.7814H545.43C558.84 20.7814 569.634 22.8874 582.575 23.2775C597.582 23.7298 612.734 23.3488 627.765 23.3488C665.732 23.3488 700.852 30.449 738.254 33.333C758.6 34.9019 763.268 50.0193 761.322 60.5756C759.898 68.3032 745.964 73.1391 762.741 75.3379C771.981 76.5488 787.152 77.6968 784.745 85.6787C782.469 93.2231 747.14 99.4858 736.953 101.653C711.231 107.126 687.175 111.234 660.178 113.777C639.023 115.77 618.893 120.709 597.481 121.978C586.65 122.621 575.465 122.192 564.594 122.192C552.308 122.192 528.262 125.299 519.168 118.341C509.205 110.718 501.487 114.023 485.809 116.059C440.518 121.94 392.859 129.065 346.337 129.823C301.929 130.547 254.976 129.289 212.188 121.55C203.375 119.957 195.716 115.681 187.346 113.064C164.453 105.908 134.907 109.355 109.388 109.355C84.8134 109.355 60.3235 109.137 35.8074 108.001C26.3625 107.563 9.67733 107.076 3.86724 101.368C-4.98517 92.6713 2.6123 77.2684 14.0408 71.1303C32.889 61.0071 60.0872 55.9424 82.8895 50.0208C102.731 44.8681 123.552 47.7178 144.404 45.8132C165.617 43.8756 160.081 29.8735 177.645 26.344C217.481 18.3391 256.024 5.78366 297.953 1.66879C317.394 -0.239072 337.898 -0.181175 357.575 0.24248Z" fill="#DDE6E6"/>
</svg>
