<svg width="275" height="39" viewBox="0 0 275 39" fill="none" xmlns="http://www.w3.org/2000/svg">
<path d="M125.265 0.0727439C134.272 0.238822 144.537 4.32519 152.186 6.65479C152.327 6.6395 152.47 6.62747 152.616 6.61952C158.182 6.31707 163.64 6.23442 169.359 6.23442H191.074C195.772 6.23442 199.553 6.86621 204.087 6.98324C209.344 7.11894 214.652 7.00463 219.918 7.00463C233.218 7.00463 245.522 9.13469 258.624 9.99989C265.752 10.4706 267.387 15.0058 266.705 18.1727C266.206 20.4909 261.325 21.9417 267.202 22.6014C270.439 22.9646 275.754 23.309 274.911 25.7036C274.113 27.9669 261.737 29.8457 258.168 30.496C249.157 32.1379 240.73 33.3702 231.273 34.1331C223.861 34.7309 216.81 36.2126 209.309 36.5935C205.514 36.7862 201.596 36.6577 197.788 36.6577C193.484 36.6577 185.06 37.5898 181.874 35.5024C178.384 33.2153 175.68 34.207 170.188 34.8178C154.321 36.582 137.626 38.7195 121.328 38.9469C105.771 39.164 89.3229 38.7867 74.3334 36.4651C71.2459 35.987 68.5631 34.7042 65.6306 33.9192C57.6109 31.7724 47.2605 32.8066 38.3206 32.8066C29.7117 32.8066 21.1324 32.7412 12.544 32.4002C9.23528 32.2688 3.39015 32.1228 1.35477 30.4104C-1.7464 27.8014 0.915135 23.1805 4.91874 21.3391C11.5216 18.3021 21.0497 16.7827 29.0377 15.0063C35.9887 13.4604 43.2826 14.3153 50.5873 13.744C58.0187 13.1627 56.0794 8.96206 62.2324 7.90321C76.1875 5.50172 89.69 1.7351 104.378 0.500638C111.189 -0.0717217 118.372 -0.0543526 125.265 0.0727439Z" fill="#DDE6E6"/>
</svg>
