<svg width="343" height="26" viewBox="0 0 343 26" fill="none" xmlns="http://www.w3.org/2000/svg">
<path d="M156.24 0.0484959C167.474 0.159214 180.277 2.88346 189.817 4.43653C189.993 4.42634 190.172 4.41831 190.354 4.41302C197.296 4.21138 204.104 4.15628 211.237 4.15628H238.322C244.181 4.15628 248.898 4.57748 254.552 4.65549C261.109 4.74596 267.73 4.66975 274.297 4.66975C290.887 4.66975 306.232 6.08979 322.575 6.66659C331.465 6.98037 333.504 10.0039 332.654 12.1151C332.032 13.6606 325.943 14.6278 333.274 15.0676C337.311 15.3098 343.94 15.5394 342.888 17.1357C341.894 18.6446 326.457 19.8972 322.006 20.3307C310.767 21.4253 300.256 22.2468 288.46 22.7554C279.216 23.154 270.421 24.1417 261.065 24.3957C256.332 24.5241 251.445 24.4385 246.695 24.4385C241.327 24.4385 230.82 25.0599 226.847 23.6683C222.493 22.1435 219.121 22.8047 212.27 23.2118C192.481 24.388 171.657 25.813 151.329 25.9646C131.926 26.1093 111.41 25.8578 92.714 24.3101C88.863 23.9913 85.5169 23.1361 81.8593 22.6128C71.8565 21.1816 58.9467 21.8711 47.7963 21.8711C37.0586 21.8711 26.3579 21.8275 15.6458 21.6001C11.5189 21.5125 4.22844 21.4152 1.68976 20.2736C-2.17823 18.5343 1.14142 15.4537 6.13501 14.2261C14.3706 12.2014 26.2547 11.1885 36.218 10.0042C44.8877 8.97362 53.9852 9.54357 63.0962 9.16264C72.3652 8.77511 69.9464 5.97471 77.6208 5.26881C95.0266 3.66781 111.868 1.15673 130.188 0.333759C138.683 -0.0478145 147.642 -0.0362351 156.24 0.0484959Z" fill="#DDE6E6"/>
</svg>
