<svg width="247" height="38" viewBox="0 0 247 38" fill="none" xmlns="http://www.w3.org/2000/svg">
<path d="M112.511 0.0708787C120.601 0.232698 129.821 4.21429 136.691 6.48416C136.817 6.46926 136.946 6.45754 137.077 6.44979C142.076 6.1551 146.978 6.07456 152.115 6.07456H171.619C175.839 6.07456 179.235 6.69016 183.307 6.80418C188.029 6.9364 192.797 6.82502 197.526 6.82502C209.472 6.82502 220.523 8.90046 232.291 9.74348C238.693 10.2021 240.162 14.621 239.55 17.7067C239.102 19.9655 234.717 21.3791 239.996 22.0219C242.904 22.3758 247.677 22.7114 246.92 25.0445C246.204 27.2498 235.087 29.0805 231.882 29.7141C223.788 31.3139 216.219 32.5146 207.725 33.2579C201.068 33.8404 194.734 35.2841 187.997 35.6552C184.589 35.8429 181.07 35.7178 177.649 35.7178C173.783 35.7178 166.217 36.6259 163.356 34.5921C160.221 32.3636 157.793 33.3299 152.859 33.925C138.609 35.644 123.613 37.7267 108.975 37.9483C95.0019 38.1598 80.2282 37.7922 66.7649 35.5301C63.9917 35.0642 61.5821 33.8143 58.9482 33.0494C51.7451 30.9577 42.4485 31.9655 34.4189 31.9655C26.6865 31.9655 18.9808 31.9017 11.2668 31.5694C8.29496 31.4413 3.04497 31.2992 1.21683 29.6307C-1.56858 27.0885 0.821958 22.5861 4.41792 20.7919C10.3485 17.8328 18.9064 16.3524 26.0812 14.6215C32.3244 13.1153 38.8757 13.9483 45.4366 13.3916C52.1114 12.8252 50.3695 8.73226 55.896 7.70056C68.4302 5.36065 80.5579 1.69061 93.7509 0.487801C99.8678 -0.0698827 106.319 -0.052959 112.511 0.0708787Z" fill="#DDE6E6"/>
</svg>
