<svg width="217" height="23" viewBox="0 0 217 23" fill="none" xmlns="http://www.w3.org/2000/svg">
<path d="M98.8455 0.0429003C105.953 0.140843 114.053 2.55075 120.088 3.92462C120.2 3.9156 120.313 3.90851 120.428 3.90382C124.82 3.72545 129.127 3.67671 133.64 3.67671H150.775C154.482 3.67671 157.466 4.0493 161.043 4.11832C165.191 4.19835 169.38 4.13094 173.535 4.13094C184.03 4.13094 193.739 5.38712 204.078 5.89737C209.702 6.17494 210.992 8.84956 210.455 10.7172C210.061 12.0844 206.209 12.94 210.847 13.329C213.401 13.5432 217.595 13.7464 216.929 15.1585C216.3 16.4933 206.534 17.6013 203.718 17.9848C196.608 18.9531 189.958 19.6799 182.495 20.1298C176.647 20.4824 171.082 21.3562 165.163 21.5808C162.17 21.6944 159.077 21.6186 156.073 21.6186C152.676 21.6186 146.029 22.1683 143.515 20.9373C140.761 19.5885 138.628 20.1734 134.294 20.5335C121.774 21.574 108.599 22.8346 95.7389 22.9687C83.4632 23.0967 70.4839 22.8742 58.6558 21.5051C56.2195 21.2231 54.1025 20.4666 51.7885 20.0036C45.4603 18.7376 37.2928 19.3475 30.2385 19.3475C23.4452 19.3475 16.6754 19.3089 9.89835 19.1078C7.28747 19.0303 2.67514 18.9442 1.06903 17.9344C-1.37807 16.3957 0.722125 13.6706 3.88133 12.5846C9.09161 10.7936 16.6101 9.8975 22.9134 8.84984C28.3983 7.9382 34.1539 8.44239 39.918 8.10541C45.7821 7.7626 44.2518 5.28532 49.107 4.66087C60.1189 3.2446 70.7736 1.02326 82.3641 0.295248C87.7381 -0.0422974 93.4061 -0.0320541 98.8455 0.0429003Z" fill="#DDE6E6"/>
</svg>
