<svg width="299" height="48" viewBox="0 0 299 48" fill="none" xmlns="http://www.w3.org/2000/svg">
<path d="M136.197 0.089531C145.991 0.293934 157.151 5.32331 165.468 8.19051C165.621 8.17169 165.777 8.15689 165.936 8.14711C171.987 7.77486 177.921 7.67313 184.139 7.67313H207.75C212.857 7.67313 216.969 8.45072 221.898 8.59475C227.614 8.76177 233.385 8.62108 239.11 8.62108C253.572 8.62108 266.949 11.2427 281.195 12.3076C288.945 12.8868 290.722 18.4686 289.981 22.3664C289.439 25.2196 284.131 27.0052 290.522 27.8171C294.041 28.2642 299.82 28.6881 298.903 31.6352C298.036 34.4208 284.579 36.7332 280.699 37.5336C270.902 39.5543 261.739 41.071 251.456 42.01C243.398 42.7458 235.731 44.5694 227.575 45.0382C223.45 45.2753 219.19 45.1172 215.049 45.1172C210.369 45.1172 201.211 46.2644 197.747 43.6952C193.952 40.8804 191.012 42.101 185.04 42.8526C167.79 45.024 149.637 47.6548 131.917 47.9347C115.002 48.2018 97.1184 47.7375 80.8206 44.8802C77.4637 44.2916 74.5468 42.7128 71.3584 41.7467C62.6388 39.1045 51.385 40.3774 41.665 40.3774C32.3047 40.3774 22.9767 40.2969 13.6387 39.8771C10.0413 39.7154 3.68602 39.5358 1.473 37.4282C-1.89881 34.2171 0.995002 28.5299 5.34801 26.2635C12.5272 22.5257 22.8867 20.6557 31.5719 18.4692C39.1295 16.5667 47.06 17.6189 55.0022 16.9156C63.0822 16.2002 60.9736 11.0302 67.6636 9.72703C82.8366 6.77134 97.5175 2.1355 113.488 0.61617C120.893 -0.0882729 128.702 -0.0668955 136.197 0.089531Z" fill="#DDE6E6"/>
</svg>
